<?xml version="1.0" encoding="utf-8" standalone="no"?>
<!DOCTYPE svg PUBLIC "-//W3C//DTD SVG 1.1//EN"
  "http://www.w3.org/Graphics/SVG/1.1/DTD/svg11.dtd">
<svg xmlns:xlink="http://www.w3.org/1999/xlink" width="720pt" height="432pt" viewBox="0 0 720 432" xmlns="http://www.w3.org/2000/svg" version="1.1">
 <metadata>
  <rdf:RDF xmlns:dc="http://purl.org/dc/elements/1.1/" xmlns:cc="http://creativecommons.org/ns#" xmlns:rdf="http://www.w3.org/1999/02/22-rdf-syntax-ns#">
   <cc:Work>
    <dc:type rdf:resource="http://purl.org/dc/dcmitype/StillImage"/>
    <dc:date>2026-07-17T00:00:14.266006</dc:date>
    <dc:format>image/svg+xml</dc:format>
    <dc:creator>
     <cc:Agent>
      <dc:title>Matplotlib v3.9.2, https://matplotlib.org/</dc:title>
     </cc:Agent>
    </dc:creator>
   </cc:Work>
  </rdf:RDF>
 </metadata>
 <defs>
  <style type="text/css">*{stroke-linejoin: round; stroke-linecap: butt}</style>
 </defs>
 <g id="figure_1">
  <g id="patch_1">
   <path d="M 0 432 
L 720 432 
L 720 0 
L 0 0 
L 0 432 
z
" style="fill: none"/>
  </g>
  <g id="axes_1">
   <g id="patch_2">
    <path d="M 83.792 380.68 
L 698.94 380.68 
L 698.94 15.84 
L 83.792 15.84 
L 83.792 380.68 
z
" style="fill: none"/>
   </g>
   <g id="matplotlib.axis_1">
    <g id="xtick_1">
     <g id="line2d_1">
      <path d="M 83.792 380.68 
L 83.792 15.84 
" clip-path="url(#paf56ce37f2)" style="fill: none; stroke: #b0b0b0; stroke-opacity: 0.3; stroke-width: 0.8; stroke-linecap: square"/>
     </g>
     <g id="line2d_2">
      <defs>
       <path id="m3d65e9ca2a" d="M 0 0 
L 0 3.5 
" style="stroke: #000000; stroke-width: 0.8"/>
      </defs>
      <g>
       <use xlink:href="#m3d65e9ca2a" x="83.792" y="380.68" style="stroke: #000000; stroke-width: 0.8"/>
      </g>
     </g>
     <g id="text_1">
      <text style="font: 13px 'DejaVu Sans', 'Bitstream Vera Sans', 'Computer Modern Sans Serif', 'Lucida Grande', 'Verdana', 'Geneva', 'Lucid', 'Arial', 'Helvetica', 'Avant Garde', sans-serif; text-anchor: middle" x="83.792" y="397.557969" transform="rotate(-0 83.792 397.557969)">0.0</text>
     </g>
    </g>
    <g id="xtick_2">
     <g id="line2d_3">
      <path d="M 152.141778 380.68 
L 152.141778 15.84 
" clip-path="url(#paf56ce37f2)" style="fill: none; stroke: #b0b0b0; stroke-opacity: 0.3; stroke-width: 0.8; stroke-linecap: square"/>
     </g>
     <g id="line2d_4">
      <g>
       <use xlink:href="#m3d65e9ca2a" x="152.141778" y="380.68" style="stroke: #000000; stroke-width: 0.8"/>
      </g>
     </g>
     <g id="text_2">
      <text style="font: 13px 'DejaVu Sans', 'Bitstream Vera Sans', 'Computer Modern Sans Serif', 'Lucida Grande', 'Verdana', 'Geneva', 'Lucid', 'Arial', 'Helvetica', 'Avant Garde', sans-serif; text-anchor: middle" x="152.141778" y="397.557969" transform="rotate(-0 152.141778 397.557969)">0.2</text>
     </g>
    </g>
    <g id="xtick_3">
     <g id="line2d_5">
      <path d="M 220.491556 380.68 
L 220.491556 15.84 
" clip-path="url(#paf56ce37f2)" style="fill: none; stroke: #b0b0b0; stroke-opacity: 0.3; stroke-width: 0.8; stroke-linecap: square"/>
     </g>
     <g id="line2d_6">
      <g>
       <use xlink:href="#m3d65e9ca2a" x="220.491556" y="380.68" style="stroke: #000000; stroke-width: 0.8"/>
      </g>
     </g>
     <g id="text_3">
      <text style="font: 13px 'DejaVu Sans', 'Bitstream Vera Sans', 'Computer Modern Sans Serif', 'Lucida Grande', 'Verdana', 'Geneva', 'Lucid', 'Arial', 'Helvetica', 'Avant Garde', sans-serif; text-anchor: middle" x="220.491556" y="397.557969" transform="rotate(-0 220.491556 397.557969)">0.4</text>
     </g>
    </g>
    <g id="xtick_4">
     <g id="line2d_7">
      <path d="M 288.841333 380.68 
L 288.841333 15.84 
" clip-path="url(#paf56ce37f2)" style="fill: none; stroke: #b0b0b0; stroke-opacity: 0.3; stroke-width: 0.8; stroke-linecap: square"/>
     </g>
     <g id="line2d_8">
      <g>
       <use xlink:href="#m3d65e9ca2a" x="288.841333" y="380.68" style="stroke: #000000; stroke-width: 0.8"/>
      </g>
     </g>
     <g id="text_4">
      <text style="font: 13px 'DejaVu Sans', 'Bitstream Vera Sans', 'Computer Modern Sans Serif', 'Lucida Grande', 'Verdana', 'Geneva', 'Lucid', 'Arial', 'Helvetica', 'Avant Garde', sans-serif; text-anchor: middle" x="288.841333" y="397.557969" transform="rotate(-0 288.841333 397.557969)">0.6</text>
     </g>
    </g>
    <g id="xtick_5">
     <g id="line2d_9">
      <path d="M 357.191111 380.68 
L 357.191111 15.84 
" clip-path="url(#paf56ce37f2)" style="fill: none; stroke: #b0b0b0; stroke-opacity: 0.3; stroke-width: 0.8; stroke-linecap: square"/>
     </g>
     <g id="line2d_10">
      <g>
       <use xlink:href="#m3d65e9ca2a" x="357.191111" y="380.68" style="stroke: #000000; stroke-width: 0.8"/>
      </g>
     </g>
     <g id="text_5">
      <text style="font: 13px 'DejaVu Sans', 'Bitstream Vera Sans', 'Computer Modern Sans Serif', 'Lucida Grande', 'Verdana', 'Geneva', 'Lucid', 'Arial', 'Helvetica', 'Avant Garde', sans-serif; text-anchor: middle" x="357.191111" y="397.557969" transform="rotate(-0 357.191111 397.557969)">0.8</text>
     </g>
    </g>
    <g id="xtick_6">
     <g id="line2d_11">
      <path d="M 425.540889 380.68 
L 425.540889 15.84 
" clip-path="url(#paf56ce37f2)" style="fill: none; stroke: #b0b0b0; stroke-opacity: 0.3; stroke-width: 0.8; stroke-linecap: square"/>
     </g>
     <g id="line2d_12">
      <g>
       <use xlink:href="#m3d65e9ca2a" x="425.540889" y="380.68" style="stroke: #000000; stroke-width: 0.8"/>
      </g>
     </g>
     <g id="text_6">
      <text style="font: 13px 'DejaVu Sans', 'Bitstream Vera Sans', 'Computer Modern Sans Serif', 'Lucida Grande', 'Verdana', 'Geneva', 'Lucid', 'Arial', 'Helvetica', 'Avant Garde', sans-serif; text-anchor: middle" x="425.540889" y="397.557969" transform="rotate(-0 425.540889 397.557969)">1.0</text>
     </g>
    </g>
    <g id="xtick_7">
     <g id="line2d_13">
      <path d="M 493.890667 380.68 
L 493.890667 15.84 
" clip-path="url(#paf56ce37f2)" style="fill: none; stroke: #b0b0b0; stroke-opacity: 0.3; stroke-width: 0.8; stroke-linecap: square"/>
     </g>
     <g id="line2d_14">
      <g>
       <use xlink:href="#m3d65e9ca2a" x="493.890667" y="380.68" style="stroke: #000000; stroke-width: 0.8"/>
      </g>
     </g>
     <g id="text_7">
      <text style="font: 13px 'DejaVu Sans', 'Bitstream Vera Sans', 'Computer Modern Sans Serif', 'Lucida Grande', 'Verdana', 'Geneva', 'Lucid', 'Arial', 'Helvetica', 'Avant Garde', sans-serif; text-anchor: middle" x="493.890667" y="397.557969" transform="rotate(-0 493.890667 397.557969)">1.2</text>
     </g>
    </g>
    <g id="xtick_8">
     <g id="line2d_15">
      <path d="M 562.240444 380.68 
L 562.240444 15.84 
" clip-path="url(#paf56ce37f2)" style="fill: none; stroke: #b0b0b0; stroke-opacity: 0.3; stroke-width: 0.8; stroke-linecap: square"/>
     </g>
     <g id="line2d_16">
      <g>
       <use xlink:href="#m3d65e9ca2a" x="562.240444" y="380.68" style="stroke: #000000; stroke-width: 0.8"/>
      </g>
     </g>
     <g id="text_8">
      <text style="font: 13px 'DejaVu Sans', 'Bitstream Vera Sans', 'Computer Modern Sans Serif', 'Lucida Grande', 'Verdana', 'Geneva', 'Lucid', 'Arial', 'Helvetica', 'Avant Garde', sans-serif; text-anchor: middle" x="562.240444" y="397.557969" transform="rotate(-0 562.240444 397.557969)">1.4</text>
     </g>
    </g>
    <g id="xtick_9">
     <g id="line2d_17">
      <path d="M 630.590222 380.68 
L 630.590222 15.84 
" clip-path="url(#paf56ce37f2)" style="fill: none; stroke: #b0b0b0; stroke-opacity: 0.3; stroke-width: 0.8; stroke-linecap: square"/>
     </g>
     <g id="line2d_18">
      <g>
       <use xlink:href="#m3d65e9ca2a" x="630.590222" y="380.68" style="stroke: #000000; stroke-width: 0.8"/>
      </g>
     </g>
     <g id="text_9">
      <text style="font: 13px 'DejaVu Sans', 'Bitstream Vera Sans', 'Computer Modern Sans Serif', 'Lucida Grande', 'Verdana', 'Geneva', 'Lucid', 'Arial', 'Helvetica', 'Avant Garde', sans-serif; text-anchor: middle" x="630.590222" y="397.557969" transform="rotate(-0 630.590222 397.557969)">1.6</text>
     </g>
    </g>
    <g id="xtick_10">
     <g id="line2d_19">
      <path d="M 698.94 380.68 
L 698.94 15.84 
" clip-path="url(#paf56ce37f2)" style="fill: none; stroke: #b0b0b0; stroke-opacity: 0.3; stroke-width: 0.8; stroke-linecap: square"/>
     </g>
     <g id="line2d_20">
      <g>
       <use xlink:href="#m3d65e9ca2a" x="698.94" y="380.68" style="stroke: #000000; stroke-width: 0.8"/>
      </g>
     </g>
     <g id="text_10">
      <text style="font: 13px 'DejaVu Sans', 'Bitstream Vera Sans', 'Computer Modern Sans Serif', 'Lucida Grande', 'Verdana', 'Geneva', 'Lucid', 'Arial', 'Helvetica', 'Avant Garde', sans-serif; text-anchor: middle" x="698.94" y="397.557969" transform="rotate(-0 698.94 397.557969)">1.8</text>
     </g>
    </g>
    <g id="text_11">
     <!-- $x$ [m] -->
     <g transform="translate(371.341 415.659219)">
      <text>
       <tspan style="font: oblique 15px 'DejaVu Sans'" x="0" y="-0.609375">x</tspan>
       <tspan style="font: 15px 'DejaVu Sans'" x="8.876953 13.64502 19.49707 34.108887" y="-0.609375"> [m]</tspan>
      </text>
     </g>
    </g>
   </g>
   <g id="matplotlib.axis_2">
    <g id="ytick_1">
     <g id="line2d_21">
      <path d="M 83.792 380.68 
L 698.94 380.68 
" clip-path="url(#paf56ce37f2)" style="fill: none; stroke: #b0b0b0; stroke-opacity: 0.3; stroke-width: 0.8; stroke-linecap: square"/>
     </g>
     <g id="line2d_22">
      <defs>
       <path id="m2d2ba342bc" d="M 0 0 
L -3.5 0 
" style="stroke: #000000; stroke-width: 0.8"/>
      </defs>
      <g>
       <use xlink:href="#m2d2ba342bc" x="83.792" y="380.68" style="stroke: #000000; stroke-width: 0.8"/>
      </g>
     </g>
     <g id="text_12">
      <text style="font: 13px 'DejaVu Sans', 'Bitstream Vera Sans', 'Computer Modern Sans Serif', 'Lucida Grande', 'Verdana', 'Geneva', 'Lucid', 'Arial', 'Helvetica', 'Avant Garde', sans-serif; text-anchor: end" x="76.792" y="385.618984" transform="rotate(-0 76.792 385.618984)">0.0020</text>
     </g>
    </g>
    <g id="ytick_2">
     <g id="line2d_23">
      <path d="M 83.792 335.075 
L 698.94 335.075 
" clip-path="url(#paf56ce37f2)" style="fill: none; stroke: #b0b0b0; stroke-opacity: 0.3; stroke-width: 0.8; stroke-linecap: square"/>
     </g>
     <g id="line2d_24">
      <g>
       <use xlink:href="#m2d2ba342bc" x="83.792" y="335.075" style="stroke: #000000; stroke-width: 0.8"/>
      </g>
     </g>
     <g id="text_13">
      <text style="font: 13px 'DejaVu Sans', 'Bitstream Vera Sans', 'Computer Modern Sans Serif', 'Lucida Grande', 'Verdana', 'Geneva', 'Lucid', 'Arial', 'Helvetica', 'Avant Garde', sans-serif; text-anchor: end" x="76.792" y="340.013984" transform="rotate(-0 76.792 340.013984)">0.0025</text>
     </g>
    </g>
    <g id="ytick_3">
     <g id="line2d_25">
      <path d="M 83.792 289.47 
L 698.94 289.47 
" clip-path="url(#paf56ce37f2)" style="fill: none; stroke: #b0b0b0; stroke-opacity: 0.3; stroke-width: 0.8; stroke-linecap: square"/>
     </g>
     <g id="line2d_26">
      <g>
       <use xlink:href="#m2d2ba342bc" x="83.792" y="289.47" style="stroke: #000000; stroke-width: 0.8"/>
      </g>
     </g>
     <g id="text_14">
      <text style="font: 13px 'DejaVu Sans', 'Bitstream Vera Sans', 'Computer Modern Sans Serif', 'Lucida Grande', 'Verdana', 'Geneva', 'Lucid', 'Arial', 'Helvetica', 'Avant Garde', sans-serif; text-anchor: end" x="76.792" y="294.408984" transform="rotate(-0 76.792 294.408984)">0.0030</text>
     </g>
    </g>
    <g id="ytick_4">
     <g id="line2d_27">
      <path d="M 83.792 243.865 
L 698.94 243.865 
" clip-path="url(#paf56ce37f2)" style="fill: none; stroke: #b0b0b0; stroke-opacity: 0.3; stroke-width: 0.8; stroke-linecap: square"/>
     </g>
     <g id="line2d_28">
      <g>
       <use xlink:href="#m2d2ba342bc" x="83.792" y="243.865" style="stroke: #000000; stroke-width: 0.8"/>
      </g>
     </g>
     <g id="text_15">
      <text style="font: 13px 'DejaVu Sans', 'Bitstream Vera Sans', 'Computer Modern Sans Serif', 'Lucida Grande', 'Verdana', 'Geneva', 'Lucid', 'Arial', 'Helvetica', 'Avant Garde', sans-serif; text-anchor: end" x="76.792" y="248.803984" transform="rotate(-0 76.792 248.803984)">0.0035</text>
     </g>
    </g>
    <g id="ytick_5">
     <g id="line2d_29">
      <path d="M 83.792 198.26 
L 698.94 198.26 
" clip-path="url(#paf56ce37f2)" style="fill: none; stroke: #b0b0b0; stroke-opacity: 0.3; stroke-width: 0.8; stroke-linecap: square"/>
     </g>
     <g id="line2d_30">
      <g>
       <use xlink:href="#m2d2ba342bc" x="83.792" y="198.26" style="stroke: #000000; stroke-width: 0.8"/>
      </g>
     </g>
     <g id="text_16">
      <text style="font: 13px 'DejaVu Sans', 'Bitstream Vera Sans', 'Computer Modern Sans Serif', 'Lucida Grande', 'Verdana', 'Geneva', 'Lucid', 'Arial', 'Helvetica', 'Avant Garde', sans-serif; text-anchor: end" x="76.792" y="203.198984" transform="rotate(-0 76.792 203.198984)">0.0040</text>
     </g>
    </g>
    <g id="ytick_6">
     <g id="line2d_31">
      <path d="M 83.792 152.655 
L 698.94 152.655 
" clip-path="url(#paf56ce37f2)" style="fill: none; stroke: #b0b0b0; stroke-opacity: 0.3; stroke-width: 0.8; stroke-linecap: square"/>
     </g>
     <g id="line2d_32">
      <g>
       <use xlink:href="#m2d2ba342bc" x="83.792" y="152.655" style="stroke: #000000; stroke-width: 0.8"/>
      </g>
     </g>
     <g id="text_17">
      <text style="font: 13px 'DejaVu Sans', 'Bitstream Vera Sans', 'Computer Modern Sans Serif', 'Lucida Grande', 'Verdana', 'Geneva', 'Lucid', 'Arial', 'Helvetica', 'Avant Garde', sans-serif; text-anchor: end" x="76.792" y="157.593984" transform="rotate(-0 76.792 157.593984)">0.0045</text>
     </g>
    </g>
    <g id="ytick_7">
     <g id="line2d_33">
      <path d="M 83.792 107.05 
L 698.94 107.05 
" clip-path="url(#paf56ce37f2)" style="fill: none; stroke: #b0b0b0; stroke-opacity: 0.3; stroke-width: 0.8; stroke-linecap: square"/>
     </g>
     <g id="line2d_34">
      <g>
       <use xlink:href="#m2d2ba342bc" x="83.792" y="107.05" style="stroke: #000000; stroke-width: 0.8"/>
      </g>
     </g>
     <g id="text_18">
      <text style="font: 13px 'DejaVu Sans', 'Bitstream Vera Sans', 'Computer Modern Sans Serif', 'Lucida Grande', 'Verdana', 'Geneva', 'Lucid', 'Arial', 'Helvetica', 'Avant Garde', sans-serif; text-anchor: end" x="76.792" y="111.988984" transform="rotate(-0 76.792 111.988984)">0.0050</text>
     </g>
    </g>
    <g id="ytick_8">
     <g id="line2d_35">
      <path d="M 83.792 61.445 
L 698.94 61.445 
" clip-path="url(#paf56ce37f2)" style="fill: none; stroke: #b0b0b0; stroke-opacity: 0.3; stroke-width: 0.8; stroke-linecap: square"/>
     </g>
     <g id="line2d_36">
      <g>
       <use xlink:href="#m2d2ba342bc" x="83.792" y="61.445" style="stroke: #000000; stroke-width: 0.8"/>
      </g>
     </g>
     <g id="text_19">
      <text style="font: 13px 'DejaVu Sans', 'Bitstream Vera Sans', 'Computer Modern Sans Serif', 'Lucida Grande', 'Verdana', 'Geneva', 'Lucid', 'Arial', 'Helvetica', 'Avant Garde', sans-serif; text-anchor: end" x="76.792" y="66.383984" transform="rotate(-0 76.792 66.383984)">0.0055</text>
     </g>
    </g>
    <g id="ytick_9">
     <g id="line2d_37">
      <path d="M 83.792 15.84 
L 698.94 15.84 
" clip-path="url(#paf56ce37f2)" style="fill: none; stroke: #b0b0b0; stroke-opacity: 0.3; stroke-width: 0.8; stroke-linecap: square"/>
     </g>
     <g id="line2d_38">
      <g>
       <use xlink:href="#m2d2ba342bc" x="83.792" y="15.84" style="stroke: #000000; stroke-width: 0.8"/>
      </g>
     </g>
     <g id="text_20">
      <text style="font: 13px 'DejaVu Sans', 'Bitstream Vera Sans', 'Computer Modern Sans Serif', 'Lucida Grande', 'Verdana', 'Geneva', 'Lucid', 'Arial', 'Helvetica', 'Avant Garde', sans-serif; text-anchor: end" x="76.792" y="20.778984" transform="rotate(-0 76.792 20.778984)">0.0060</text>
     </g>
    </g>
    <g id="text_21">
     <!-- $C_f$ -->
     <g transform="translate(24.184656 205.61) rotate(-90)">
      <text>
       <tspan style="font: oblique 15px 'DejaVu Sans'" x="0" y="-0.859375">C</tspan>
       <tspan style="font: oblique 10.5px 'DejaVu Sans'" x="10.473633" y="1.6015625">f</tspan>
      </text>
     </g>
    </g>
   </g>
   <g id="line2d_39">
    <path d="M 85.742025 -1 
L 85.854129 60.870438 
L 87.242029 133.131404 
L 88.641672 146.678762 
L 90.053512 152.117179 
L 91.478016 156.434646 
L 92.915667 160.885633 
L 94.36696 165.475658 
L 95.832407 170.042523 
L 97.312535 174.455277 
L 98.807891 178.677519 
L 100.319035 182.702132 
L 101.84655 186.538092 
L 103.391037 190.195175 
L 104.953118 193.685818 
L 106.533437 197.01927 
L 108.132661 200.205744 
L 109.751481 203.258626 
L 111.390614 206.183298 
L 113.050805 208.99159 
L 114.732824 211.688007 
L 116.437476 214.283807 
L 118.165592 216.788974 
L 119.918042 219.200408 
L 121.695726 221.532909 
L 123.499585 223.793151 
L 125.330597 225.976486 
L 127.189783 228.095093 
L 129.078207 230.155096 
L 130.99698 232.153871 
L 132.947262 234.098268 
L 134.930266 235.995843 
L 136.94726 237.844663 
L 138.999569 239.646346 
L 141.088583 241.406841 
L 143.215756 243.130553 
L 145.382614 244.817165 
L 147.590757 246.466682 
L 149.841864 248.085313 
L 152.137701 249.675761 
L 154.480123 251.236153 
L 156.87108 252.768534 
L 159.312629 254.275473 
L 161.806934 255.760361 
L 164.356277 257.223016 
L 166.963067 258.662087 
L 169.629847 260.08278 
L 172.359308 261.487998 
L 175.154292 262.87498 
L 178.017811 264.243842 
L 180.953057 265.599025 
L 183.963412 266.940294 
L 187.052472 268.268971 
L 190.224054 269.586065 
L 193.48222 270.890105 
L 196.831294 272.184856 
L 200.275887 273.472907 
L 203.820918 274.752049 
L 207.47164 276.02185 
L 211.233674 277.285901 
L 215.113037 278.544025 
L 219.116179 279.797674 
L 223.250023 281.047223 
L 227.522013 282.291104 
L 231.940155 283.53286 
L 236.513084 284.775118 
L 241.250114 286.015725 
L 246.161317 287.254241 
L 251.257596 288.493844 
L 256.550776 289.734782 
L 262.053699 290.978025 
L 267.780342 292.224002 
L 273.745942 293.472083 
L 279.967143 294.724958 
L 286.462162 295.985089 
L 293.250977 297.250785 
L 300.35555 298.521601 
L 307.800079 299.800987 
L 315.611288 301.091541 
L 323.818766 302.391661 
L 332.455364 303.700529 
L 341.557657 305.022217 
L 351.166486 306.359125 
L 361.327604 307.710575 
L 372.09243 309.077556 
L 383.518962 310.461837 
L 395.67286 311.863847 
L 408.62876 313.283356 
L 422.471859 314.72403 
L 436.967077 316.159195 
L 451.648086 317.541886 
L 466.329094 318.859881 
L 481.010103 320.118107 
L 495.691112 321.319203 
L 510.372121 322.467199 
L 525.05313 323.567099 
L 539.734139 324.622657 
L 554.415148 325.636649 
L 569.096157 326.610955 
L 583.777166 327.547568 
L 598.458175 328.449524 
L 613.139184 329.320013 
L 627.820193 330.160525 
L 642.501202 330.974429 
L 657.182211 331.76972 
L 671.86322 332.553509 
L 686.544229 333.329432 
L 701.225238 334.082223 
L 715.906246 334.80793 
L 721 335.052466 
" clip-path="url(#paf56ce37f2)" style="fill: none; stroke: #0072b2; stroke-width: 4; stroke-linecap: square"/>
    <defs>
     <path id="m7a1919cc31" d="M -0 8.485281 
L 5.091169 0 
L 0 -8.485281 
L -5.091169 -0 
z
" style="stroke: #0072b2; stroke-linejoin: miter"/>
    </defs>
    <g clip-path="url(#paf56ce37f2)">
     <use xlink:href="#m7a1919cc31" x="95.873791" y="-1" style="fill: #0072b2; stroke: #0072b2; stroke-linejoin: miter"/>
     <use xlink:href="#m7a1919cc31" x="98.807891" y="178.677519" style="fill: #0072b2; stroke: #0072b2; stroke-linejoin: miter"/>
     <use xlink:href="#m7a1919cc31" x="114.732824" y="211.688007" style="fill: #0072b2; stroke: #0072b2; stroke-linejoin: miter"/>
     <use xlink:href="#m7a1919cc31" x="132.947262" y="234.098268" style="fill: #0072b2; stroke: #0072b2; stroke-linejoin: miter"/>
     <use xlink:href="#m7a1919cc31" x="154.480123" y="251.236153" style="fill: #0072b2; stroke: #0072b2; stroke-linejoin: miter"/>
     <use xlink:href="#m7a1919cc31" x="180.953057" y="265.599025" style="fill: #0072b2; stroke: #0072b2; stroke-linejoin: miter"/>
     <use xlink:href="#m7a1919cc31" x="215.113037" y="278.544025" style="fill: #0072b2; stroke: #0072b2; stroke-linejoin: miter"/>
     <use xlink:href="#m7a1919cc31" x="262.053699" y="290.978025" style="fill: #0072b2; stroke: #0072b2; stroke-linejoin: miter"/>
     <use xlink:href="#m7a1919cc31" x="332.455364" y="303.700529" style="fill: #0072b2; stroke: #0072b2; stroke-linejoin: miter"/>
     <use xlink:href="#m7a1919cc31" x="451.648086" y="317.541886" style="fill: #0072b2; stroke: #0072b2; stroke-linejoin: miter"/>
     <use xlink:href="#m7a1919cc31" x="598.458175" y="328.449524" style="fill: #0072b2; stroke: #0072b2; stroke-linejoin: miter"/>
     <use xlink:href="#m7a1919cc31" x="745.268264" y="336.192576" style="fill: #0072b2; stroke: #0072b2; stroke-linejoin: miter"/>
    </g>
   </g>
   <g id="line2d_40">
    <path d="M 84.855694 -1 
L 85.242703 44.288048 
L 85.677924 72.251272 
L 86.159085 90.054538 
L 86.711247 102.536875 
L 87.329624 111.777931 
L 88.078773 119.836072 
L 89.077818 128.07965 
L 90.309429 136.322039 
L 91.827747 144.897755 
L 93.52814 153.185378 
L 95.384101 161.102338 
L 97.354983 168.525933 
L 99.386376 175.335284 
L 101.411842 181.431047 
L 103.700303 187.629594 
L 105.896933 193.003911 
L 108.335872 198.416411 
L 111.043852 203.849637 
L 113.527335 208.380908 
L 116.237097 212.905405 
L 119.193761 217.414483 
L 122.419816 221.900287 
L 125.939816 226.355616 
L 128.985371 229.893699 
L 132.250964 233.405385 
L 135.752501 236.888168 
L 139.507026 240.339925 
L 143.53282 243.758723 
L 147.849476 247.143032 
L 152.478013 250.491495 
L 157.440967 253.803006 
L 162.762491 257.076737 
L 168.468506 260.311988 
L 174.586781 263.50827 
L 181.147105 266.6652 
L 188.181416 269.782546 
L 195.723953 272.860222 
L 203.811444 275.898165 
L 212.483264 278.896438 
L 221.781629 281.855168 
L 231.751811 284.774526 
L 242.442331 287.654703 
L 253.905255 290.495953 
L 266.196374 293.298575 
L 279.375547 296.0628 
L 293.506906 298.788949 
L 308.659283 301.477275 
L 324.906415 304.128055 
L 342.32742 306.741502 
L 361.007075 309.317848 
L 381.036374 311.857179 
L 402.512786 314.360387 
L 419.632398 316.211232 
L 448.568972 319.09366 
L 475.184465 321.508758 
L 504.205879 323.920075 
L 534.440601 326.218585 
L 568.265259 328.564919 
L 603.007945 330.755165 
L 640.823499 332.905422 
L 676.495007 334.706191 
L 699.791361 335.737435 
L 699.791361 335.737435 
" clip-path="url(#paf56ce37f2)" style="fill: none; stroke-dasharray: 14.8,6.4; stroke-dashoffset: 0; stroke: #e69f00; stroke-width: 4"/>
   </g>
   <g id="patch_3">
    <path d="M 83.792 380.68 
L 83.792 15.84 
" style="fill: none; stroke: #000000; stroke-width: 0.8; stroke-linejoin: miter; stroke-linecap: square"/>
   </g>
   <g id="patch_4">
    <path d="M 698.94 380.68 
L 698.94 15.84 
" style="fill: none; stroke: #000000; stroke-width: 0.8; stroke-linejoin: miter; stroke-linecap: square"/>
   </g>
   <g id="patch_5">
    <path d="M 83.792 380.68 
L 698.94 380.68 
" style="fill: none; stroke: #000000; stroke-width: 0.8; stroke-linejoin: miter; stroke-linecap: square"/>
   </g>
   <g id="patch_6">
    <path d="M 83.792 15.84 
L 698.94 15.84 
" style="fill: none; stroke: #000000; stroke-width: 0.8; stroke-linejoin: miter; stroke-linecap: square"/>
   </g>
   <g id="legend_1">
    <g id="patch_7">
     <path d="M 606.160625 64.403125 
L 689.84 64.403125 
Q 692.44 64.403125 692.44 61.803125 
L 692.44 24.94 
Q 692.44 22.34 689.84 22.34 
L 606.160625 22.34 
Q 603.560625 22.34 603.560625 24.94 
L 603.560625 61.803125 
Q 603.560625 64.403125 606.160625 64.403125 
L 606.160625 64.403125 
z
" style="fill: none; opacity: 0.8; stroke: #cccccc; stroke-linejoin: miter"/>
    </g>
    <g id="line2d_41">
     <path d="M 608.760625 32.867969 
L 621.760625 32.867969 
L 634.760625 32.867969 
" style="fill: none; stroke: #0072b2; stroke-width: 4; stroke-linecap: square"/>
     <g>
      <use xlink:href="#m7a1919cc31" x="621.760625" y="32.867969" style="fill: #0072b2; stroke: #0072b2; stroke-linejoin: miter"/>
     </g>
    </g>
    <g id="text_22">
     <text style="font: 13px 'DejaVu Sans', 'Bitstream Vera Sans', 'Computer Modern Sans Serif', 'Lucida Grande', 'Verdana', 'Geneva', 'Lucid', 'Arial', 'Helvetica', 'Avant Garde', sans-serif; text-anchor: start" x="645.160625" y="37.417969" transform="rotate(-0 645.160625 37.417969)">MOSE</text>
    </g>
    <g id="line2d_42">
     <path d="M 608.760625 51.949531 
L 621.760625 51.949531 
L 634.760625 51.949531 
" style="fill: none; stroke-dasharray: 14.8,6.4; stroke-dashoffset: 0; stroke: #e69f00; stroke-width: 4"/>
    </g>
    <g id="text_23">
     <text style="font: 13px 'DejaVu Sans', 'Bitstream Vera Sans', 'Computer Modern Sans Serif', 'Lucida Grande', 'Verdana', 'Geneva', 'Lucid', 'Arial', 'Helvetica', 'Avant Garde', sans-serif; text-anchor: start" x="645.160625" y="56.499531" transform="rotate(-0 645.160625 56.499531)">CFL3D</text>
    </g>
   </g>
  </g>
 </g>
 <defs>
  <clipPath id="paf56ce37f2">
   <rect x="83.792" y="15.84" width="615.148" height="364.84"/>
  </clipPath>
 </defs>
</svg>
