<?xml version="1.0" encoding="utf-8" standalone="no"?>
<!DOCTYPE svg PUBLIC "-//W3C//DTD SVG 1.1//EN"
  "http://www.w3.org/Graphics/SVG/1.1/DTD/svg11.dtd">
<!-- Created with matplotlib (https://matplotlib.org/) -->
<svg height="279.99625pt" version="1.1" viewBox="0 0 711.817812 279.99625" width="711.817812pt" xmlns="http://www.w3.org/2000/svg" xmlns:xlink="http://www.w3.org/1999/xlink">
 <metadata>
  <rdf:RDF xmlns:cc="http://creativecommons.org/ns#" xmlns:dc="http://purl.org/dc/elements/1.1/" xmlns:rdf="http://www.w3.org/1999/02/22-rdf-syntax-ns#">
   <cc:Work>
    <dc:type rdf:resource="http://purl.org/dc/dcmitype/StillImage"/>
    <dc:date>2026-04-03T11:45:04.396209</dc:date>
    <dc:format>image/svg+xml</dc:format>
    <dc:creator>
     <cc:Agent>
      <dc:title>Matplotlib v3.3.4, https://matplotlib.org/</dc:title>
     </cc:Agent>
    </dc:creator>
   </cc:Work>
  </rdf:RDF>
 </metadata>
 <defs>
  <style type="text/css">*{stroke-linecap:butt;stroke-linejoin:round;}</style>
 </defs>
 <g id="figure_1">
  <g id="patch_1">
   <path d="M 0 279.99625 
L 711.817812 279.99625 
L 711.817812 0 
L 0 0 
z
" style="fill:none;"/>
  </g>
  <g id="axes_1">
   <g id="patch_2">
    <path d="M 43.78125 242.44 
L 696.66625 242.44 
L 696.66625 7.2 
L 43.78125 7.2 
z
" style="fill:none;"/>
   </g>
   <g id="matplotlib.axis_1">
    <g id="xtick_1">
     <g id="line2d_1">
      <path clip-path="url(#p32f497ee11)" d="M 43.78125 242.44 
L 43.78125 7.2 
" style="fill:none;stroke:#b0b0b0;stroke-dasharray:2.96,1.28;stroke-dashoffset:0;stroke-opacity:0.4;stroke-width:0.8;"/>
     </g>
     <g id="line2d_2">
      <defs>
       <path d="M 0 0 
L 0 3.5 
" id="mb2065219b6" style="stroke:#000000;stroke-width:0.8;"/>
      </defs>
      <g>
       <use style="stroke:#000000;stroke-width:0.8;" x="43.78125" xlink:href="#mb2065219b6" y="242.44"/>
      </g>
     </g>
     <g id="text_1">
      <text style="font-family:DejaVu Sans;font-size:10px;font-stretch:normal;font-style:normal;font-weight:normal;text-anchor:middle;" transform="rotate(-0, 43.78125, 257.038437)" x="43.78125" y="257.038437">0.0</text>
     </g>
    </g>
    <g id="xtick_2">
     <g id="line2d_3">
      <path clip-path="url(#p32f497ee11)" d="M 152.595417 242.44 
L 152.595417 7.2 
" style="fill:none;stroke:#b0b0b0;stroke-dasharray:2.96,1.28;stroke-dashoffset:0;stroke-opacity:0.4;stroke-width:0.8;"/>
     </g>
     <g id="line2d_4">
      <g>
       <use style="stroke:#000000;stroke-width:0.8;" x="152.595417" xlink:href="#mb2065219b6" y="242.44"/>
      </g>
     </g>
     <g id="text_2">
      <text style="font-family:DejaVu Sans;font-size:10px;font-stretch:normal;font-style:normal;font-weight:normal;text-anchor:middle;" transform="rotate(-0, 152.595417, 257.038437)" x="152.595417" y="257.038437">0.5</text>
     </g>
    </g>
    <g id="xtick_3">
     <g id="line2d_5">
      <path clip-path="url(#p32f497ee11)" d="M 261.409583 242.44 
L 261.409583 7.2 
" style="fill:none;stroke:#b0b0b0;stroke-dasharray:2.96,1.28;stroke-dashoffset:0;stroke-opacity:0.4;stroke-width:0.8;"/>
     </g>
     <g id="line2d_6">
      <g>
       <use style="stroke:#000000;stroke-width:0.8;" x="261.409583" xlink:href="#mb2065219b6" y="242.44"/>
      </g>
     </g>
     <g id="text_3">
      <text style="font-family:DejaVu Sans;font-size:10px;font-stretch:normal;font-style:normal;font-weight:normal;text-anchor:middle;" transform="rotate(-0, 261.409583, 257.038437)" x="261.409583" y="257.038437">1.0</text>
     </g>
    </g>
    <g id="xtick_4">
     <g id="line2d_7">
      <path clip-path="url(#p32f497ee11)" d="M 370.22375 242.44 
L 370.22375 7.2 
" style="fill:none;stroke:#b0b0b0;stroke-dasharray:2.96,1.28;stroke-dashoffset:0;stroke-opacity:0.4;stroke-width:0.8;"/>
     </g>
     <g id="line2d_8">
      <g>
       <use style="stroke:#000000;stroke-width:0.8;" x="370.22375" xlink:href="#mb2065219b6" y="242.44"/>
      </g>
     </g>
     <g id="text_4">
      <text style="font-family:DejaVu Sans;font-size:10px;font-stretch:normal;font-style:normal;font-weight:normal;text-anchor:middle;" transform="rotate(-0, 370.22375, 257.038437)" x="370.22375" y="257.038437">1.5</text>
     </g>
    </g>
    <g id="xtick_5">
     <g id="line2d_9">
      <path clip-path="url(#p32f497ee11)" d="M 479.037917 242.44 
L 479.037917 7.2 
" style="fill:none;stroke:#b0b0b0;stroke-dasharray:2.96,1.28;stroke-dashoffset:0;stroke-opacity:0.4;stroke-width:0.8;"/>
     </g>
     <g id="line2d_10">
      <g>
       <use style="stroke:#000000;stroke-width:0.8;" x="479.037917" xlink:href="#mb2065219b6" y="242.44"/>
      </g>
     </g>
     <g id="text_5">
      <text style="font-family:DejaVu Sans;font-size:10px;font-stretch:normal;font-style:normal;font-weight:normal;text-anchor:middle;" transform="rotate(-0, 479.037917, 257.038437)" x="479.037917" y="257.038437">2.0</text>
     </g>
    </g>
    <g id="xtick_6">
     <g id="line2d_11">
      <path clip-path="url(#p32f497ee11)" d="M 587.852083 242.44 
L 587.852083 7.2 
" style="fill:none;stroke:#b0b0b0;stroke-dasharray:2.96,1.28;stroke-dashoffset:0;stroke-opacity:0.4;stroke-width:0.8;"/>
     </g>
     <g id="line2d_12">
      <g>
       <use style="stroke:#000000;stroke-width:0.8;" x="587.852083" xlink:href="#mb2065219b6" y="242.44"/>
      </g>
     </g>
     <g id="text_6">
      <text style="font-family:DejaVu Sans;font-size:10px;font-stretch:normal;font-style:normal;font-weight:normal;text-anchor:middle;" transform="rotate(-0, 587.852083, 257.038437)" x="587.852083" y="257.038437">2.5</text>
     </g>
    </g>
    <g id="xtick_7">
     <g id="line2d_13">
      <path clip-path="url(#p32f497ee11)" d="M 696.66625 242.44 
L 696.66625 7.2 
" style="fill:none;stroke:#b0b0b0;stroke-dasharray:2.96,1.28;stroke-dashoffset:0;stroke-opacity:0.4;stroke-width:0.8;"/>
     </g>
     <g id="line2d_14">
      <g>
       <use style="stroke:#000000;stroke-width:0.8;" x="696.66625" xlink:href="#mb2065219b6" y="242.44"/>
      </g>
     </g>
     <g id="text_7">
      <text style="font-family:DejaVu Sans;font-size:10px;font-stretch:normal;font-style:normal;font-weight:normal;text-anchor:middle;" transform="rotate(-0, 696.66625, 257.038437)" x="696.66625" y="257.038437">3.0</text>
     </g>
    </g>
    <g id="text_8">
     <text style="font-family:DejaVu Sans;font-size:10px;font-stretch:normal;font-style:normal;font-weight:normal;text-anchor:middle;" transform="rotate(-0, 370.22375, 270.716562)" x="370.22375" y="270.716562">x</text>
    </g>
   </g>
   <g id="matplotlib.axis_2">
    <g id="ytick_1">
     <g id="line2d_15">
      <path clip-path="url(#p32f497ee11)" d="M 43.78125 225.653017 
L 696.66625 225.653017 
" style="fill:none;stroke:#b0b0b0;stroke-dasharray:2.96,1.28;stroke-dashoffset:0;stroke-opacity:0.4;stroke-width:0.8;"/>
     </g>
     <g id="line2d_16">
      <defs>
       <path d="M 0 0 
L -3.5 0 
" id="m1992a622c4" style="stroke:#000000;stroke-width:0.8;"/>
      </defs>
      <g>
       <use style="stroke:#000000;stroke-width:0.8;" x="43.78125" xlink:href="#m1992a622c4" y="225.653017"/>
      </g>
     </g>
     <g id="text_9">
      <text style="font-family:DejaVu Sans;font-size:10px;font-stretch:normal;font-style:normal;font-weight:normal;text-anchor:end;" transform="rotate(-0, 36.78125, 229.452235)" x="36.78125" y="229.452235">1.5</text>
     </g>
    </g>
    <g id="ytick_2">
     <g id="line2d_17">
      <path clip-path="url(#p32f497ee11)" d="M 43.78125 195.181934 
L 696.66625 195.181934 
" style="fill:none;stroke:#b0b0b0;stroke-dasharray:2.96,1.28;stroke-dashoffset:0;stroke-opacity:0.4;stroke-width:0.8;"/>
     </g>
     <g id="line2d_18">
      <g>
       <use style="stroke:#000000;stroke-width:0.8;" x="43.78125" xlink:href="#m1992a622c4" y="195.181934"/>
      </g>
     </g>
     <g id="text_10">
      <text style="font-family:DejaVu Sans;font-size:10px;font-stretch:normal;font-style:normal;font-weight:normal;text-anchor:end;" transform="rotate(-0, 36.78125, 198.981153)" x="36.78125" y="198.981153">2.0</text>
     </g>
    </g>
    <g id="ytick_3">
     <g id="line2d_19">
      <path clip-path="url(#p32f497ee11)" d="M 43.78125 164.710851 
L 696.66625 164.710851 
" style="fill:none;stroke:#b0b0b0;stroke-dasharray:2.96,1.28;stroke-dashoffset:0;stroke-opacity:0.4;stroke-width:0.8;"/>
     </g>
     <g id="line2d_20">
      <g>
       <use style="stroke:#000000;stroke-width:0.8;" x="43.78125" xlink:href="#m1992a622c4" y="164.710851"/>
      </g>
     </g>
     <g id="text_11">
      <text style="font-family:DejaVu Sans;font-size:10px;font-stretch:normal;font-style:normal;font-weight:normal;text-anchor:end;" transform="rotate(-0, 36.78125, 168.51007)" x="36.78125" y="168.51007">2.5</text>
     </g>
    </g>
    <g id="ytick_4">
     <g id="line2d_21">
      <path clip-path="url(#p32f497ee11)" d="M 43.78125 134.239769 
L 696.66625 134.239769 
" style="fill:none;stroke:#b0b0b0;stroke-dasharray:2.96,1.28;stroke-dashoffset:0;stroke-opacity:0.4;stroke-width:0.8;"/>
     </g>
     <g id="line2d_22">
      <g>
       <use style="stroke:#000000;stroke-width:0.8;" x="43.78125" xlink:href="#m1992a622c4" y="134.239769"/>
      </g>
     </g>
     <g id="text_12">
      <text style="font-family:DejaVu Sans;font-size:10px;font-stretch:normal;font-style:normal;font-weight:normal;text-anchor:end;" transform="rotate(-0, 36.78125, 138.038987)" x="36.78125" y="138.038987">3.0</text>
     </g>
    </g>
    <g id="ytick_5">
     <g id="line2d_23">
      <path clip-path="url(#p32f497ee11)" d="M 43.78125 103.768686 
L 696.66625 103.768686 
" style="fill:none;stroke:#b0b0b0;stroke-dasharray:2.96,1.28;stroke-dashoffset:0;stroke-opacity:0.4;stroke-width:0.8;"/>
     </g>
     <g id="line2d_24">
      <g>
       <use style="stroke:#000000;stroke-width:0.8;" x="43.78125" xlink:href="#m1992a622c4" y="103.768686"/>
      </g>
     </g>
     <g id="text_13">
      <text style="font-family:DejaVu Sans;font-size:10px;font-stretch:normal;font-style:normal;font-weight:normal;text-anchor:end;" transform="rotate(-0, 36.78125, 107.567905)" x="36.78125" y="107.567905">3.5</text>
     </g>
    </g>
    <g id="ytick_6">
     <g id="line2d_25">
      <path clip-path="url(#p32f497ee11)" d="M 43.78125 73.297603 
L 696.66625 73.297603 
" style="fill:none;stroke:#b0b0b0;stroke-dasharray:2.96,1.28;stroke-dashoffset:0;stroke-opacity:0.4;stroke-width:0.8;"/>
     </g>
     <g id="line2d_26">
      <g>
       <use style="stroke:#000000;stroke-width:0.8;" x="43.78125" xlink:href="#m1992a622c4" y="73.297603"/>
      </g>
     </g>
     <g id="text_14">
      <text style="font-family:DejaVu Sans;font-size:10px;font-stretch:normal;font-style:normal;font-weight:normal;text-anchor:end;" transform="rotate(-0, 36.78125, 77.096822)" x="36.78125" y="77.096822">4.0</text>
     </g>
    </g>
    <g id="ytick_7">
     <g id="line2d_27">
      <path clip-path="url(#p32f497ee11)" d="M 43.78125 42.826521 
L 696.66625 42.826521 
" style="fill:none;stroke:#b0b0b0;stroke-dasharray:2.96,1.28;stroke-dashoffset:0;stroke-opacity:0.4;stroke-width:0.8;"/>
     </g>
     <g id="line2d_28">
      <g>
       <use style="stroke:#000000;stroke-width:0.8;" x="43.78125" xlink:href="#m1992a622c4" y="42.826521"/>
      </g>
     </g>
     <g id="text_15">
      <text style="font-family:DejaVu Sans;font-size:10px;font-stretch:normal;font-style:normal;font-weight:normal;text-anchor:end;" transform="rotate(-0, 36.78125, 46.625739)" x="36.78125" y="46.625739">4.5</text>
     </g>
    </g>
    <g id="ytick_8">
     <g id="line2d_29">
      <path clip-path="url(#p32f497ee11)" d="M 43.78125 12.355438 
L 696.66625 12.355438 
" style="fill:none;stroke:#b0b0b0;stroke-dasharray:2.96,1.28;stroke-dashoffset:0;stroke-opacity:0.4;stroke-width:0.8;"/>
     </g>
     <g id="line2d_30">
      <g>
       <use style="stroke:#000000;stroke-width:0.8;" x="43.78125" xlink:href="#m1992a622c4" y="12.355438"/>
      </g>
     </g>
     <g id="text_16">
      <text style="font-family:DejaVu Sans;font-size:10px;font-stretch:normal;font-style:normal;font-weight:normal;text-anchor:end;" transform="rotate(-0, 36.78125, 16.154657)" x="36.78125" y="16.154657">5.0</text>
     </g>
    </g>
    <g id="text_17">
     <!-- $\rho$ -->
     <g transform="translate(14.778125 128.02)rotate(-90)">
      <text>
       <tspan style="font-family:DejaVu Sans;font-size:10px;font-style:oblique;font-weight:oblique;" x="0" y="-0.40625">ρ</tspan>
      </text>
     </g>
    </g>
   </g>
   <g id="line2d_31">
    <path clip-path="url(#p32f497ee11)" d="M 45.141427 231.747273 
L 132.19276 231.714243 
L 134.913115 200.844396 
L 137.633469 37.223535 
L 140.353823 20.520632 
L 143.074177 25.06262 
L 145.794531 28.600905 
L 148.514885 32.472806 
L 151.23524 36.649828 
L 153.955594 41.204131 
L 156.675948 46.180875 
L 159.396302 51.497801 
L 164.83701 62.902359 
L 167.557365 68.944622 
L 172.998073 81.793606 
L 181.159135 101.145741 
L 189.320198 120.156782 
L 194.760906 132.439215 
L 200.201615 144.155662 
L 205.642323 155.155651 
L 211.083031 165.360801 
L 216.52374 174.747408 
L 221.964448 183.326082 
L 227.405156 191.129183 
L 232.845865 198.199344 
L 235.566219 201.469686 
L 238.286573 204.560202 
L 243.727281 210.254417 
L 254.608698 221.007126 
L 257.329052 223.029671 
L 260.049406 222.574599 
L 262.76976 216.70883 
L 265.490115 202.74578 
L 268.210469 188.017842 
L 270.930823 180.724527 
L 273.651177 177.685269 
L 276.371531 178.646437 
L 279.091885 180.127606 
L 281.81224 181.46391 
L 284.532594 182.397807 
L 295.41401 185.025517 
L 303.575073 187.448706 
L 317.176844 191.21791 
L 330.778615 195.150989 
L 347.10074 199.906712 
L 368.863573 206.438474 
L 374.304281 208.410397 
L 377.024635 208.882348 
L 379.74499 208.28616 
L 382.465344 201.028462 
L 385.185698 175.43339 
L 387.906052 141.061173 
L 390.626406 124.04579 
L 393.34676 117.645111 
L 396.067115 116.489448 
L 398.787469 114.534482 
L 401.507823 113.918039 
L 404.228177 115.565622 
L 406.948531 118.350349 
L 409.668885 119.638578 
L 412.38924 119.365864 
L 415.109594 119.289041 
L 417.829948 119.952246 
L 420.550302 121.60957 
L 423.270656 123.066909 
L 425.99101 123.837892 
L 431.431719 124.514546 
L 434.152073 125.310881 
L 439.592781 127.840623 
L 442.313135 128.812009 
L 450.474198 130.933893 
L 455.914906 133.050755 
L 461.355615 135.061525 
L 469.516677 137.688902 
L 480.398094 141.472507 
L 488.559156 144.175067 
L 507.601635 151.110564 
L 521.203406 156.156437 
L 532.084823 159.822378 
L 559.288365 168.521 
L 572.890135 172.560132 
L 586.491906 176.614533 
L 602.814031 181.522941 
L 613.695448 184.506548 
L 632.737927 189.463253 
L 659.941469 196.508715 
L 689.865365 204.262171 
L 692.585719 204.887523 
L 695.306073 205.949075 
L 695.306073 205.949075 
" style="fill:none;stroke:#1f77b4;stroke-linecap:square;stroke-width:2.5;"/>
   </g>
   <g id="line2d_32">
    <path clip-path="url(#p32f497ee11)" d="M 45.141427 231.747233 
L 132.19276 231.747233 
L 132.19276 231.740409 
L 134.913112 228.344184 
L 134.913112 193.07271 
L 137.63347 39.429693 
L 137.63347 101.153924 
L 140.353822 23.833297 
L 140.353822 17.892727 
L 143.07418 24.475005 
L 143.07418 22.89523 
L 145.794531 27.511644 
L 145.794531 27.019054 
L 151.235241 36.158559 
L 153.955599 41.003874 
L 153.955599 41.245956 
L 156.675938 46.297664 
L 156.675938 46.633467 
L 159.396302 52.242227 
L 159.396302 51.816329 
L 162.116667 57.505786 
L 162.116667 58.022128 
L 164.837005 63.299592 
L 164.837005 63.883269 
L 167.55737 69.146023 
L 167.55737 69.860334 
L 170.277708 75.077672 
L 170.277708 76.00356 
L 172.998073 82.213467 
L 172.998073 81.095277 
L 175.718437 87.163422 
L 175.718437 88.520252 
L 178.438776 94.977403 
L 178.438776 93.26653 
L 181.159141 101.322146 
L 181.159141 99.422077 
L 183.879479 107.692832 
L 183.879479 105.658445 
L 186.599844 114.203315 
L 186.599844 111.805474 
L 189.320208 117.772988 
L 189.320208 120.348778 
L 192.040547 123.812732 
L 192.040547 126.358143 
L 194.760911 129.911587 
L 194.760911 132.608195 
L 197.48125 135.484051 
L 197.48125 138.632265 
L 200.201615 141.00088 
L 200.201615 144.034934 
L 202.921979 146.622342 
L 202.921979 149.501703 
L 205.642318 152.102794 
L 205.642318 155.268953 
L 208.362682 156.825071 
L 208.362682 160.315547 
L 211.083021 161.617372 
L 211.083021 164.967934 
L 213.803385 166.565987 
L 213.803385 169.658061 
L 216.52375 171.357202 
L 216.52375 174.747023 
L 219.244089 175.319661 
L 219.244089 178.921871 
L 221.964453 179.291212 
L 221.964453 182.72948 
L 224.684792 183.535254 
L 224.684792 186.752387 
L 227.405156 187.466703 
L 227.405156 191.032945 
L 230.125521 190.581638 
L 230.125521 194.104166 
L 232.845859 193.787077 
L 232.845859 197.110924 
L 235.566224 197.581283 
L 235.566224 200.714144 
L 238.286563 204.200256 
L 238.286563 200.846967 
L 241.006927 203.572154 
L 241.006927 206.829426 
L 243.727292 209.487834 
L 243.727292 206.258176 
L 246.44763 212.467325 
L 246.44763 209.54952 
L 249.167995 215.202432 
L 249.167995 212.195624 
L 251.888333 217.526008 
L 251.888333 214.743733 
L 254.608698 216.987836 
L 254.608698 220.099211 
L 257.329062 217.51766 
L 257.329062 222.422503 
L 260.049401 224.041291 
L 260.049401 214.052127 
L 262.769766 201.553566 
L 262.769766 222.208779 
L 265.490104 213.217498 
L 265.490104 186.877806 
L 268.210469 197.993288 
L 268.210469 176.123447 
L 270.930833 169.423822 
L 270.930833 181.501004 
L 273.651172 175.392805 
L 273.651172 169.33215 
L 276.371536 171.468813 
L 276.371536 176.584851 
L 279.091875 179.928305 
L 279.091875 174.622583 
L 281.81224 183.013096 
L 281.81224 177.69935 
L 284.532604 179.141317 
L 284.532604 183.826306 
L 287.252943 179.334661 
L 287.252943 183.684712 
L 289.973307 183.18775 
L 289.973307 178.888712 
L 292.693646 183.189751 
L 292.693646 178.997945 
L 295.41401 179.499656 
L 295.41401 183.648371 
L 298.134375 180.597589 
L 298.134375 184.906434 
L 300.854714 186.005294 
L 300.854714 182.210447 
L 303.575078 187.170397 
L 303.575078 183.648568 
L 306.295417 184.992773 
L 306.295417 188.367305 
L 309.015781 189.414993 
L 309.015781 185.723457 
L 311.736146 190.632118 
L 311.736146 186.448727 
L 314.456484 191.403368 
L 314.456484 187.245458 
L 317.176849 188.208938 
L 317.176849 191.862469 
L 319.897188 192.262831 
L 319.897188 189.12185 
L 322.617552 189.65822 
L 322.617552 192.545426 
L 325.337917 193.180196 
L 325.337917 190.420708 
L 328.058255 193.878187 
L 328.058255 191.134375 
L 330.77862 194.802975 
L 330.77862 191.776918 
L 333.498958 196.115894 
L 333.498958 192.699867 
L 336.219323 197.586182 
L 336.219323 194.064771 
L 338.939687 198.375586 
L 338.939687 195.26915 
L 341.660026 198.748464 
L 341.660026 195.891071 
L 344.380391 196.471904 
L 344.380391 199.196707 
L 347.100729 197.083913 
L 347.100729 199.748262 
L 349.821094 197.723625 
L 349.821094 200.335703 
L 352.541458 198.536562 
L 352.541458 201.023524 
L 355.261797 199.779186 
L 355.261797 201.953895 
L 357.982161 203.12973 
L 357.982161 201.229486 
L 360.7025 202.189577 
L 360.7025 204.238276 
L 363.422865 202.737099 
L 363.422865 205.040685 
L 366.143229 205.604705 
L 366.143229 203.204871 
L 368.863568 203.678159 
L 368.863568 206.122115 
L 371.583932 204.178111 
L 371.583932 206.656936 
L 374.304271 204.794545 
L 374.304271 207.379962 
L 377.024635 208.279569 
L 377.024635 205.71398 
L 379.745 207.228592 
L 379.745 209.520096 
L 382.465339 208.60838 
L 382.465339 210.938309 
L 385.185703 209.626939 
L 385.185703 211.118562 
L 387.906042 210.117443 
L 387.906042 210.26107 
L 390.626406 200.024901 
L 390.626406 209.953527 
L 393.346771 170.003825 
L 393.346771 206.439278 
L 396.067109 133.521713 
L 396.067109 186.52829 
L 398.787474 118.26273 
L 398.787474 153.940933 
L 401.507813 110.681916 
L 401.507813 124.536198 
L 404.228177 113.239431 
L 404.228177 109.988871 
L 406.948542 111.836972 
L 406.948542 111.039197 
L 409.66888 113.340245 
L 409.66888 113.325417 
L 412.389245 115.063188 
L 415.109583 116.14105 
L 415.109583 115.502758 
L 417.829948 116.074502 
L 417.829948 117.112866 
L 420.550312 118.189981 
L 420.550312 116.723614 
L 423.270651 119.011416 
L 423.270651 117.291345 
L 425.991016 119.358738 
L 425.991016 118.017944 
L 428.711354 119.884097 
L 428.711354 118.912606 
L 431.431719 119.822272 
L 431.431719 120.707078 
L 434.152083 121.670189 
L 434.152083 120.710964 
L 436.872422 121.785935 
L 436.872422 123.106138 
L 439.592786 125.253509 
L 439.592786 123.349628 
L 442.313125 125.372297 
L 442.313125 127.331153 
L 445.03349 128.515856 
L 445.03349 127.262738 
L 447.753854 129.266031 
L 447.753854 128.623984 
L 450.474193 129.875922 
L 450.474193 129.449107 
L 453.194557 130.010565 
L 453.194557 130.242523 
L 455.914896 130.712497 
L 455.914896 130.337381 
L 458.63526 130.665137 
L 458.63526 131.465747 
L 461.355625 131.291086 
L 461.355625 132.63273 
L 464.075964 134.380308 
L 464.075964 132.290909 
L 466.796328 136.209959 
L 466.796328 134.008314 
L 469.516667 137.322755 
L 469.516667 136.158712 
L 472.237031 137.779285 
L 472.237031 138.00476 
L 477.677734 139.273667 
L 477.677734 139.006937 
L 480.398073 139.618019 
L 480.398073 139.753395 
L 483.118489 140.204488 
L 483.118489 140.534719 
L 485.838802 140.812192 
L 485.838802 141.923835 
L 488.559115 141.675546 
L 488.559115 143.629047 
L 491.279531 145.072955 
L 491.279531 142.953347 
L 493.999844 145.924766 
L 493.999844 144.562664 
L 496.72026 146.549451 
L 496.72026 146.039726 
L 499.440573 147.205049 
L 499.440573 147.020655 
L 504.881302 148.657963 
L 504.881302 148.606533 
L 507.601615 149.623067 
L 507.601615 149.584266 
L 513.042344 151.924453 
L 513.042344 151.877167 
L 515.762656 153.098569 
L 518.483073 154.344438 
L 518.483073 154.061746 
L 521.203385 155.337322 
L 521.203385 155.087549 
L 523.923802 155.936794 
L 523.923802 155.736015 
L 526.644115 156.248815 
L 526.644115 156.395591 
L 529.364427 156.914915 
L 529.364427 156.784501 
L 532.084844 157.632437 
L 532.084844 157.408491 
L 534.805156 158.245024 
L 534.805156 158.661599 
L 537.525573 160.105523 
L 537.525573 159.561565 
L 540.245885 161.601236 
L 540.245885 161.319241 
L 542.966198 163.010544 
L 545.686615 164.273888 
L 545.686615 163.955736 
L 548.406927 165.327525 
L 548.406927 164.547249 
L 551.127344 165.045164 
L 551.127344 165.986395 
L 553.847656 166.451266 
L 553.847656 165.58798 
L 556.567969 166.32441 
L 556.567969 166.822451 
L 559.288385 167.521912 
L 559.288385 167.373969 
L 562.008698 168.385438 
L 562.008698 169.27648 
L 564.729114 169.966161 
L 564.729114 171.177364 
L 567.449427 172.457758 
L 567.449427 171.904567 
L 570.16974 173.368363 
L 570.16974 173.35302 
L 572.890156 174.435109 
L 572.890156 173.933407 
L 575.610469 175.301788 
L 575.610469 174.383132 
L 578.330885 174.797 
L 578.330885 175.955546 
L 581.051198 176.497237 
L 581.051198 175.250144 
L 583.771511 176.861985 
L 583.771511 175.84459 
L 586.491927 176.993909 
L 586.491927 176.670164 
L 589.21224 177.58164 
L 589.21224 177.133509 
L 591.932656 178.332677 
L 591.932656 177.439033 
L 594.652969 177.963473 
L 594.652969 178.992231 
L 597.373281 178.766726 
L 597.373281 179.561319 
L 600.093698 179.858548 
L 600.093698 180.133015 
L 602.81401 181.072287 
L 602.81401 180.776296 
L 605.534427 181.459095 
L 605.534427 182.236755 
L 608.25474 183.395253 
L 608.25474 182.182195 
L 610.975052 183.06427 
L 610.975052 184.56744 
L 613.695469 184.246674 
L 613.695469 185.586346 
L 616.415781 185.578903 
L 616.415781 186.446758 
L 619.136198 186.821066 
L 619.136198 187.073471 
L 621.85651 187.438746 
L 621.85651 187.974084 
L 624.576823 187.757981 
L 624.576823 188.711524 
L 627.29724 188.16368 
L 627.29724 189.126339 
L 630.017552 188.641683 
L 630.017552 189.30275 
L 632.737969 189.258223 
L 635.458281 189.508366 
L 635.458281 190.037523 
L 638.178594 190.820767 
L 638.178594 190.046313 
L 640.89901 190.780926 
L 640.89901 191.787538 
L 643.619323 192.964068 
L 643.619323 191.730099 
L 646.339739 194.149518 
L 646.339739 193.03036 
L 649.060052 194.65276 
L 649.060052 195.214397 
L 651.780365 196.106695 
L 651.780365 196.318949 
L 654.500781 197.110288 
L 654.500781 197.088871 
L 657.221094 197.615807 
L 659.94151 197.712094 
L 659.94151 197.945813 
L 662.661823 198.037432 
L 662.661823 197.505367 
L 665.382136 197.155132 
L 665.382136 197.284237 
L 668.102552 197.225359 
L 668.102552 196.685056 
L 670.822865 197.522983 
L 670.822865 196.985015 
L 673.543281 197.974333 
L 673.543281 197.509425 
L 676.263594 198.422 
L 676.263594 198.879287 
L 678.983906 200.719804 
L 678.983906 200.154992 
L 681.704323 202.52383 
L 681.704323 202.982633 
L 684.424635 204.219189 
L 684.424635 204.542048 
L 687.145052 205.315527 
L 687.145052 205.035846 
L 689.865365 205.53008 
L 689.865365 205.727247 
L 692.585677 205.792711 
L 692.585677 205.904207 
L 695.306094 205.843804 
L 695.306094 205.548259 
L 695.306094 205.548259 
" style="fill:none;stroke:#ff7f0e;stroke-dasharray:9.25,4;stroke-dashoffset:0;stroke-width:2.5;"/>
   </g>
   <g id="patch_3">
    <path d="M 43.78125 242.44 
L 43.78125 7.2 
" style="fill:none;stroke:#000000;stroke-linecap:square;stroke-linejoin:miter;stroke-width:0.8;"/>
   </g>
   <g id="patch_4">
    <path d="M 696.66625 242.44 
L 696.66625 7.2 
" style="fill:none;stroke:#000000;stroke-linecap:square;stroke-linejoin:miter;stroke-width:0.8;"/>
   </g>
   <g id="patch_5">
    <path d="M 43.78125 242.44 
L 696.66625 242.44 
" style="fill:none;stroke:#000000;stroke-linecap:square;stroke-linejoin:miter;stroke-width:0.8;"/>
   </g>
   <g id="patch_6">
    <path d="M 43.78125 7.2 
L 696.66625 7.2 
" style="fill:none;stroke:#000000;stroke-linecap:square;stroke-linejoin:miter;stroke-width:0.8;"/>
   </g>
   <g id="legend_1">
    <g id="patch_7">
     <path d="M 602.038125 44.55625 
L 689.66625 44.55625 
Q 691.66625 44.55625 691.66625 42.55625 
L 691.66625 14.2 
Q 691.66625 12.2 689.66625 12.2 
L 602.038125 12.2 
Q 600.038125 12.2 600.038125 14.2 
L 600.038125 42.55625 
Q 600.038125 44.55625 602.038125 44.55625 
z
" style="fill:none;opacity:0.8;stroke:#cccccc;stroke-linejoin:miter;"/>
    </g>
    <g id="line2d_33">
     <path d="M 604.038125 20.298438 
L 624.038125 20.298438 
" style="fill:none;stroke:#1f77b4;stroke-linecap:square;stroke-width:2.5;"/>
    </g>
    <g id="line2d_34"/>
    <g id="text_18">
     <text style="font-family:DejaVu Sans;font-size:10px;font-stretch:normal;font-style:normal;font-weight:normal;text-anchor:start;" transform="rotate(-0, 632.038125, 23.798438)" x="632.038125" y="23.798438">MOSE</text>
    </g>
    <g id="line2d_35">
     <path d="M 604.038125 34.976563 
L 624.038125 34.976563 
" style="fill:none;stroke:#ff7f0e;stroke-dasharray:9.25,4;stroke-dashoffset:0;stroke-width:2.5;"/>
    </g>
    <g id="line2d_36"/>
    <g id="text_19">
     <text style="font-family:DejaVu Sans;font-size:10px;font-stretch:normal;font-style:normal;font-weight:normal;text-anchor:start;" transform="rotate(-0, 632.038125, 38.476563)" x="632.038125" y="38.476563">OpenFOAM</text>
    </g>
   </g>
  </g>
 </g>
 <defs>
  <clipPath id="p32f497ee11">
   <rect height="235.24" width="652.885" x="43.78125" y="7.2"/>
  </clipPath>
 </defs>
</svg>
