<?xml version="1.0" encoding="utf-8" standalone="no"?>
<!DOCTYPE svg PUBLIC "-//W3C//DTD SVG 1.1//EN"
  "http://www.w3.org/Graphics/SVG/1.1/DTD/svg11.dtd">
<svg xmlns:xlink="http://www.w3.org/1999/xlink" width="534.509895pt" height="294.39625pt" viewBox="0 0 534.509895 294.39625" xmlns="http://www.w3.org/2000/svg" version="1.1">
 <metadata>
  <rdf:RDF xmlns:dc="http://purl.org/dc/elements/1.1/" xmlns:cc="http://creativecommons.org/ns#" xmlns:rdf="http://www.w3.org/1999/02/22-rdf-syntax-ns#">
   <cc:Work>
    <dc:type rdf:resource="http://purl.org/dc/dcmitype/StillImage"/>
    <dc:date>2026-04-29T09:20:53.445899</dc:date>
    <dc:format>image/svg+xml</dc:format>
    <dc:creator>
     <cc:Agent>
      <dc:title>Matplotlib v3.10.7, https://matplotlib.org/</dc:title>
     </cc:Agent>
    </dc:creator>
   </cc:Work>
  </rdf:RDF>
 </metadata>
 <defs>
  <style type="text/css">*{stroke-linejoin: round; stroke-linecap: butt}</style>
 </defs>
 <g id="figure_1">
  <g id="patch_1">
   <path d="M 0 294.39625 
L 534.509895 294.39625 
L 534.509895 0 
L 0 0 
L 0 294.39625 
z
" style="fill: none"/>
  </g>
  <g id="axes_1">
   <g id="patch_2">
    <path d="M 43.78125 256.84 
L 434.201645 256.84 
L 434.201645 7.2 
L 43.78125 7.2 
L 43.78125 256.84 
z
" style="fill: none"/>
   </g>
   <g id="QuadContourSet_1">
    <path d="M 43.852142 252.537875 
L 43.85111 248.326442 
L 43.849625 244.207919 
L 43.847736 240.184316 
L 43.845495 236.257437 
L 43.842958 232.428871 
L 43.840176 228.699992 
L 43.837204 225.071961 
L 43.834092 221.545728 
L 43.830889 218.122036 
L 43.827638 214.801424 
L 43.824382 211.584238 
L 43.821155 208.470629 
L 43.817992 205.460564 
L 43.814919 202.553828 
L 43.811959 199.750032 
L 43.809131 197.048615 
L 43.806449 194.448849 
L 43.803923 191.949841 
L 43.80156 189.550535 
L 43.799365 187.249718 
L 43.797336 185.046013 
L 43.795472 182.937889 
L 43.79377 180.923656 
L 43.792224 179.001467 
L 43.790826 177.169317 
L 43.789569 175.425048 
L 43.788444 173.76634 
L 43.787441 172.190724 
L 43.786553 170.695573 
L 43.785768 169.278108 
L 43.785079 167.935401 
L 43.784476 166.664375 
L 43.78395 165.461808 
L 43.783494 164.324339 
L 43.7831 163.24847 
L 43.782761 162.230571 
L 43.782471 161.26689 
L 43.782225 160.353553 
L 43.782016 159.486578 
L 43.78184 158.661875 
L 43.781693 157.875263 
L 43.781572 157.12247 
L 43.781474 156.399149 
L 43.781396 155.700883 
L 43.781336 155.023198 
L 43.781292 154.36157 
L 43.781264 153.711438 
L 43.78125 153.068216 
L 49.288732 153.068096 
L 54.793089 153.067851 
L 60.292127 153.067475 
L 65.783477 153.066954 
L 71.264519 153.066272 
L 76.732286 153.065405 
L 82.183349 153.064323 
L 87.613687 153.062986 
L 93.018502 153.061344 
L 98.391995 153.059329 
L 103.72705 153.056854 
L 109.014805 153.053802 
L 114.244025 153.050011 
L 119.400148 153.045251 
L 124.463762 153.039176 
L 129.407956 153.031237 
L 134.193212 153.020461 
L 138.755766 153.004816 
L 142.971533 152.978261 
L 144.760951 152.860726 
L 145.253588 153.235167 
L 145.870107 153.589846 
L 146.705033 153.840845 
L 146.794216 153.884738 
L 147.245634 154.186198 
L 147.65927 154.535821 
L 148.083601 154.917981 
L 148.570653 155.317812 
L 149.174607 155.721476 
L 149.943617 156.118724 
L 150.932649 156.49832 
L 151.902443 156.78692 
L 152.055079 156.884976 
L 152.809757 157.416523 
L 153.677696 157.977051 
L 154.701015 158.557754 
L 155.928188 159.149266 
L 157.43572 159.73388 
L 158.284407 160.029728 
L 158.919029 160.409404 
L 160.265745 161.216975 
L 161.833092 162.054356 
L 163.724259 162.895154 
L 165.321932 163.491006 
L 165.845633 163.775601 
L 167.735001 164.848778 
L 169.952764 165.947149 
L 172.687253 167.020743 
L 172.786198 167.060603 
L 175.091098 168.340586 
L 177.869781 169.699306 
L 180.610021 170.822674 
L 181.123546 171.076893 
L 184.177016 172.686242 
L 187.824672 174.304644 
L 188.709732 174.689814 
L 191.479991 176.112374 
L 195.558665 178.007231 
L 197.052284 178.673793 
L 199.838921 180.061821 
L 204.546206 182.234961 
L 205.599574 182.718758 
L 209.412937 184.608975 
L 214.34089 186.842757 
L 214.88823 187.093985 
L 220.462592 189.831376 
L 223.285326 191.160547 
L 226.605771 192.733824 
L 232.383851 195.428965 
L 233.288821 195.839297 
L 240.332409 199.212837 
L 241.669862 199.867753 
L 247.915912 202.849954 
L 251.131891 204.4214 
L 256.159716 206.769351 
L 260.765778 209.019611 
L 265.092498 211.012667 
L 270.581499 213.700827 
L 274.780458 215.622333 
L 280.586831 218.481567 
L 285.319513 220.646273 
L 290.789886 223.363439 
L 296.84517 226.140429 
L 301.199684 228.324126 
L 309.510176 232.175559 
L 311.832456 233.369999 
L 322.70571 238.609144 
L 323.240976 238.854391 
L 333.808692 244.29209 
L 338.026088 246.27657 
L 345.134152 248.897383 
L 356.74857 252.68253 
L 362.409713 254.443647 
L 356.792759 254.512307 
L 345.272485 254.652501 
L 334.110167 254.787658 
L 323.292858 254.917891 
L 312.807892 255.043301 
L 302.64284 255.163972 
L 292.785479 255.279976 
L 283.223757 255.391374 
L 273.94576 255.498212 
L 264.93968 255.600525 
L 256.193786 255.698337 
L 247.696396 255.791663 
L 239.435854 255.880508 
L 231.400511 255.964872 
L 223.578713 256.044753 
L 215.958794 256.120146 
L 208.529084 256.191051 
L 201.277919 256.257475 
L 194.193666 256.319438 
L 187.264765 256.376975 
L 180.479774 256.430143 
L 173.827427 256.479022 
L 167.296701 256.523719 
L 160.876884 256.564367 
L 154.557651 256.601128 
L 148.329127 256.634187 
L 142.181948 256.663752 
L 136.107315 256.690046 
L 130.097025 256.713305 
L 124.143501 256.73377 
L 118.23979 256.751682 
L 112.379565 256.767278 
L 106.557101 256.780785 
L 100.76725 256.792416 
L 95.005396 256.80237 
L 89.267419 256.810826 
L 83.549644 256.817948 
L 77.84879 256.823877 
L 72.161923 256.828736 
L 66.486404 256.83263 
L 60.819841 256.835645 
L 55.160041 256.837847 
L 49.504963 256.839288 
L 43.852676 256.84 
z
" clip-path="url(#p2c11c5be06)" style="fill: #38276d"/>
    <path d="M 145.870107 153.589846 
L 145.253588 153.235167 
L 144.760951 152.860726 
L 146.429758 152.751113 
L 146.506887 152.718834 
L 147.159922 152.86307 
L 147.614221 153.116146 
L 148.080327 153.393463 
L 148.553155 153.69951 
L 149.068896 154.023629 
L 149.673494 154.353207 
L 150.440732 154.667554 
L 151.129107 154.873187 
L 151.347449 154.960004 
L 152.116234 155.304652 
L 152.935264 155.691917 
L 153.862553 156.10162 
L 154.964204 156.513577 
L 156.301373 156.912979 
L 157.082757 157.128761 
L 157.669675 157.365661 
L 158.95345 157.917593 
L 160.418225 158.494294 
L 162.112384 159.086921 
L 163.754642 159.602338 
L 164.024113 159.7053 
L 165.809121 160.460404 
L 167.816511 161.25693 
L 170.119698 162.078804 
L 170.973111 162.380458 
L 172.50762 162.991448 
L 175.017839 164.000192 
L 177.88258 165.0435 
L 178.574157 165.299729 
L 180.846856 166.198127 
L 184.046245 167.445752 
L 186.496638 168.356386 
L 187.587457 168.759675 
L 191.254932 170.214524 
L 194.692103 171.510091 
L 195.341154 171.744222 
L 199.585931 173.427288 
L 203.145514 174.803396 
L 204.267648 175.211147 
L 209.201611 177.155328 
L 211.830071 178.207401 
L 214.569499 179.232873 
L 220.333419 181.4791 
L 220.718709 181.640023 
L 226.498087 183.902927 
L 229.831033 185.261278 
L 233.180085 186.512862 
L 239.134593 188.888198 
L 240.378749 189.337749 
L 248.137059 192.397808 
L 248.642819 192.613604 
L 256.545704 195.710162 
L 258.357688 196.477118 
L 265.675415 199.309083 
L 268.27709 200.406463 
L 275.606746 203.230806 
L 278.408461 204.414003 
L 286.44186 207.517783 
L 288.760022 208.502575 
L 298.301922 212.221719 
L 299.34192 212.667967 
L 310.15961 216.948 
L 311.390105 217.397293 
L 321.220404 221.374672 
L 325.8643 223.127279 
L 332.550862 225.946314 
L 341.61407 229.537574 
L 344.167537 230.652839 
L 356.058916 235.497267 
L 359.21504 236.707278 
L 368.238483 240.558147 
L 378.500975 244.804512 
L 380.748493 245.505495 
L 393.520573 249.347957 
L 406.711563 253.386691 
L 408.559357 253.875611 
L 406.724106 253.89837 
L 393.635698 254.060148 
L 380.960558 254.216282 
L 368.684246 254.366949 
L 362.409713 254.443647 
L 356.74857 252.68253 
L 345.134152 248.897383 
L 338.026088 246.27657 
L 333.808692 244.29209 
L 323.240976 238.854391 
L 322.70571 238.609144 
L 311.832456 233.369999 
L 309.510176 232.175559 
L 301.199684 228.324126 
L 296.84517 226.140429 
L 290.789886 223.363439 
L 285.319513 220.646273 
L 280.586831 218.481567 
L 274.780458 215.622333 
L 270.581499 213.700827 
L 265.092498 211.012667 
L 260.765778 209.019611 
L 256.159716 206.769351 
L 251.131891 204.4214 
L 247.915912 202.849954 
L 241.669862 199.867753 
L 240.332409 199.212837 
L 233.288821 195.839297 
L 232.383851 195.428965 
L 226.605771 192.733824 
L 223.285326 191.160547 
L 220.462592 189.831376 
L 214.88823 187.093985 
L 214.34089 186.842757 
L 209.412937 184.608975 
L 205.599574 182.718758 
L 204.546206 182.234961 
L 199.838921 180.061821 
L 197.052284 178.673793 
L 195.558665 178.007231 
L 191.479991 176.112374 
L 188.709732 174.689814 
L 187.824672 174.304644 
L 184.177016 172.686242 
L 181.123546 171.076893 
L 180.610021 170.822674 
L 177.869781 169.699306 
L 175.091098 168.340586 
L 172.786198 167.060603 
L 172.687253 167.020743 
L 169.952764 165.947149 
L 167.735001 164.848778 
L 165.845633 163.775601 
L 165.321932 163.491006 
L 163.724259 162.895154 
L 161.833092 162.054356 
L 160.265745 161.216975 
L 158.919029 160.409404 
L 158.284407 160.029728 
L 157.43572 159.73388 
L 155.928188 159.149266 
L 154.701015 158.557754 
L 153.677696 157.977051 
L 152.809757 157.416523 
L 152.055079 156.884976 
L 151.902443 156.78692 
L 150.932649 156.49832 
L 149.943617 156.118724 
L 149.174607 155.721476 
L 148.570653 155.317812 
L 148.083601 154.917981 
L 147.65927 154.535821 
L 147.245634 154.186198 
L 146.794216 153.884738 
L 146.705033 153.840845 
z
" clip-path="url(#p2c11c5be06)" style="fill: #4451bf"/>
    <path d="M 150.440732 154.667554 
L 149.673494 154.353207 
L 149.068896 154.023629 
L 148.553155 153.69951 
L 148.080327 153.393463 
L 147.614221 153.116146 
L 147.159922 152.86307 
L 146.506887 152.718834 
L 147.651197 152.239932 
L 148.5997 152.280089 
L 148.957953 152.588308 
L 149.366438 152.902188 
L 149.860676 153.212822 
L 150.478522 153.511438 
L 150.529397 153.5321 
L 151.125922 153.772822 
L 151.856748 154.03877 
L 152.655055 154.329942 
L 153.529748 154.64788 
L 154.502503 154.988955 
L 155.670028 155.318265 
L 156.338683 155.479376 
L 156.962432 155.644978 
L 158.22525 156.041773 
L 159.613928 156.474999 
L 161.218232 156.91406 
L 162.736461 157.28354 
L 163.038218 157.362483 
L 164.795845 157.913837 
L 166.752676 158.501931 
L 168.955771 159.119259 
L 169.690419 159.339889 
L 171.250104 159.810441 
L 173.690796 160.575994 
L 176.38834 161.396832 
L 177.090903 161.623443 
L 179.26233 162.28424 
L 182.342214 163.259443 
L 184.842173 164.051894 
L 185.720202 164.299796 
L 189.305489 165.432907 
L 192.886439 166.567147 
L 193.215451 166.657374 
L 197.40018 167.972947 
L 201.207233 169.203262 
L 201.927937 169.403845 
L 206.793909 170.942675 
L 209.782234 171.945708 
L 212.055434 172.607582 
L 217.695679 174.42041 
L 218.587684 174.735232 
L 223.826846 176.360407 
L 227.63004 177.649313 
L 230.42991 178.47277 
L 236.890037 180.588847 
L 237.540831 180.77306 
L 245.275919 183.255794 
L 246.378116 183.648373 
L 253.690459 185.949589 
L 256.089651 186.791548 
L 262.835699 188.888012 
L 266.026932 189.999109 
L 272.80534 192.099337 
L 276.196003 193.278492 
L 283.708706 195.618778 
L 286.604084 196.630878 
L 295.669772 199.490737 
L 297.260379 200.052908 
L 308.173639 203.560052 
L 308.869011 203.763175 
L 319.344409 207.19909 
L 323.614051 208.483811 
L 330.794205 210.90414 
L 339.923578 213.772164 
L 342.545854 214.695876 
L 354.598319 218.666328 
L 358.047147 219.727699 
L 366.959396 222.801139 
L 378.180411 226.485825 
L 379.672545 227.024672 
L 392.70147 231.514208 
L 400.35655 234.216866 
L 406.121996 236.521939 
L 419.887954 241.32236 
L 422.978949 243.165582 
L 434.064394 247.995685 
L 434.201645 253.557001 
L 420.240707 253.730752 
L 408.559357 253.875611 
L 406.711563 253.386691 
L 393.520573 249.347957 
L 380.748493 245.505495 
L 378.500975 244.804512 
L 368.238483 240.558147 
L 359.21504 236.707278 
L 356.058916 235.497267 
L 344.167537 230.652839 
L 341.61407 229.537574 
L 332.550862 225.946314 
L 325.8643 223.127279 
L 321.220404 221.374672 
L 311.390105 217.397293 
L 310.15961 216.948 
L 299.34192 212.667967 
L 298.301922 212.221719 
L 288.760022 208.502575 
L 286.44186 207.517783 
L 278.408461 204.414003 
L 275.606746 203.230806 
L 268.27709 200.406463 
L 265.675415 199.309083 
L 258.357688 196.477118 
L 256.545704 195.710162 
L 248.642819 192.613604 
L 248.137059 192.397808 
L 240.378749 189.337749 
L 239.134593 188.888198 
L 233.180085 186.512862 
L 229.831033 185.261278 
L 226.498087 183.902927 
L 220.718709 181.640023 
L 220.333419 181.4791 
L 214.569499 179.232873 
L 211.830071 178.207401 
L 209.201611 177.155328 
L 204.267648 175.211147 
L 203.145514 174.803396 
L 199.585931 173.427288 
L 195.341154 171.744222 
L 194.692103 171.510091 
L 191.254932 170.214524 
L 187.587457 168.759675 
L 186.496638 168.356386 
L 184.046245 167.445752 
L 180.846856 166.198127 
L 178.574157 165.299729 
L 177.88258 165.0435 
L 175.017839 164.000192 
L 172.50762 162.991448 
L 170.973111 162.380458 
L 170.119698 162.078804 
L 167.816511 161.25693 
L 165.809121 160.460404 
L 164.024113 159.7053 
L 163.754642 159.602338 
L 162.112384 159.086921 
L 160.418225 158.494294 
L 158.95345 157.917593 
L 157.669675 157.365661 
L 157.082757 157.128761 
L 156.301373 156.912979 
L 154.964204 156.513577 
L 153.862553 156.10162 
L 152.935264 155.691917 
L 152.116234 155.304652 
L 151.347449 154.960004 
L 151.129107 154.873187 
z
" clip-path="url(#p2c11c5be06)" style="fill: #4778f0"/>
    <path d="M 150.478522 153.511438 
L 149.860676 153.212822 
L 149.366438 152.902188 
L 148.957953 152.588308 
L 148.5997 152.280089 
L 147.651197 152.239932 
L 148.795507 151.76103 
L 149.570692 151.737365 
L 149.927665 151.6726 
L 150.15397 152.052708 
L 150.488982 152.387772 
L 150.956876 152.676996 
L 151.573449 152.92434 
L 152.301813 153.161035 
L 153.096884 153.418302 
L 153.962661 153.699879 
L 154.943263 153.991108 
L 155.72563 154.205629 
L 156.053533 154.276374 
L 157.267962 154.546562 
L 158.556823 154.865169 
L 159.94884 155.225767 
L 161.558181 155.584336 
L 161.987497 155.677663 
L 163.317532 155.941868 
L 165.140466 156.372434 
L 167.169792 156.831441 
L 168.71691 157.172724 
L 169.427304 157.306474 
L 171.766107 157.853922 
L 174.326351 158.453962 
L 175.894312 158.849474 
L 177.099773 159.103678 
L 180.051974 159.821585 
L 183.238032 160.622901 
L 183.454401 160.684852 
L 186.693177 161.465003 
L 190.384167 162.413896 
L 191.356412 162.690934 
L 194.430661 163.407612 
L 198.740518 164.521232 
L 199.533709 164.750702 
L 203.476617 165.686228 
L 207.97388 166.875669 
L 208.52074 166.990656 
L 214.048767 168.366835 
L 216.673513 169.103725 
L 220.015234 169.871247 
L 225.61034 171.35211 
L 226.424571 171.527299 
L 233.428646 173.303658 
L 234.793942 173.699855 
L 241.059276 175.229276 
L 244.217445 176.117877 
L 249.343038 177.336407 
L 253.879998 178.586622 
L 258.369558 179.640378 
L 263.785953 181.116516 
L 268.242093 182.161753 
L 273.940267 183.711897 
L 279.076261 184.928355 
L 284.349161 186.372321 
L 291.000171 187.976979 
L 295.020692 189.093481 
L 304.154781 191.355199 
L 305.965385 191.868453 
L 317.19044 194.729567 
L 318.807683 195.10009 
L 328.699897 197.695056 
L 335.270269 199.268721 
L 340.516816 200.69923 
L 352.66078 203.77242 
L 353.596964 203.990873 
L 365.118897 207.052163 
L 374.29482 209.345202 
L 377.93609 210.367834 
L 391.095706 213.790477 
L 397.64605 215.490828 
L 404.656818 217.603611 
L 418.57748 221.215524 
L 421.805443 222.801377 
L 433.170208 228.833931 
L 433.416134 232.196963 
L 433.935164 242.75936 
L 434.064394 247.995685 
L 422.978949 243.165582 
L 419.887954 241.32236 
L 406.121996 236.521939 
L 400.35655 234.216866 
L 392.70147 231.514208 
L 379.672545 227.024672 
L 378.180411 226.485825 
L 366.959396 222.801139 
L 358.047147 219.727699 
L 354.598319 218.666328 
L 342.545854 214.695876 
L 339.923578 213.772164 
L 330.794205 210.90414 
L 323.614051 208.483811 
L 319.344409 207.19909 
L 308.869011 203.763175 
L 308.173639 203.560052 
L 297.260379 200.052908 
L 295.669772 199.490737 
L 286.604084 196.630878 
L 283.708706 195.618778 
L 276.196003 193.278492 
L 272.80534 192.099337 
L 266.026932 189.999109 
L 262.835699 188.888012 
L 256.089651 186.791548 
L 253.690459 185.949589 
L 246.378116 183.648373 
L 245.275919 183.255794 
L 237.540831 180.77306 
L 236.890037 180.588847 
L 230.42991 178.47277 
L 227.63004 177.649313 
L 223.826846 176.360407 
L 218.587684 174.735232 
L 217.695679 174.42041 
L 212.055434 172.607582 
L 209.782234 171.945708 
L 206.793909 170.942675 
L 201.927937 169.403845 
L 201.207233 169.203262 
L 197.40018 167.972947 
L 193.215451 166.657374 
L 192.886439 166.567147 
L 189.305489 165.432907 
L 185.720202 164.299796 
L 184.842173 164.051894 
L 182.342214 163.259443 
L 179.26233 162.28424 
L 177.090903 161.623443 
L 176.38834 161.396832 
L 173.690796 160.575994 
L 171.250104 159.810441 
L 169.690419 159.339889 
L 168.955771 159.119259 
L 166.752676 158.501931 
L 164.795845 157.913837 
L 163.038218 157.362483 
L 162.736461 157.28354 
L 161.218232 156.91406 
L 159.613928 156.474999 
L 158.22525 156.041773 
L 156.962432 155.644978 
L 156.338683 155.479376 
L 155.670028 155.318265 
L 154.502503 154.988955 
L 153.529748 154.64788 
L 152.655055 154.329942 
L 151.856748 154.03877 
L 151.125922 153.772822 
L 150.529397 153.5321 
z
" clip-path="url(#p2c11c5be06)" style="fill: #3d9efe"/>
    <path d="M 148.795507 151.76103 
L 149.419281 151.499976 
L 150.139228 151.004292 
L 150.957785 150.999825 
L 151.042653 151.500957 
L 151.407032 151.844427 
L 151.947487 152.116619 
L 152.660288 152.335317 
L 153.477704 152.549247 
L 154.33702 152.797835 
L 155.122552 153.028658 
L 155.267887 153.063862 
L 156.339273 153.280324 
L 157.518414 153.51267 
L 158.78721 153.779235 
L 160.151213 154.08536 
L 161.335511 154.345069 
L 161.686824 154.391865 
L 163.435313 154.657385 
L 165.254813 155.000362 
L 167.242714 155.382384 
L 167.934878 155.51516 
L 169.524756 155.721728 
L 171.904653 156.139958 
L 174.506943 156.604251 
L 174.913505 156.688927 
L 177.366115 157.071718 
L 180.402117 157.623368 
L 182.282972 158.009508 
L 183.706226 158.21964 
L 187.251828 158.878527 
L 190.001485 159.457434 
L 191.070271 159.615326 
L 195.233234 160.395866 
L 198.028495 161.004737 
L 199.702886 161.270137 
L 204.560453 162.212159 
L 206.334877 162.616901 
L 209.861424 163.222095 
L 214.901089 164.261552 
L 215.536057 164.358181 
L 221.798408 165.548897 
L 223.729202 165.986898 
L 228.608713 166.848378 
L 232.807893 167.748029 
L 235.9908 168.280839 
L 242.137412 169.543399 
L 244.030593 169.850331 
L 251.72147 171.387521 
L 252.826654 171.564576 
L 261.563757 173.288461 
L 262.487843 173.437137 
L 271.668347 175.248497 
L 273.134125 175.488613 
L 282.04029 177.265108 
L 284.898496 177.747719 
L 292.686685 179.333631 
L 297.924355 180.253802 
L 303.616883 181.447147 
L 312.368712 183.057827 
L 314.842529 183.595378 
L 326.371418 185.813938 
L 328.567276 186.18736 
L 338.208491 188.121285 
L 346.882608 189.698048 
L 350.378707 190.439641 
L 362.887579 192.859015 
L 367.582825 193.698613 
L 375.752008 195.400086 
L 388.99242 197.945073 
L 391.014476 198.315883 
L 402.608904 200.755637 
L 416.578529 203.08183 
L 418.149753 203.63274 
L 431.3609 209.07106 
L 431.689225 211.814481 
L 432.661628 221.879102 
L 433.170208 228.833931 
L 421.805443 222.801377 
L 418.57748 221.215524 
L 404.656818 217.603611 
L 397.64605 215.490828 
L 391.095706 213.790477 
L 377.93609 210.367834 
L 374.29482 209.345202 
L 365.118897 207.052163 
L 353.596964 203.990873 
L 352.66078 203.77242 
L 340.516816 200.69923 
L 335.270269 199.268721 
L 328.699897 197.695056 
L 318.807683 195.10009 
L 317.19044 194.729567 
L 305.965385 191.868453 
L 304.154781 191.355199 
L 295.020692 189.093481 
L 291.000171 187.976979 
L 284.349161 186.372321 
L 279.076261 184.928355 
L 273.940267 183.711897 
L 268.242093 182.161753 
L 263.785953 181.116516 
L 258.369558 179.640378 
L 253.879998 178.586622 
L 249.343038 177.336407 
L 244.217445 176.117877 
L 241.059276 175.229276 
L 234.793942 173.699855 
L 233.428646 173.303658 
L 226.424571 171.527299 
L 225.61034 171.35211 
L 220.015234 169.871247 
L 216.673513 169.103725 
L 214.048767 168.366835 
L 208.52074 166.990656 
L 207.97388 166.875669 
L 203.476617 165.686228 
L 199.533709 164.750702 
L 198.740518 164.521232 
L 194.430661 163.407612 
L 191.356412 162.690934 
L 190.384167 162.413896 
L 186.693177 161.465003 
L 183.454401 160.684852 
L 183.238032 160.622901 
L 180.051974 159.821585 
L 177.099773 159.103678 
L 175.894312 158.849474 
L 174.326351 158.453962 
L 171.766107 157.853922 
L 169.427304 157.306474 
L 168.71691 157.172724 
L 167.169792 156.831441 
L 165.140466 156.372434 
L 163.317532 155.941868 
L 161.987497 155.677663 
L 161.558181 155.584336 
L 159.94884 155.225767 
L 158.556823 154.865169 
L 157.267962 154.546562 
L 156.053533 154.276374 
L 155.72563 154.205629 
L 154.943263 153.991108 
L 153.962661 153.699879 
L 153.096884 153.418302 
L 152.301813 153.161035 
L 151.573449 152.92434 
L 150.956876 152.676996 
L 150.488982 152.387772 
L 150.15397 152.052708 
L 149.927665 151.6726 
L 149.570692 151.737365 
z
" clip-path="url(#p2c11c5be06)" style="fill: #23c3e4"/>
    <path d="M 154.33702 152.797835 
L 153.477704 152.549247 
L 152.660288 152.335317 
L 151.947487 152.116619 
L 151.407032 151.844427 
L 151.042653 151.500957 
L 150.957785 150.999825 
L 150.139228 151.004292 
L 151.72191 149.914615 
L 151.987906 150.327049 
L 151.931335 150.949206 
L 152.325083 151.301082 
L 152.938098 151.556241 
L 153.747126 151.746295 
L 154.509227 151.909978 
L 154.64734 151.934339 
L 155.539874 152.147371 
L 156.544319 152.355825 
L 157.724212 152.535377 
L 158.983296 152.748965 
L 160.306457 153.011908 
L 160.694683 153.09474 
L 161.82009 153.234543 
L 163.511475 153.450212 
L 165.299406 153.723385 
L 167.192093 154.058855 
L 167.223149 154.064524 
L 169.494238 154.270855 
L 171.862012 154.586529 
L 174.079483 154.931314 
L 174.415689 154.951849 
L 177.354091 155.249817 
L 180.383687 155.673803 
L 181.280918 155.820439 
L 183.819208 156.05719 
L 187.417565 156.547641 
L 188.820259 156.782082 
L 191.418551 157.036151 
L 195.663469 157.622629 
L 196.668315 157.800162 
L 200.339851 158.226496 
L 204.820317 158.8993 
L 205.314575 158.943704 
L 210.83146 159.671072 
L 213.25805 160.079411 
L 216.80965 160.481961 
L 221.953839 161.260275 
L 223.271289 161.393001 
L 230.351048 162.376046 
L 230.913006 162.47521 
L 238.17186 163.41903 
L 240.138676 163.74897 
L 246.720185 164.572926 
L 249.626224 165.045094 
L 256.098838 165.845716 
L 259.380917 166.371816 
L 266.426087 167.249697 
L 269.407263 167.728313 
L 277.826776 168.805979 
L 279.712075 169.113145 
L 290.304202 170.526701 
L 290.445579 170.541676 
L 301.189731 172.027745 
L 304.675097 172.427057 
L 312.377064 173.551859 
L 320.52728 174.569547 
L 323.880181 175.090578 
L 335.707934 176.678788 
L 338.396782 176.987369 
L 347.865226 178.339234 
L 358.730081 179.72533 
L 360.378671 179.981261 
L 373.245652 181.752265 
L 382.050447 182.855442 
L 386.496535 183.531347 
L 400.154992 185.524384 
L 409.207748 186.445822 
L 414.136186 187.052599 
L 428.982546 191.40717 
L 429.158531 192.47632 
L 430.516043 202.011595 
L 431.3609 209.07106 
L 418.149753 203.63274 
L 416.578529 203.08183 
L 402.608904 200.755637 
L 391.014476 198.315883 
L 388.99242 197.945073 
L 375.752008 195.400086 
L 367.582825 193.698613 
L 362.887579 192.859015 
L 350.378707 190.439641 
L 346.882608 189.698048 
L 338.208491 188.121285 
L 328.567276 186.18736 
L 326.371418 185.813938 
L 314.842529 183.595378 
L 312.368712 183.057827 
L 303.616883 181.447147 
L 297.924355 180.253802 
L 292.686685 179.333631 
L 284.898496 177.747719 
L 282.04029 177.265108 
L 273.134125 175.488613 
L 271.668347 175.248497 
L 262.487843 173.437137 
L 261.563757 173.288461 
L 252.826654 171.564576 
L 251.72147 171.387521 
L 244.030593 169.850331 
L 242.137412 169.543399 
L 235.9908 168.280839 
L 232.807893 167.748029 
L 228.608713 166.848378 
L 223.729202 165.986898 
L 221.798408 165.548897 
L 215.536057 164.358181 
L 214.901089 164.261552 
L 209.861424 163.222095 
L 206.334877 162.616901 
L 204.560453 162.212159 
L 199.702886 161.270137 
L 198.028495 161.004737 
L 195.233234 160.395866 
L 191.070271 159.615326 
L 190.001485 159.457434 
L 187.251828 158.878527 
L 183.706226 158.21964 
L 182.282972 158.009508 
L 180.402117 157.623368 
L 177.366115 157.071718 
L 174.913505 156.688927 
L 174.506943 156.604251 
L 171.904653 156.139958 
L 169.524756 155.721728 
L 167.934878 155.51516 
L 167.242714 155.382384 
L 165.254813 155.000362 
L 163.435313 154.657385 
L 161.686824 154.391865 
L 161.335511 154.345069 
L 160.151213 154.08536 
L 158.78721 153.779235 
L 157.518414 153.51267 
L 156.339273 153.280324 
L 155.267887 153.063862 
L 155.122552 153.028658 
z
" clip-path="url(#p2c11c5be06)" style="fill: #18e0bd"/>
    <path d="M 153.747126 151.746295 
L 152.938098 151.556241 
L 152.325083 151.301082 
L 151.931335 150.949206 
L 151.987906 150.327049 
L 151.72191 149.914615 
L 152.794631 149.176046 
L 154.042785 148.305319 
L 153.037266 149.531052 
L 153.018026 149.654273 
L 152.820018 150.397455 
L 153.243134 150.757737 
L 153.928709 150.995863 
L 153.980469 151.006567 
L 154.831357 151.121561 
L 155.748918 151.285474 
L 156.715651 151.475119 
L 157.820751 151.647788 
L 159.10915 151.79043 
L 160.072831 151.93472 
L 160.460839 151.967568 
L 161.924145 152.139984 
L 163.57282 152.303789 
L 165.336126 152.508559 
L 166.518507 152.690003 
L 167.237957 152.736776 
L 169.456933 152.893385 
L 171.793909 153.120144 
L 173.285252 153.323603 
L 174.339347 153.365739 
L 177.257393 153.551786 
L 180.214493 153.882321 
L 180.368395 153.903264 
L 183.761297 154.063282 
L 187.322939 154.426175 
L 187.762177 154.483626 
L 191.503011 154.665982 
L 195.448453 155.059296 
L 195.79197 155.068763 
L 200.65033 155.411959 
L 203.451837 155.725886 
L 205.861969 155.835878 
L 211.449848 156.347191 
L 211.728197 156.383204 
L 217.737293 156.820027 
L 220.291064 157.108804 
L 224.547824 157.372514 
L 229.121798 157.836574 
L 231.975485 157.994909 
L 238.223292 158.580038 
L 240.127049 158.679765 
L 247.597752 159.345154 
L 249.118975 159.424441 
L 257.248546 160.135121 
L 259.073176 160.233937 
L 267.179268 160.947688 
L 270.11726 161.121895 
L 277.399209 161.790669 
L 282.382469 162.112407 
L 287.91231 162.649557 
L 296.042978 163.228904 
L 298.724532 163.505992 
L 309.849851 164.390731 
L 311.373583 164.479825 
L 321.2968 165.347021 
L 328.778732 165.862249 
L 333.073638 166.280964 
L 345.197025 167.251562 
L 348.487625 167.457104 
L 357.668839 168.270765 
L 370.517602 169.255088 
L 371.065636 169.287277 
L 383.731174 170.342441 
L 396.968604 171.450633 
L 397.383612 171.495862 
L 411.340245 172.367367 
L 422.887565 174.834834 
L 426.225882 175.658723 
L 427.633939 183.21409 
L 428.982546 191.40717 
L 414.136186 187.052599 
L 409.207748 186.445822 
L 400.154992 185.524384 
L 386.496535 183.531347 
L 382.050447 182.855442 
L 373.245652 181.752265 
L 360.378671 179.981261 
L 358.730081 179.72533 
L 347.865226 178.339234 
L 338.396782 176.987369 
L 335.707934 176.678788 
L 323.880181 175.090578 
L 320.52728 174.569547 
L 312.377064 173.551859 
L 304.675097 172.427057 
L 301.189731 172.027745 
L 290.445579 170.541676 
L 290.304202 170.526701 
L 279.712075 169.113145 
L 277.826776 168.805979 
L 269.407263 167.728313 
L 266.426087 167.249697 
L 259.380917 166.371816 
L 256.098838 165.845716 
L 249.626224 165.045094 
L 246.720185 164.572926 
L 240.138676 163.74897 
L 238.17186 163.41903 
L 230.913006 162.47521 
L 230.351048 162.376046 
L 223.271289 161.393001 
L 221.953839 161.260275 
L 216.80965 160.481961 
L 213.25805 160.079411 
L 210.83146 159.671072 
L 205.314575 158.943704 
L 204.820317 158.8993 
L 200.339851 158.226496 
L 196.668315 157.800162 
L 195.663469 157.622629 
L 191.418551 157.036151 
L 188.820259 156.782082 
L 187.417565 156.547641 
L 183.819208 156.05719 
L 181.280918 155.820439 
L 180.383687 155.673803 
L 177.354091 155.249817 
L 174.415689 154.951849 
L 174.079483 154.931314 
L 171.862012 154.586529 
L 169.494238 154.270855 
L 167.223149 154.064524 
L 167.192093 154.058855 
L 165.299406 153.723385 
L 163.511475 153.450212 
L 161.82009 153.234543 
L 160.694683 153.09474 
L 160.306457 153.011908 
L 158.983296 152.748965 
L 157.724212 152.535377 
L 156.544319 152.355825 
L 155.539874 152.147371 
L 154.64734 151.934339 
L 154.509227 151.909978 
z
" clip-path="url(#p2c11c5be06)" style="fill: #35f394"/>
    <path d="M 153.928709 150.995863 
L 153.243134 150.757737 
L 152.820018 150.397455 
L 153.018026 149.654273 
L 153.037266 149.531052 
L 154.042785 148.305319 
L 156.687217 146.460531 
L 158.890169 144.918035 
L 156.84162 146.683861 
L 155.913663 147.690376 
L 154.158161 149.535926 
L 154.410877 150.029375 
L 155.066754 150.287417 
L 155.913289 150.465332 
L 156.850497 150.63661 
L 157.891427 150.802868 
L 159.097183 150.939751 
L 159.539285 150.980764 
L 160.535909 150.995206 
L 161.994468 151.1078 
L 163.563417 151.245127 
L 165.325551 151.373035 
L 165.849866 151.431288 
L 167.276888 151.477546 
L 169.397587 151.593963 
L 171.725669 151.725249 
L 172.507639 151.803437 
L 174.300366 151.836986 
L 177.15637 151.937395 
L 179.475919 152.102815 
L 180.188306 152.098581 
L 183.681095 152.169266 
L 186.740312 152.353959 
L 187.321102 152.347515 
L 191.532392 152.414679 
L 194.295348 152.585472 
L 195.96315 152.580891 
L 200.863359 152.734893 
L 202.149967 152.83494 
L 206.291507 152.870289 
L 210.285996 153.085694 
L 212.099868 153.087085 
L 218.453159 153.331413 
L 218.708148 153.350643 
L 225.596008 153.521489 
L 227.407591 153.637896 
L 233.407165 153.754226 
L 236.382667 153.923767 
L 241.997304 154.021243 
L 245.636521 154.213921 
L 251.485321 154.319561 
L 255.173128 154.510607 
L 261.996043 154.653661 
L 264.997492 154.813083 
L 273.654731 155.038567 
L 275.117607 155.122851 
L 285.529262 155.419981 
L 286.791256 155.428421 
L 296.249274 155.747037 
L 301.625478 155.839279 
L 307.29399 156.088864 
L 318.196972 156.367891 
L 318.662046 156.392662 
L 330.36151 156.752682 
L 337.274896 156.895565 
L 342.422256 157.126405 
L 354.830101 157.458316 
L 359.058993 157.531376 
L 367.619098 157.86314 
L 380.784739 158.188997 
L 384.296733 158.260508 
L 394.37108 158.678048 
L 408.28597 158.768527 
L 412.672415 159.388368 
L 423.156457 161.180336 
L 424.150738 165.525231 
L 425.959496 174.22935 
L 426.225882 175.658723 
L 422.887565 174.834834 
L 411.340245 172.367367 
L 397.383612 171.495862 
L 396.968604 171.450633 
L 383.731174 170.342441 
L 371.065636 169.287277 
L 370.517602 169.255088 
L 357.668839 168.270765 
L 348.487625 167.457104 
L 345.197025 167.251562 
L 333.073638 166.280964 
L 328.778732 165.862249 
L 321.2968 165.347021 
L 311.373583 164.479825 
L 309.849851 164.390731 
L 298.724532 163.505992 
L 296.042978 163.228904 
L 287.91231 162.649557 
L 282.382469 162.112407 
L 277.399209 161.790669 
L 270.11726 161.121895 
L 267.179268 160.947688 
L 259.073176 160.233937 
L 257.248546 160.135121 
L 249.118975 159.424441 
L 247.597752 159.345154 
L 240.127049 158.679765 
L 238.223292 158.580038 
L 231.975485 157.994909 
L 229.121798 157.836574 
L 224.547824 157.372514 
L 220.291064 157.108804 
L 217.737293 156.820027 
L 211.728197 156.383204 
L 211.449848 156.347191 
L 205.861969 155.835878 
L 203.451837 155.725886 
L 200.65033 155.411959 
L 195.79197 155.068763 
L 195.448453 155.059296 
L 191.503011 154.665982 
L 187.762177 154.483626 
L 187.322939 154.426175 
L 183.761297 154.063282 
L 180.368395 153.903264 
L 180.214493 153.882321 
L 177.257393 153.551786 
L 174.339347 153.365739 
L 173.285252 153.323603 
L 171.793909 153.120144 
L 169.456933 152.893385 
L 167.237957 152.736776 
L 166.518507 152.690003 
L 165.336126 152.508559 
L 163.57282 152.303789 
L 161.924145 152.139984 
L 160.460839 151.967568 
L 160.072831 151.93472 
L 159.10915 151.79043 
L 157.820751 151.647788 
L 156.715651 151.475119 
L 155.748918 151.285474 
L 154.831357 151.121561 
L 153.980469 151.006567 
z
" clip-path="url(#p2c11c5be06)" style="fill: #6dfe62"/>
    <path d="M 159.097183 150.939751 
L 157.891427 150.802868 
L 156.850497 150.63661 
L 155.913289 150.465332 
L 155.066754 150.287417 
L 154.410877 150.029375 
L 154.158161 149.535926 
L 155.913663 147.690376 
L 156.84162 146.683861 
L 158.890169 144.918035 
L 160.950877 143.475138 
L 165.52746 140.264826 
L 168.722989 138.020867 
L 165.732556 140.559221 
L 163.365851 142.575336 
L 161.363798 144.070821 
L 157.201444 147.210397 
L 156.266244 148.143738 
L 155.797058 149.139154 
L 156.210033 149.573716 
L 156.99522 149.809103 
L 157.952075 149.987745 
L 159.045305 150.128229 
L 159.071616 150.127464 
L 160.516132 150.114283 
L 162.003196 150.151254 
L 163.528097 150.248032 
L 165.20269 150.35027 
L 165.258259 150.354004 
L 167.247922 150.312275 
L 169.320235 150.367582 
L 171.557218 150.451151 
L 171.799489 150.463978 
L 174.229671 150.397623 
L 176.99938 150.430493 
L 178.642805 150.479071 
L 180.137719 150.406896 
L 183.559812 150.382911 
L 185.777302 150.421615 
L 187.347284 150.339245 
L 191.487373 150.29206 
L 193.199248 150.319626 
L 196.132674 150.185926 
L 200.902767 150.176397 
L 201.040755 150.167915 
L 206.644029 150.032321 
L 208.901424 150.055398 
L 212.776784 149.90107 
L 217.178571 149.910111 
L 219.416908 149.809206 
L 225.743169 149.767817 
L 226.703748 149.721427 
L 234.588523 149.617407 
L 234.784251 149.607642 
L 243.715965 149.459817 
L 243.784252 149.456464 
L 253.130395 149.299352 
L 253.826656 149.267397 
L 262.836527 149.135228 
L 265.047188 149.045162 
L 272.839481 148.962429 
L 277.59503 148.801023 
L 283.145752 148.773517 
L 291.641177 148.551483 
L 293.763271 148.558128 
L 304.704145 148.3525 
L 307.579764 148.247274 
L 315.97575 148.153676 
L 325.720405 147.902043 
L 327.586761 147.902592 
L 339.550914 147.688498 
L 346.619845 147.476192 
L 351.87875 147.441665 
L 364.583545 147.192623 
L 370.786034 146.993677 
L 377.671457 146.921291 
L 391.183774 146.710156 
L 399.54341 146.293781 
L 405.014446 146.127595 
L 419.838411 147.64582 
L 420.195181 148.969654 
L 422.223859 157.104991 
L 423.156457 161.180336 
L 412.672415 159.388368 
L 408.28597 158.768527 
L 394.37108 158.678048 
L 384.296733 158.260508 
L 380.784739 158.188997 
L 367.619098 157.86314 
L 359.058993 157.531376 
L 354.830101 157.458316 
L 342.422256 157.126405 
L 337.274896 156.895565 
L 330.36151 156.752682 
L 318.662046 156.392662 
L 318.196972 156.367891 
L 307.29399 156.088864 
L 301.625478 155.839279 
L 296.249274 155.747037 
L 286.791256 155.428421 
L 285.529262 155.419981 
L 275.117607 155.122851 
L 273.654731 155.038567 
L 264.997492 154.813083 
L 261.996043 154.653661 
L 255.173128 154.510607 
L 251.485321 154.319561 
L 245.636521 154.213921 
L 241.997304 154.021243 
L 236.382667 153.923767 
L 233.407165 153.754226 
L 227.407591 153.637896 
L 225.596008 153.521489 
L 218.708148 153.350643 
L 218.453159 153.331413 
L 212.099868 153.087085 
L 210.285996 153.085694 
L 206.291507 152.870289 
L 202.149967 152.83494 
L 200.863359 152.734893 
L 195.96315 152.580891 
L 194.295348 152.585472 
L 191.532392 152.414679 
L 187.321102 152.347515 
L 186.740312 152.353959 
L 183.681095 152.169266 
L 180.188306 152.098581 
L 179.475919 152.102815 
L 177.15637 151.937395 
L 174.300366 151.836986 
L 172.507639 151.803437 
L 171.725669 151.725249 
L 169.397587 151.593963 
L 167.276888 151.477546 
L 165.849866 151.431288 
L 165.325551 151.373035 
L 163.563417 151.245127 
L 161.994468 151.1078 
L 160.535909 150.995206 
L 159.539285 150.980764 
z
" clip-path="url(#p2c11c5be06)" style="fill: #a4fc3c"/>
    <path d="M 157.952075 149.987745 
L 156.99522 149.809103 
L 156.210033 149.573716 
L 155.797058 149.139154 
L 156.266244 148.143738 
L 157.201444 147.210397 
L 161.363798 144.070821 
L 163.365851 142.575336 
L 165.732556 140.559221 
L 168.722989 138.020867 
L 170.386053 136.853033 
L 175.508495 133.253425 
L 180.883797 129.474267 
L 186.505488 125.520459 
L 190.165101 122.945908 
L 186.674322 125.76175 
L 181.311504 130.085909 
L 180.922726 130.403233 
L 176.03447 134.007915 
L 170.993835 137.727777 
L 166.207836 141.247856 
L 162.183743 144.172572 
L 161.679696 144.533898 
L 157.539554 147.717308 
L 157.18324 148.248934 
L 157.353312 148.860014 
L 158.077152 149.152874 
L 158.504992 149.233854 
L 159.237545 149.215019 
L 160.587605 149.212115 
L 161.982471 149.249766 
L 163.470483 149.307303 
L 164.700158 149.372457 
L 165.139722 149.336635 
L 167.150888 149.239958 
L 169.217784 149.21512 
L 171.138772 149.254237 
L 171.406435 149.230461 
L 174.07883 149.072078 
L 176.815443 149.014563 
L 177.872147 149.022733 
L 179.9827 148.850151 
L 183.400001 148.701755 
L 184.885614 148.689183 
L 187.241712 148.485586 
L 191.387529 148.28912 
L 192.177892 148.279871 
L 196.141864 147.962121 
L 199.747233 147.815665 
L 201.255509 147.66772 
L 206.894638 147.336487 
L 207.602013 147.320846 
L 213.252387 146.898068 
L 215.739066 146.806269 
L 220.226797 146.439612 
L 224.160686 146.269707 
L 227.890564 145.957924 
L 232.871229 145.722288 
L 236.369487 145.43204 
L 241.869228 145.157662 
L 245.81887 144.836902 
L 251.155703 144.569654 
L 256.382548 144.163282 
L 260.73538 143.955432 
L 268.199504 143.415236 
L 270.614418 143.310451 
L 280.801229 142.638152 
L 281.481964 142.578524 
L 291.305058 141.97268 
L 296.709865 141.550716 
L 302.131254 141.264678 
L 313.292046 140.511417 
L 313.83782 140.464952 
L 324.796505 139.782418 
L 333.717423 139.133081 
L 336.654929 138.984775 
L 348.878689 138.188688 
L 356.689012 137.608299 
L 361.482393 137.35045 
L 374.469881 136.481846 
L 383.421531 135.868137 
L 387.888882 135.647962 
L 401.615139 134.465633 
L 411.605052 134.835917 
L 416.350522 135.14078 
L 418.079629 141.119667 
L 419.838411 147.64582 
L 405.014446 146.127595 
L 399.54341 146.293781 
L 391.183774 146.710156 
L 377.671457 146.921291 
L 370.786034 146.993677 
L 364.583545 147.192623 
L 351.87875 147.441665 
L 346.619845 147.476192 
L 339.550914 147.688498 
L 327.586761 147.902592 
L 325.720405 147.902043 
L 315.97575 148.153676 
L 307.579764 148.247274 
L 304.704145 148.3525 
L 293.763271 148.558128 
L 291.641177 148.551483 
L 283.145752 148.773517 
L 277.59503 148.801023 
L 272.839481 148.962429 
L 265.047188 149.045162 
L 262.836527 149.135228 
L 253.826656 149.267397 
L 253.130395 149.299352 
L 243.784252 149.456464 
L 243.715965 149.459817 
L 234.784251 149.607642 
L 234.588523 149.617407 
L 226.703748 149.721427 
L 225.743169 149.767817 
L 219.416908 149.809206 
L 217.178571 149.910111 
L 212.776784 149.90107 
L 208.901424 150.055398 
L 206.644029 150.032321 
L 201.040755 150.167915 
L 200.902767 150.176397 
L 196.132674 150.185926 
L 193.199248 150.319626 
L 191.487373 150.29206 
L 187.347284 150.339245 
L 185.777302 150.421615 
L 183.559812 150.382911 
L 180.137719 150.406896 
L 178.642805 150.479071 
L 176.99938 150.430493 
L 174.229671 150.397623 
L 171.799489 150.463978 
L 171.557218 150.451151 
L 169.320235 150.367582 
L 167.247922 150.312275 
L 165.258259 150.354004 
L 165.20269 150.35027 
L 163.528097 150.248032 
L 162.003196 150.151254 
L 160.516132 150.114283 
L 159.071616 150.127464 
L 159.045305 150.128229 
z
" clip-path="url(#p2c11c5be06)" style="fill: #cbed34"/>
    <path d="M 158.077152 149.152874 
L 157.353312 148.860014 
L 157.18324 148.248934 
L 157.539554 147.717308 
L 161.679696 144.533898 
L 162.183743 144.172572 
L 166.207836 141.247856 
L 170.993835 137.727777 
L 176.03447 134.007915 
L 180.922726 130.403233 
L 181.311504 130.085909 
L 186.674322 125.76175 
L 190.165101 122.945908 
L 192.37017 121.394633 
L 198.476669 117.097788 
L 204.825494 112.629694 
L 211.418479 107.989158 
L 218.258538 103.174209 
L 225.349485 98.182219 
L 232.695913 93.010007 
L 237.503139 89.625307 
L 232.852951 93.234022 
L 225.746499 98.748635 
L 220.411609 102.884653 
L 218.848089 104.015691 
L 212.071692 108.922777 
L 205.540602 113.65304 
L 199.251016 118.207216 
L 193.198517 122.582833 
L 187.387909 126.787873 
L 183.859151 129.342999 
L 181.809227 130.805782 
L 176.462103 134.629112 
L 171.366546 138.272243 
L 166.527978 141.719522 
L 161.970947 144.968427 
L 160.951054 145.773667 
L 159.294964 147.620695 
L 159.875939 148.023449 
L 160.908873 148.182395 
L 162.103593 148.296767 
L 163.44881 148.385249 
L 164.14099 148.417827 
L 165.183094 148.304837 
L 167.123244 148.179069 
L 169.107033 148.124103 
L 170.498251 148.116672 
L 171.356068 148.012367 
L 173.962004 147.795875 
L 176.634089 147.671045 
L 177.130781 147.661671 
L 179.849574 147.359974 
L 183.219411 147.114864 
L 184.03323 147.082191 
L 187.145816 146.713691 
L 191.204058 146.396668 
L 191.266783 146.387548 
L 196.137916 145.838098 
L 198.65181 145.650804 
L 201.418978 145.285759 
L 206.368632 144.824255 
L 207.193868 144.706396 
L 213.684261 144.009126 
L 214.367758 143.960031 
L 220.953668 143.196919 
L 222.64984 143.061649 
L 228.995774 142.312296 
L 231.217846 142.128324 
L 237.909693 141.347734 
L 240.077486 141.167349 
L 247.822681 140.290694 
L 249.231121 140.174547 
L 258.680996 139.142771 
L 258.924337 139.110297 
L 268.43558 138.095916 
L 271.617034 137.694617 
L 278.497712 137.004719 
L 285.893842 136.13565 
L 288.875209 135.859995 
L 299.578734 134.679867 
L 302.177299 134.352068 
L 310.618056 133.478548 
L 320.856506 132.308137 
L 322.001569 132.202595 
L 333.741861 130.928129 
L 342.614696 129.889041 
L 345.848127 129.575394 
L 358.334393 128.210101 
L 368.042297 127.067456 
L 371.206643 126.753284 
L 384.507383 125.360382 
L 398.123697 123.55709 
L 398.6822 123.542012 
L 412.739144 123.503832 
L 413.646265 126.274538 
L 415.891863 133.554837 
L 416.350522 135.14078 
L 411.605052 134.835917 
L 401.615139 134.465633 
L 387.888882 135.647962 
L 383.421531 135.868137 
L 374.469881 136.481846 
L 361.482393 137.35045 
L 356.689012 137.608299 
L 348.878689 138.188688 
L 336.654929 138.984775 
L 333.717423 139.133081 
L 324.796505 139.782418 
L 313.83782 140.464952 
L 313.292046 140.511417 
L 302.131254 141.264678 
L 296.709865 141.550716 
L 291.305058 141.97268 
L 281.481964 142.578524 
L 280.801229 142.638152 
L 270.614418 143.310451 
L 268.199504 143.415236 
L 260.73538 143.955432 
L 256.382548 144.163282 
L 251.155703 144.569654 
L 245.81887 144.836902 
L 241.869228 145.157662 
L 236.369487 145.43204 
L 232.871229 145.722288 
L 227.890564 145.957924 
L 224.160686 146.269707 
L 220.226797 146.439612 
L 215.739066 146.806269 
L 213.252387 146.898068 
L 207.602013 147.320846 
L 206.894638 147.336487 
L 201.255509 147.66772 
L 199.747233 147.815665 
L 196.141864 147.962121 
L 192.177892 148.279871 
L 191.387529 148.28912 
L 187.241712 148.485586 
L 184.885614 148.689183 
L 183.400001 148.701755 
L 179.9827 148.850151 
L 177.872147 149.022733 
L 176.815443 149.014563 
L 174.07883 149.072078 
L 171.406435 149.230461 
L 171.138772 149.254237 
L 169.217784 149.21512 
L 167.150888 149.239958 
L 165.139722 149.336635 
L 164.700158 149.372457 
L 163.470483 149.307303 
L 161.982471 149.249766 
L 160.587605 149.212115 
L 159.237545 149.215019 
L 158.504992 149.233854 
z
" clip-path="url(#p2c11c5be06)" style="fill: #ebd339"/>
    <path d="M 163.44881 148.385249 
L 162.103593 148.296767 
L 160.908873 148.182395 
L 159.875939 148.023449 
L 159.294964 147.620695 
L 160.951054 145.773667 
L 161.970947 144.968427 
L 166.527978 141.719522 
L 171.366546 138.272243 
L 176.462103 134.629112 
L 181.809227 130.805782 
L 183.859151 129.342999 
L 187.387909 126.787873 
L 193.198517 122.582833 
L 199.251016 118.207216 
L 205.540602 113.65304 
L 212.071692 108.922777 
L 218.848089 104.015691 
L 220.411609 102.884653 
L 225.746499 98.748635 
L 232.852951 93.234022 
L 237.503139 89.625307 
L 240.30309 87.653901 
L 248.176891 82.1098 
L 256.323741 76.373205 
L 264.750569 70.43926 
L 273.464773 64.302773 
L 282.474191 57.958239 
L 291.787078 51.399857 
L 301.412083 44.621544 
L 311.35823 37.616951 
L 321.634899 30.379476 
L 327.934246 25.943018 
L 321.819433 30.642565 
L 311.828754 38.287791 
L 302.152211 45.676799 
L 300.109812 47.235728 
L 292.638463 52.61467 
L 283.390915 59.26735 
L 274.441915 65.699126 
L 265.78355 71.916296 
L 257.408156 77.924623 
L 249.308475 83.729507 
L 241.477804 89.336143 
L 233.909999 94.749441 
L 232.606813 95.681977 
L 226.581092 99.948075 
L 219.50202 104.958581 
L 212.672878 109.790791 
L 206.091264 114.449434 
L 199.750146 118.930557 
L 193.651924 123.241601 
L 187.794833 127.381098 
L 182.180628 131.349106 
L 177.634347 134.563494 
L 176.814413 135.146052 
L 171.710278 138.780151 
L 166.868359 142.227418 
L 162.38849 145.601303 
L 162.329089 145.662135 
L 161.919611 146.732375 
L 162.580201 147.149771 
L 163.493948 147.346793 
L 163.689874 147.336434 
L 165.507017 147.141534 
L 167.277773 147.055501 
L 169.106766 147.021503 
L 169.857359 147.0091 
L 171.435059 146.775792 
L 173.961376 146.516798 
L 176.404987 146.366248 
L 176.54877 146.34227 
L 179.825842 145.883023 
L 183.091142 145.57976 
L 183.208893 145.571506 
L 187.126311 144.983855 
L 190.26914 144.648425 
L 191.346419 144.460661 
L 196.18947 143.775819 
L 197.595535 143.627213 
L 201.629497 142.97089 
L 205.189409 142.520747 
L 207.624641 142.097056 
L 213.055448 141.339764 
L 214.298111 141.115679 
L 221.200327 140.100705 
L 221.769082 139.997342 
L 229.630269 138.814886 
L 230.158392 138.719515 
L 238.349659 137.486188 
L 239.588726 137.26719 
L 247.365942 136.12119 
L 250.160251 135.645022 
L 256.682724 134.714928 
L 262.022698 133.843692 
L 266.302969 133.256651 
L 275.363438 131.848868 
L 276.231858 131.735443 
L 286.481224 130.186774 
L 290.787377 129.475207 
L 297.055559 128.578537 
L 307.963173 126.889515 
L 308.315468 126.829436 
L 319.219038 125.189667 
L 328.829862 123.670297 
L 330.828835 123.393752 
L 342.806152 121.571743 
L 352.772148 119.994799 
L 355.162952 119.659893 
L 367.904738 117.707485 
L 380.820909 115.745905 
L 381.076772 115.711402 
L 394.559194 113.425159 
L 408.919158 112.599569 
L 409.044351 112.595278 
L 411.355356 119.277197 
L 412.739144 123.503832 
L 398.6822 123.542012 
L 398.123697 123.55709 
L 384.507383 125.360382 
L 371.206643 126.753284 
L 368.042297 127.067456 
L 358.334393 128.210101 
L 345.848127 129.575394 
L 342.614696 129.889041 
L 333.741861 130.928129 
L 322.001569 132.202595 
L 320.856506 132.308137 
L 310.618056 133.478548 
L 302.177299 134.352068 
L 299.578734 134.679867 
L 288.875209 135.859995 
L 285.893842 136.13565 
L 278.497712 137.004719 
L 271.617034 137.694617 
L 268.43558 138.095916 
L 258.924337 139.110297 
L 258.680996 139.142771 
L 249.231121 140.174547 
L 247.822681 140.290694 
L 240.077486 141.167349 
L 237.909693 141.347734 
L 231.217846 142.128324 
L 228.995774 142.312296 
L 222.64984 143.061649 
L 220.953668 143.196919 
L 214.367758 143.960031 
L 213.684261 144.009126 
L 207.193868 144.706396 
L 206.368632 144.824255 
L 201.418978 145.285759 
L 198.65181 145.650804 
L 196.137916 145.838098 
L 191.266783 146.387548 
L 191.204058 146.396668 
L 187.145816 146.713691 
L 184.03323 147.082191 
L 183.219411 147.114864 
L 179.849574 147.359974 
L 177.130781 147.661671 
L 176.634089 147.671045 
L 173.962004 147.795875 
L 171.356068 148.012367 
L 170.498251 148.116672 
L 169.107033 148.124103 
L 167.123244 148.179069 
L 165.183094 148.304837 
L 164.14099 148.417827 
z
" clip-path="url(#p2c11c5be06)" style="fill: #fcb336"/>
    <path d="M 162.580201 147.149771 
L 161.919611 146.732375 
L 162.329089 145.662135 
L 162.38849 145.601303 
L 166.868359 142.227418 
L 171.710278 138.780151 
L 176.814413 135.146052 
L 177.634347 134.563494 
L 182.180628 131.349106 
L 187.794833 127.381098 
L 193.651924 123.241601 
L 199.750146 118.930557 
L 206.091264 114.449434 
L 212.672878 109.790791 
L 219.50202 104.958581 
L 226.581092 99.948075 
L 232.606813 95.681977 
L 233.909999 94.749441 
L 241.477804 89.336143 
L 249.308475 83.729507 
L 257.408156 77.924623 
L 265.78355 71.916296 
L 274.441915 65.699126 
L 283.390915 59.26735 
L 292.638463 52.61467 
L 300.109812 47.235728 
L 302.152211 45.676799 
L 311.828754 38.287791 
L 321.819433 30.642565 
L 327.934246 25.943018 
L 332.25181 22.902275 
L 343.219004 15.178276 
L 354.546924 7.2 
L 355.490956 8.546407 
L 356.10283 9.42552 
L 344.89462 17.575885 
L 333.966313 25.356209 
L 327.955382 29.649324 
L 323.383639 32.883426 
L 313.118052 40.138065 
L 303.180627 47.156392 
L 293.561503 53.94432 
L 284.252074 60.508811 
L 275.243854 66.85619 
L 266.528756 72.992508 
L 258.099077 78.923479 
L 249.947609 84.654581 
L 242.067619 90.190972 
L 234.452841 95.5374 
L 227.097634 100.698332 
L 221.943622 104.313647 
L 219.998337 105.680019 
L 213.153504 110.490645 
L 206.557131 115.12918 
L 200.201446 119.590562 
L 194.091065 123.885611 
L 188.222899 128.010989 
L 182.600421 131.969435 
L 177.226237 135.757728 
L 176.259789 136.439839 
L 172.139299 139.422732 
L 167.366436 142.983042 
L 166.384274 143.864362 
L 165.797754 145.121289 
L 166.612029 145.521182 
L 167.869917 145.702608 
L 169.122021 145.775054 
L 169.508927 145.720653 
L 171.886679 145.366598 
L 174.195626 145.157106 
L 175.647708 145.055357 
L 176.88996 144.823483 
L 180.017632 144.350862 
L 182.374632 144.089077 
L 183.347603 143.896263 
L 187.281636 143.235137 
L 189.340854 142.960455 
L 191.635351 142.49953 
L 196.378566 141.726229 
L 196.560424 141.701466 
L 202.003447 140.656877 
L 204.037621 140.338746 
L 208.210617 139.4935 
L 211.782961 138.88535 
L 215.156017 138.179635 
L 219.799714 137.349519 
L 222.972432 136.678981 
L 228.097342 135.746962 
L 231.764853 134.977553 
L 236.681443 134.082385 
L 241.672617 133.052217 
L 245.556966 132.355596 
L 252.807535 130.90299 
L 254.731658 130.568479 
L 264.21357 128.728139 
L 265.416806 128.473152 
L 274.01005 126.84557 
L 279.898084 125.653053 
L 284.123619 124.888299 
L 294.562467 122.857567 
L 296.403373 122.47349 
L 305.337574 120.779889 
L 315.585127 118.757237 
L 316.455436 118.601931 
L 327.929785 116.386944 
L 338.118904 114.363227 
L 339.768828 114.064073 
L 351.986624 111.701383 
L 364.588339 109.204943 
L 364.750501 109.171836 
L 377.616491 106.741482 
L 390.959135 103.902501 
L 395.581091 103.365624 
L 405.287675 102.443464 
L 406.689129 106.119186 
L 409.031991 112.559542 
L 409.044351 112.595278 
L 408.919158 112.599569 
L 394.559194 113.425159 
L 381.076772 115.711402 
L 380.820909 115.745905 
L 367.904738 117.707485 
L 355.162952 119.659893 
L 352.772148 119.994799 
L 342.806152 121.571743 
L 330.828835 123.393752 
L 328.829862 123.670297 
L 319.219038 125.189667 
L 308.315468 126.829436 
L 307.963173 126.889515 
L 297.055559 128.578537 
L 290.787377 129.475207 
L 286.481224 130.186774 
L 276.231858 131.735443 
L 275.363438 131.848868 
L 266.302969 133.256651 
L 262.022698 133.843692 
L 256.682724 134.714928 
L 250.160251 135.645022 
L 247.365942 136.12119 
L 239.588726 137.26719 
L 238.349659 137.486188 
L 230.158392 138.719515 
L 229.630269 138.814886 
L 221.769082 139.997342 
L 221.200327 140.100705 
L 214.298111 141.115679 
L 213.055448 141.339764 
L 207.624641 142.097056 
L 205.189409 142.520747 
L 201.629497 142.97089 
L 197.595535 143.627213 
L 196.18947 143.775819 
L 191.346419 144.460661 
L 190.26914 144.648425 
L 187.126311 144.983855 
L 183.208893 145.571506 
L 183.091142 145.57976 
L 179.825842 145.883023 
L 176.54877 146.34227 
L 176.404987 146.366248 
L 173.961376 146.516798 
L 171.435059 146.775792 
L 169.857359 147.0091 
L 169.106766 147.021503 
L 167.277773 147.055501 
L 165.507017 147.141534 
L 163.689874 147.336434 
L 163.493948 147.346793 
z
" clip-path="url(#p2c11c5be06)" style="fill: #fd8a26"/>
    <path d="M 167.869917 145.702608 
L 166.612029 145.521182 
L 165.797754 145.121289 
L 166.384274 143.864362 
L 167.366436 142.983042 
L 172.139299 139.422732 
L 176.259789 136.439839 
L 177.226237 135.757728 
L 182.600421 131.969435 
L 188.222899 128.010989 
L 194.091065 123.885611 
L 200.201446 119.590562 
L 206.557131 115.12918 
L 213.153504 110.490645 
L 219.998337 105.680019 
L 221.943622 104.313647 
L 227.097634 100.698332 
L 234.452841 95.5374 
L 242.067619 90.190972 
L 249.947609 84.654581 
L 258.099077 78.923479 
L 266.528756 72.992508 
L 275.243854 66.85619 
L 284.252074 60.508811 
L 293.561503 53.94432 
L 303.180627 47.156392 
L 313.118052 40.138065 
L 323.383639 32.883426 
L 327.955382 29.649324 
L 333.966313 25.356209 
L 344.89462 17.575885 
L 356.10283 9.42552 
L 356.440222 9.910271 
L 357.111446 10.883087 
L 345.811414 18.902546 
L 334.821241 26.594476 
L 324.188074 34.049333 
L 318.393922 38.107406 
L 313.893684 41.262693 
L 303.931555 48.24613 
L 294.288399 55.0001 
L 284.955615 61.53158 
L 275.924665 67.846825 
L 267.187468 73.951906 
L 258.736411 79.852675 
L 250.564436 85.554841 
L 242.664896 91.063702 
L 235.031488 96.383962 
L 227.658498 101.520002 
L 220.541072 106.476153 
L 216.855573 109.044399 
L 213.687995 111.275866 
L 207.095773 115.922528 
L 200.748236 120.398204 
L 194.647556 124.710317 
L 188.793138 128.859399 
L 183.703553 132.481902 
L 183.194668 132.858193 
L 177.912637 136.794708 
L 173.3668 140.274462 
L 172.937102 140.642277 
L 171.465326 142.472378 
L 171.969858 143.166886 
L 173.287818 143.416042 
L 174.706739 143.473744 
L 175.147262 143.412298 
L 177.977379 142.910491 
L 180.694135 142.594576 
L 181.458297 142.505465 
L 184.217672 141.918255 
L 187.848453 141.32283 
L 188.37091 141.244022 
L 192.374759 140.357025 
L 195.497201 139.787039 
L 197.250614 139.368648 
L 202.720569 138.236731 
L 202.879385 138.207547 
L 209.168879 136.770485 
L 210.510629 136.504861 
L 216.388579 135.1241 
L 218.40959 134.704569 
L 224.545563 133.242999 
L 226.580884 132.811721 
L 233.744751 131.113622 
L 235.035629 130.840058 
L 243.778116 128.789055 
L 244.169026 128.689784 
L 252.813444 126.666736 
L 256.223192 125.823436 
L 262.155845 124.477034 
L 269.776946 122.658142 
L 271.811996 122.213801 
L 281.785374 119.88112 
L 285.387116 119.001786 
L 292.087219 117.479369 
L 302.724897 114.984581 
L 303.311552 114.839647 
L 313.702117 112.423956 
L 324.431876 109.892047 
L 325.03713 109.758506 
L 336.731172 107.024594 
L 348.806543 104.178811 
L 349.437586 104.023101 
L 361.258751 101.253164 
L 374.136934 98.26357 
L 379.825873 96.802721 
L 387.330044 94.957719 
L 401.488576 92.850527 
L 401.988195 94.054287 
L 404.337832 99.952223 
L 405.287675 102.443464 
L 395.581091 103.365624 
L 390.959135 103.902501 
L 377.616491 106.741482 
L 364.750501 109.171836 
L 364.588339 109.204943 
L 351.986624 111.701383 
L 339.768828 114.064073 
L 338.118904 114.363227 
L 327.929785 116.386944 
L 316.455436 118.601931 
L 315.585127 118.757237 
L 305.337574 120.779889 
L 296.403373 122.47349 
L 294.562467 122.857567 
L 284.123619 124.888299 
L 279.898084 125.653053 
L 274.01005 126.84557 
L 265.416806 128.473152 
L 264.21357 128.728139 
L 254.731658 130.568479 
L 252.807535 130.90299 
L 245.556966 132.355596 
L 241.672617 133.052217 
L 236.681443 134.082385 
L 231.764853 134.977553 
L 228.097342 135.746962 
L 222.972432 136.678981 
L 219.799714 137.349519 
L 215.156017 138.179635 
L 211.782961 138.88535 
L 208.210617 139.4935 
L 204.037621 140.338746 
L 202.003447 140.656877 
L 196.560424 141.701466 
L 196.378566 141.726229 
L 191.635351 142.49953 
L 189.340854 142.960455 
L 187.281636 143.235137 
L 183.347603 143.896263 
L 182.374632 144.089077 
L 180.017632 144.350862 
L 176.88996 144.823483 
L 175.647708 145.055357 
L 174.195626 145.157106 
L 171.886679 145.366598 
L 169.508927 145.720653 
L 169.122021 145.775054 
z
" clip-path="url(#p2c11c5be06)" style="fill: #f15d13"/>
    <path d="M 173.287818 143.416042 
L 171.969858 143.166886 
L 171.465326 142.472378 
L 172.937102 140.642277 
L 173.3668 140.274462 
L 177.912637 136.794708 
L 183.194668 132.858193 
L 183.703553 132.481902 
L 188.793138 128.859399 
L 194.647556 124.710317 
L 200.748236 120.398204 
L 207.095773 115.922528 
L 213.687995 111.275866 
L 216.855573 109.044399 
L 220.541072 106.476153 
L 227.658498 101.520002 
L 235.031488 96.383962 
L 242.664896 91.063702 
L 250.564436 85.554841 
L 258.736411 79.852675 
L 267.187468 73.951906 
L 275.924665 67.846825 
L 284.955615 61.53158 
L 294.288399 55.0001 
L 303.931555 48.24613 
L 313.893684 41.262693 
L 318.393922 38.107406 
L 324.188074 34.049333 
L 334.821241 26.594476 
L 345.811414 18.902546 
L 357.111446 10.883087 
L 357.400577 11.302131 
L 358.087282 12.305423 
L 346.752475 20.27571 
L 335.730358 27.921899 
L 325.066014 35.332191 
L 317.502425 40.582026 
L 314.746704 42.510026 
L 304.777663 49.484635 
L 295.127008 56.228868 
L 285.786291 62.749943 
L 276.74705 69.054236 
L 268.001319 75.147999 
L 259.541739 81.037475 
L 251.361613 86.728926 
L 243.454533 92.228027 
L 235.814241 97.539573 
L 234.263607 98.61836 
L 228.473762 102.726759 
L 221.401175 107.753023 
L 214.578762 112.601887 
L 208.005982 117.281137 
L 203.701889 120.359166 
L 201.710515 121.840368 
L 195.728808 126.341268 
L 191.186374 129.786018 
L 190.015333 130.717107 
L 184.633463 135.070226 
L 184.135963 135.497236 
L 181.434424 138.370933 
L 181.919746 139.279654 
L 183.999475 139.28743 
L 186.519563 139.136568 
L 187.093582 139.060079 
L 190.321529 138.338734 
L 194.173789 137.662092 
L 194.271803 137.643401 
L 199.342447 136.374196 
L 201.573077 135.886534 
L 205.040762 134.971908 
L 209.123306 133.995146 
L 211.499164 133.348113 
L 216.926117 131.975943 
L 218.916163 131.423092 
L 224.985154 129.831232 
L 227.48705 129.128939 
L 233.31424 127.578233 
L 237.304899 126.463394 
L 241.930195 125.237398 
L 248.449394 123.439174 
L 250.842319 122.812951 
L 260.049199 120.29084 
L 261.236676 119.953532 
L 269.552413 117.668127 
L 276.113031 115.855694 
L 279.39078 114.986981 
L 289.546654 112.205175 
L 293.181815 111.194269 
L 300.038522 109.341882 
L 310.882106 106.392376 
L 313.037481 105.792031 
L 322.063363 103.331586 
L 333.620479 100.18127 
L 336.619228 99.34857 
L 345.540031 96.920643 
L 357.843622 93.539376 
L 364.849636 91.631239 
L 370.570808 90.108435 
L 383.600752 86.334806 
L 394.840553 84.141977 
L 397.589619 83.641355 
L 399.650294 88.421452 
L 401.488576 92.850527 
L 387.330044 94.957719 
L 379.825873 96.802721 
L 374.136934 98.26357 
L 361.258751 101.253164 
L 349.437586 104.023101 
L 348.806543 104.178811 
L 336.731172 107.024594 
L 325.03713 109.758506 
L 324.431876 109.892047 
L 313.702117 112.423956 
L 303.311552 114.839647 
L 302.724897 114.984581 
L 292.087219 117.479369 
L 285.387116 119.001786 
L 281.785374 119.88112 
L 271.811996 122.213801 
L 269.776946 122.658142 
L 262.155845 124.477034 
L 256.223192 125.823436 
L 252.813444 126.666736 
L 244.169026 128.689784 
L 243.778116 128.789055 
L 235.035629 130.840058 
L 233.744751 131.113622 
L 226.580884 132.811721 
L 224.545563 133.242999 
L 218.40959 134.704569 
L 216.388579 135.1241 
L 210.510629 136.504861 
L 209.168879 136.770485 
L 202.879385 138.207547 
L 202.720569 138.236731 
L 197.250614 139.368648 
L 195.497201 139.787039 
L 192.374759 140.357025 
L 188.37091 141.244022 
L 187.848453 141.32283 
L 184.217672 141.918255 
L 181.458297 142.505465 
L 180.694135 142.594576 
L 177.977379 142.910491 
L 175.147262 143.412298 
L 174.706739 143.473744 
z
" clip-path="url(#p2c11c5be06)" style="fill: #dc3b07"/>
    <path d="M 186.519563 139.136568 
L 183.999475 139.28743 
L 181.919746 139.279654 
L 181.434424 138.370933 
L 184.135963 135.497236 
L 184.633463 135.070226 
L 190.015333 130.717107 
L 191.186374 129.786018 
L 195.728808 126.341268 
L 201.710515 121.840368 
L 203.701889 120.359166 
L 208.005982 117.281137 
L 214.578762 112.601887 
L 221.401175 107.753023 
L 228.473762 102.726759 
L 234.263607 98.61836 
L 235.814241 97.539573 
L 243.454533 92.228027 
L 251.361613 86.728926 
L 259.541739 81.037475 
L 268.001319 75.147999 
L 276.74705 69.054236 
L 285.786291 62.749943 
L 295.127008 56.228868 
L 304.777663 49.484635 
L 314.746704 42.510026 
L 317.502425 40.582026 
L 325.066014 35.332191 
L 335.730358 27.921899 
L 346.752475 20.27571 
L 358.087282 12.305423 
L 358.379204 12.731926 
L 359.381218 14.20859 
L 359.513676 14.405669 
L 348.249839 22.485488 
L 337.242446 30.155981 
L 326.5973 37.597363 
L 316.283713 44.786009 
L 306.298116 51.737938 
L 298.455565 57.192282 
L 296.645662 58.481951 
L 287.36428 65.096044 
L 278.376957 71.482215 
L 269.677108 77.648835 
L 261.258988 83.604632 
L 259.050324 85.169586 
L 253.17256 89.444115 
L 245.376824 95.119311 
L 237.839299 100.594524 
L 236.008377 101.93179 
L 230.616042 105.97281 
L 223.666255 111.201687 
L 221.219962 113.065162 
L 217.043465 116.379593 
L 212.131819 120.388586 
L 210.78655 121.580247 
L 206.656279 125.356095 
L 205.072469 127.111203 
L 204.015808 128.551723 
L 204.67068 129.788374 
L 206.708552 129.81563 
L 207.599074 129.773949 
L 212.710329 128.626895 
L 214.742852 128.123582 
L 219.043458 126.968204 
L 222.806105 125.92449 
L 226.626898 124.824485 
L 231.074208 123.501631 
L 235.66673 122.126406 
L 239.59169 120.920334 
L 246.175187 118.923214 
L 248.397191 118.236028 
L 257.490058 115.435024 
L 258.350295 115.168347 
L 266.823187 112.421764 
L 272.920974 110.545558 
L 276.523145 109.401234 
L 286.533145 106.257517 
L 289.57474 105.320634 
L 296.855291 102.978261 
L 307.578199 99.700207 
L 308.887747 99.299161 
L 318.574447 96.177247 
L 330.013667 92.689989 
L 331.778541 92.151926 
L 341.747671 88.950511 
L 353.911207 85.174317 
L 359.236623 83.570852 
L 366.472761 81.289943 
L 379.329943 77.048776 
L 389.089124 74.793747 
L 393.152755 73.82793 
L 395.046359 77.927488 
L 397.333724 83.04776 
L 397.589619 83.641355 
L 394.840553 84.141977 
L 383.600752 86.334806 
L 370.570808 90.108435 
L 364.849636 91.631239 
L 357.843622 93.539376 
L 345.540031 96.920643 
L 336.619228 99.34857 
L 333.620479 100.18127 
L 322.063363 103.331586 
L 313.037481 105.792031 
L 310.882106 106.392376 
L 300.038522 109.341882 
L 293.181815 111.194269 
L 289.546654 112.205175 
L 279.39078 114.986981 
L 276.113031 115.855694 
L 269.552413 117.668127 
L 261.236676 119.953532 
L 260.049199 120.29084 
L 250.842319 122.812951 
L 248.449394 123.439174 
L 241.930195 125.237398 
L 237.304899 126.463394 
L 233.31424 127.578233 
L 227.48705 129.128939 
L 224.985154 129.831232 
L 218.916163 131.423092 
L 216.926117 131.975943 
L 211.499164 133.348113 
L 209.123306 133.995146 
L 205.040762 134.971908 
L 201.573077 135.886534 
L 199.342447 136.374196 
L 194.271803 137.643401 
L 194.173789 137.662092 
L 190.321529 138.338734 
L 187.093582 139.060079 
z
" clip-path="url(#p2c11c5be06)" style="fill: #bc2002"/>
    <path d="M 204.67068 129.788374 
L 204.015808 128.551723 
L 205.072469 127.111203 
L 206.656279 125.356095 
L 210.78655 121.580247 
L 212.131819 120.388586 
L 217.043465 116.379593 
L 221.219962 113.065162 
L 223.666255 111.201687 
L 230.616042 105.97281 
L 236.008377 101.93179 
L 237.839299 100.594524 
L 245.376824 95.119311 
L 253.17256 89.444115 
L 259.050324 85.169586 
L 261.258988 83.604632 
L 269.677108 77.648835 
L 278.376957 71.482215 
L 287.36428 65.096044 
L 296.645662 58.481951 
L 298.455565 57.192282 
L 306.298116 51.737938 
L 316.283713 44.786009 
L 326.5973 37.597363 
L 337.242446 30.155981 
L 348.249839 22.485488 
L 359.513676 14.405669 
L 360.412422 15.742874 
L 361.479371 17.344517 
L 362.58658 19.022341 
L 363.738484 20.786921 
L 364.940202 22.648445 
L 366.196193 24.615912 
L 367.509964 26.698801 
L 368.884698 28.906611 
L 370.323159 31.24874 
L 371.827657 33.734422 
L 373.400034 36.372727 
L 375.041721 39.17266 
L 376.753165 42.143768 
L 378.533645 45.294221 
L 380.383279 48.631801 
L 382.300201 52.165916 
L 384.282359 55.904553 
L 386.327055 59.85476 
L 388.43013 64.02496 
L 390.58811 68.422757 
L 392.795571 73.054646 
L 393.152755 73.82793 
L 389.089124 74.793747 
L 379.329943 77.048776 
L 366.472761 81.289943 
L 359.236623 83.570852 
L 353.911207 85.174317 
L 341.747671 88.950511 
L 331.778541 92.151926 
L 330.013667 92.689989 
L 318.574447 96.177247 
L 308.887747 99.299161 
L 307.578199 99.700207 
L 296.855291 102.978261 
L 289.57474 105.320634 
L 286.533145 106.257517 
L 276.523145 109.401234 
L 272.920974 110.545558 
L 266.823187 112.421764 
L 258.350295 115.168347 
L 257.490058 115.435024 
L 248.397191 118.236028 
L 246.175187 118.923214 
L 239.59169 120.920334 
L 235.66673 122.126406 
L 231.074208 123.501631 
L 226.626898 124.824485 
L 222.806105 125.92449 
L 219.043458 126.968204 
L 214.742852 128.123582 
L 212.710329 128.626895 
L 207.599074 129.773949 
L 206.708552 129.81563 
z
" clip-path="url(#p2c11c5be06)" style="fill: #920b01"/>
   </g>
   <g id="matplotlib.axis_1">
    <g id="xtick_1">
     <g id="line2d_1">
      <defs>
       <path id="m040f038657" d="M 0 0 
L 0 3.5 
" style="stroke: #000000; stroke-width: 0.8"/>
      </defs>
      <g>
       <use xlink:href="#m040f038657" x="94.159839" y="256.84" style="stroke: #000000; stroke-width: 0.8"/>
      </g>
     </g>
     <g id="text_1">
      <text style="font-size: 10px; font-family: 'DejaVu Sans', 'Bitstream Vera Sans', 'Computer Modern Sans Serif', 'Lucida Grande', 'Verdana', 'Geneva', 'Lucid', 'Arial', 'Helvetica', 'Avant Garde', sans-serif; text-anchor: middle" x="94.159839" y="271.438438" transform="rotate(-0 94.159839 271.438438)">0.25</text>
     </g>
    </g>
    <g id="xtick_2">
     <g id="line2d_2">
      <g>
       <use xlink:href="#m040f038657" x="147.292685" y="256.84" style="stroke: #000000; stroke-width: 0.8"/>
      </g>
     </g>
     <g id="text_2">
      <text style="font-size: 10px; font-family: 'DejaVu Sans', 'Bitstream Vera Sans', 'Computer Modern Sans Serif', 'Lucida Grande', 'Verdana', 'Geneva', 'Lucid', 'Arial', 'Helvetica', 'Avant Garde', sans-serif; text-anchor: middle" x="147.292685" y="271.438438" transform="rotate(-0 147.292685 271.438438)">0.50</text>
     </g>
    </g>
    <g id="xtick_3">
     <g id="line2d_3">
      <g>
       <use xlink:href="#m040f038657" x="200.425531" y="256.84" style="stroke: #000000; stroke-width: 0.8"/>
      </g>
     </g>
     <g id="text_3">
      <text style="font-size: 10px; font-family: 'DejaVu Sans', 'Bitstream Vera Sans', 'Computer Modern Sans Serif', 'Lucida Grande', 'Verdana', 'Geneva', 'Lucid', 'Arial', 'Helvetica', 'Avant Garde', sans-serif; text-anchor: middle" x="200.425531" y="271.438438" transform="rotate(-0 200.425531 271.438438)">0.75</text>
     </g>
    </g>
    <g id="xtick_4">
     <g id="line2d_4">
      <g>
       <use xlink:href="#m040f038657" x="253.558377" y="256.84" style="stroke: #000000; stroke-width: 0.8"/>
      </g>
     </g>
     <g id="text_4">
      <text style="font-size: 10px; font-family: 'DejaVu Sans', 'Bitstream Vera Sans', 'Computer Modern Sans Serif', 'Lucida Grande', 'Verdana', 'Geneva', 'Lucid', 'Arial', 'Helvetica', 'Avant Garde', sans-serif; text-anchor: middle" x="253.558377" y="271.438438" transform="rotate(-0 253.558377 271.438438)">1.00</text>
     </g>
    </g>
    <g id="xtick_5">
     <g id="line2d_5">
      <g>
       <use xlink:href="#m040f038657" x="306.691223" y="256.84" style="stroke: #000000; stroke-width: 0.8"/>
      </g>
     </g>
     <g id="text_5">
      <text style="font-size: 10px; font-family: 'DejaVu Sans', 'Bitstream Vera Sans', 'Computer Modern Sans Serif', 'Lucida Grande', 'Verdana', 'Geneva', 'Lucid', 'Arial', 'Helvetica', 'Avant Garde', sans-serif; text-anchor: middle" x="306.691223" y="271.438438" transform="rotate(-0 306.691223 271.438438)">1.25</text>
     </g>
    </g>
    <g id="xtick_6">
     <g id="line2d_6">
      <g>
       <use xlink:href="#m040f038657" x="359.824069" y="256.84" style="stroke: #000000; stroke-width: 0.8"/>
      </g>
     </g>
     <g id="text_6">
      <text style="font-size: 10px; font-family: 'DejaVu Sans', 'Bitstream Vera Sans', 'Computer Modern Sans Serif', 'Lucida Grande', 'Verdana', 'Geneva', 'Lucid', 'Arial', 'Helvetica', 'Avant Garde', sans-serif; text-anchor: middle" x="359.824069" y="271.438438" transform="rotate(-0 359.824069 271.438438)">1.50</text>
     </g>
    </g>
    <g id="xtick_7">
     <g id="line2d_7">
      <g>
       <use xlink:href="#m040f038657" x="412.956915" y="256.84" style="stroke: #000000; stroke-width: 0.8"/>
      </g>
     </g>
     <g id="text_7">
      <text style="font-size: 10px; font-family: 'DejaVu Sans', 'Bitstream Vera Sans', 'Computer Modern Sans Serif', 'Lucida Grande', 'Verdana', 'Geneva', 'Lucid', 'Arial', 'Helvetica', 'Avant Garde', sans-serif; text-anchor: middle" x="412.956915" y="271.438438" transform="rotate(-0 412.956915 271.438438)">1.75</text>
     </g>
    </g>
    <g id="text_8">
     <text style="font-size: 10px; font-family: 'DejaVu Sans', 'Bitstream Vera Sans', 'Computer Modern Sans Serif', 'Lucida Grande', 'Verdana', 'Geneva', 'Lucid', 'Arial', 'Helvetica', 'Avant Garde', sans-serif; text-anchor: middle" x="238.991447" y="285.116562" transform="rotate(-0 238.991447 285.116562)">x</text>
    </g>
   </g>
   <g id="matplotlib.axis_2">
    <g id="ytick_1">
     <g id="line2d_8">
      <defs>
       <path id="m5b9c78aaec" d="M 0 0 
L -3.5 0 
" style="stroke: #000000; stroke-width: 0.8"/>
      </defs>
      <g>
       <use xlink:href="#m5b9c78aaec" x="43.78125" y="216.507172" style="stroke: #000000; stroke-width: 0.8"/>
      </g>
     </g>
     <g id="text_9">
      <text style="font-size: 10px; font-family: 'DejaVu Sans', 'Bitstream Vera Sans', 'Computer Modern Sans Serif', 'Lucida Grande', 'Verdana', 'Geneva', 'Lucid', 'Arial', 'Helvetica', 'Avant Garde', sans-serif; text-anchor: end" x="36.78125" y="220.306391" transform="rotate(-0 36.78125 220.306391)">0.2</text>
     </g>
    </g>
    <g id="ytick_2">
     <g id="line2d_9">
      <g>
       <use xlink:href="#m5b9c78aaec" x="43.78125" y="174.000896" style="stroke: #000000; stroke-width: 0.8"/>
      </g>
     </g>
     <g id="text_10">
      <text style="font-size: 10px; font-family: 'DejaVu Sans', 'Bitstream Vera Sans', 'Computer Modern Sans Serif', 'Lucida Grande', 'Verdana', 'Geneva', 'Lucid', 'Arial', 'Helvetica', 'Avant Garde', sans-serif; text-anchor: end" x="36.78125" y="177.800114" transform="rotate(-0 36.78125 177.800114)">0.4</text>
     </g>
    </g>
    <g id="ytick_3">
     <g id="line2d_10">
      <g>
       <use xlink:href="#m5b9c78aaec" x="43.78125" y="131.494619" style="stroke: #000000; stroke-width: 0.8"/>
      </g>
     </g>
     <g id="text_11">
      <text style="font-size: 10px; font-family: 'DejaVu Sans', 'Bitstream Vera Sans', 'Computer Modern Sans Serif', 'Lucida Grande', 'Verdana', 'Geneva', 'Lucid', 'Arial', 'Helvetica', 'Avant Garde', sans-serif; text-anchor: end" x="36.78125" y="135.293838" transform="rotate(-0 36.78125 135.293838)">0.6</text>
     </g>
    </g>
    <g id="ytick_4">
     <g id="line2d_11">
      <g>
       <use xlink:href="#m5b9c78aaec" x="43.78125" y="88.988342" style="stroke: #000000; stroke-width: 0.8"/>
      </g>
     </g>
     <g id="text_12">
      <text style="font-size: 10px; font-family: 'DejaVu Sans', 'Bitstream Vera Sans', 'Computer Modern Sans Serif', 'Lucida Grande', 'Verdana', 'Geneva', 'Lucid', 'Arial', 'Helvetica', 'Avant Garde', sans-serif; text-anchor: end" x="36.78125" y="92.787561" transform="rotate(-0 36.78125 92.787561)">0.8</text>
     </g>
    </g>
    <g id="ytick_5">
     <g id="line2d_12">
      <g>
       <use xlink:href="#m5b9c78aaec" x="43.78125" y="46.482066" style="stroke: #000000; stroke-width: 0.8"/>
      </g>
     </g>
     <g id="text_13">
      <text style="font-size: 10px; font-family: 'DejaVu Sans', 'Bitstream Vera Sans', 'Computer Modern Sans Serif', 'Lucida Grande', 'Verdana', 'Geneva', 'Lucid', 'Arial', 'Helvetica', 'Avant Garde', sans-serif; text-anchor: end" x="36.78125" y="50.281284" transform="rotate(-0 36.78125 50.281284)">1.0</text>
     </g>
    </g>
    <g id="text_14">
     <text style="font-size: 10px; font-family: 'DejaVu Sans', 'Bitstream Vera Sans', 'Computer Modern Sans Serif', 'Lucida Grande', 'Verdana', 'Geneva', 'Lucid', 'Arial', 'Helvetica', 'Avant Garde', sans-serif; text-anchor: middle" x="14.798438" y="132.02" transform="rotate(-90 14.798438 132.02)">y</text>
    </g>
   </g>
   <g id="patch_3">
    <path d="M 43.78125 256.84 
L 43.78125 7.2 
" style="fill: none; stroke: #000000; stroke-width: 0.8; stroke-linejoin: miter; stroke-linecap: square"/>
   </g>
   <g id="patch_4">
    <path d="M 434.201645 256.84 
L 434.201645 7.2 
" style="fill: none; stroke: #000000; stroke-width: 0.8; stroke-linejoin: miter; stroke-linecap: square"/>
   </g>
   <g id="patch_5">
    <path d="M 43.78125 256.84 
L 434.201645 256.84 
" style="fill: none; stroke: #000000; stroke-width: 0.8; stroke-linejoin: miter; stroke-linecap: square"/>
   </g>
   <g id="patch_6">
    <path d="M 43.78125 7.2 
L 434.201645 7.2 
" style="fill: none; stroke: #000000; stroke-width: 0.8; stroke-linejoin: miter; stroke-linecap: square"/>
   </g>
  </g>
  <g id="axes_2">
   <g id="patch_7">
    <path d="M 465.521645 256.84 
L 478.003645 256.84 
L 478.003645 7.2 
L 465.521645 7.2 
L 465.521645 256.84 
z
" style="fill: none"/>
   </g>
   <g id="QuadMesh_1">
    <path d="M 465.521645 256.84 
L 478.003645 256.84 
L 478.003645 242.155294 
L 465.521645 242.155294 
L 465.521645 256.84 
" clip-path="url(#p3646e27985)" style="fill: #38276d"/>
    <path d="M 465.521645 242.155294 
L 478.003645 242.155294 
L 478.003645 227.470588 
L 465.521645 227.470588 
L 465.521645 242.155294 
" clip-path="url(#p3646e27985)" style="fill: #4451bf"/>
    <path d="M 465.521645 227.470588 
L 478.003645 227.470588 
L 478.003645 212.785882 
L 465.521645 212.785882 
L 465.521645 227.470588 
" clip-path="url(#p3646e27985)" style="fill: #4778f0"/>
    <path d="M 465.521645 212.785882 
L 478.003645 212.785882 
L 478.003645 198.101176 
L 465.521645 198.101176 
L 465.521645 212.785882 
" clip-path="url(#p3646e27985)" style="fill: #3d9efe"/>
    <path d="M 465.521645 198.101176 
L 478.003645 198.101176 
L 478.003645 183.416471 
L 465.521645 183.416471 
L 465.521645 198.101176 
" clip-path="url(#p3646e27985)" style="fill: #23c3e4"/>
    <path d="M 465.521645 183.416471 
L 478.003645 183.416471 
L 478.003645 168.731765 
L 465.521645 168.731765 
L 465.521645 183.416471 
" clip-path="url(#p3646e27985)" style="fill: #18e0bd"/>
    <path d="M 465.521645 168.731765 
L 478.003645 168.731765 
L 478.003645 154.047059 
L 465.521645 154.047059 
L 465.521645 168.731765 
" clip-path="url(#p3646e27985)" style="fill: #35f394"/>
    <path d="M 465.521645 154.047059 
L 478.003645 154.047059 
L 478.003645 139.362353 
L 465.521645 139.362353 
L 465.521645 154.047059 
" clip-path="url(#p3646e27985)" style="fill: #6dfe62"/>
    <path d="M 465.521645 139.362353 
L 478.003645 139.362353 
L 478.003645 124.677647 
L 465.521645 124.677647 
L 465.521645 139.362353 
" clip-path="url(#p3646e27985)" style="fill: #a4fc3c"/>
    <path d="M 465.521645 124.677647 
L 478.003645 124.677647 
L 478.003645 109.992941 
L 465.521645 109.992941 
L 465.521645 124.677647 
" clip-path="url(#p3646e27985)" style="fill: #cbed34"/>
    <path d="M 465.521645 109.992941 
L 478.003645 109.992941 
L 478.003645 95.308235 
L 465.521645 95.308235 
L 465.521645 109.992941 
" clip-path="url(#p3646e27985)" style="fill: #ebd339"/>
    <path d="M 465.521645 95.308235 
L 478.003645 95.308235 
L 478.003645 80.623529 
L 465.521645 80.623529 
L 465.521645 95.308235 
" clip-path="url(#p3646e27985)" style="fill: #fcb336"/>
    <path d="M 465.521645 80.623529 
L 478.003645 80.623529 
L 478.003645 65.938824 
L 465.521645 65.938824 
L 465.521645 80.623529 
" clip-path="url(#p3646e27985)" style="fill: #fd8a26"/>
    <path d="M 465.521645 65.938824 
L 478.003645 65.938824 
L 478.003645 51.254118 
L 465.521645 51.254118 
L 465.521645 65.938824 
" clip-path="url(#p3646e27985)" style="fill: #f15d13"/>
    <path d="M 465.521645 51.254118 
L 478.003645 51.254118 
L 478.003645 36.569412 
L 465.521645 36.569412 
L 465.521645 51.254118 
" clip-path="url(#p3646e27985)" style="fill: #dc3b07"/>
    <path d="M 465.521645 36.569412 
L 478.003645 36.569412 
L 478.003645 21.884706 
L 465.521645 21.884706 
L 465.521645 36.569412 
" clip-path="url(#p3646e27985)" style="fill: #bc2002"/>
    <path d="M 465.521645 21.884706 
L 478.003645 21.884706 
L 478.003645 7.2 
L 465.521645 7.2 
L 465.521645 21.884706 
" clip-path="url(#p3646e27985)" style="fill: #920b01"/>
   </g>
   <g id="matplotlib.axis_3"/>
   <g id="matplotlib.axis_4">
    <g id="ytick_6">
     <g id="line2d_13">
      <defs>
       <path id="m383190bbcd" d="M 0 0 
L 3.5 0 
" style="stroke: #000000; stroke-width: 0.8"/>
      </defs>
      <g>
       <use xlink:href="#m383190bbcd" x="478.003645" y="256.84" style="stroke: #000000; stroke-width: 0.8"/>
      </g>
     </g>
     <g id="text_15">
      <text style="font-size: 10px; font-family: 'DejaVu Sans', 'Bitstream Vera Sans', 'Computer Modern Sans Serif', 'Lucida Grande', 'Verdana', 'Geneva', 'Lucid', 'Arial', 'Helvetica', 'Avant Garde', sans-serif; text-anchor: start" x="485.003645" y="260.639219" transform="rotate(-0 485.003645 260.639219)">2.000</text>
     </g>
    </g>
    <g id="ytick_7">
     <g id="line2d_14">
      <g>
       <use xlink:href="#m383190bbcd" x="478.003645" y="227.470588" style="stroke: #000000; stroke-width: 0.8"/>
      </g>
     </g>
     <g id="text_16">
      <text style="font-size: 10px; font-family: 'DejaVu Sans', 'Bitstream Vera Sans', 'Computer Modern Sans Serif', 'Lucida Grande', 'Verdana', 'Geneva', 'Lucid', 'Arial', 'Helvetica', 'Avant Garde', sans-serif; text-anchor: start" x="485.003645" y="231.269807" transform="rotate(-0 485.003645 231.269807)">2.199</text>
     </g>
    </g>
    <g id="ytick_8">
     <g id="line2d_15">
      <g>
       <use xlink:href="#m383190bbcd" x="478.003645" y="198.101176" style="stroke: #000000; stroke-width: 0.8"/>
      </g>
     </g>
     <g id="text_17">
      <text style="font-size: 10px; font-family: 'DejaVu Sans', 'Bitstream Vera Sans', 'Computer Modern Sans Serif', 'Lucida Grande', 'Verdana', 'Geneva', 'Lucid', 'Arial', 'Helvetica', 'Avant Garde', sans-serif; text-anchor: start" x="485.003645" y="201.900395" transform="rotate(-0 485.003645 201.900395)">2.399</text>
     </g>
    </g>
    <g id="ytick_9">
     <g id="line2d_16">
      <g>
       <use xlink:href="#m383190bbcd" x="478.003645" y="168.731765" style="stroke: #000000; stroke-width: 0.8"/>
      </g>
     </g>
     <g id="text_18">
      <text style="font-size: 10px; font-family: 'DejaVu Sans', 'Bitstream Vera Sans', 'Computer Modern Sans Serif', 'Lucida Grande', 'Verdana', 'Geneva', 'Lucid', 'Arial', 'Helvetica', 'Avant Garde', sans-serif; text-anchor: start" x="485.003645" y="172.530983" transform="rotate(-0 485.003645 172.530983)">2.598</text>
     </g>
    </g>
    <g id="ytick_10">
     <g id="line2d_17">
      <g>
       <use xlink:href="#m383190bbcd" x="478.003645" y="139.362353" style="stroke: #000000; stroke-width: 0.8"/>
      </g>
     </g>
     <g id="text_19">
      <text style="font-size: 10px; font-family: 'DejaVu Sans', 'Bitstream Vera Sans', 'Computer Modern Sans Serif', 'Lucida Grande', 'Verdana', 'Geneva', 'Lucid', 'Arial', 'Helvetica', 'Avant Garde', sans-serif; text-anchor: start" x="485.003645" y="143.161572" transform="rotate(-0 485.003645 143.161572)">2.798</text>
     </g>
    </g>
    <g id="ytick_11">
     <g id="line2d_18">
      <g>
       <use xlink:href="#m383190bbcd" x="478.003645" y="109.992941" style="stroke: #000000; stroke-width: 0.8"/>
      </g>
     </g>
     <g id="text_20">
      <text style="font-size: 10px; font-family: 'DejaVu Sans', 'Bitstream Vera Sans', 'Computer Modern Sans Serif', 'Lucida Grande', 'Verdana', 'Geneva', 'Lucid', 'Arial', 'Helvetica', 'Avant Garde', sans-serif; text-anchor: start" x="485.003645" y="113.79216" transform="rotate(-0 485.003645 113.79216)">2.997</text>
     </g>
    </g>
    <g id="ytick_12">
     <g id="line2d_19">
      <g>
       <use xlink:href="#m383190bbcd" x="478.003645" y="80.623529" style="stroke: #000000; stroke-width: 0.8"/>
      </g>
     </g>
     <g id="text_21">
      <text style="font-size: 10px; font-family: 'DejaVu Sans', 'Bitstream Vera Sans', 'Computer Modern Sans Serif', 'Lucida Grande', 'Verdana', 'Geneva', 'Lucid', 'Arial', 'Helvetica', 'Avant Garde', sans-serif; text-anchor: start" x="485.003645" y="84.422748" transform="rotate(-0 485.003645 84.422748)">3.196</text>
     </g>
    </g>
    <g id="ytick_13">
     <g id="line2d_20">
      <g>
       <use xlink:href="#m383190bbcd" x="478.003645" y="51.254118" style="stroke: #000000; stroke-width: 0.8"/>
      </g>
     </g>
     <g id="text_22">
      <text style="font-size: 10px; font-family: 'DejaVu Sans', 'Bitstream Vera Sans', 'Computer Modern Sans Serif', 'Lucida Grande', 'Verdana', 'Geneva', 'Lucid', 'Arial', 'Helvetica', 'Avant Garde', sans-serif; text-anchor: start" x="485.003645" y="55.053336" transform="rotate(-0 485.003645 55.053336)">3.396</text>
     </g>
    </g>
    <g id="ytick_14">
     <g id="line2d_21">
      <g>
       <use xlink:href="#m383190bbcd" x="478.003645" y="21.884706" style="stroke: #000000; stroke-width: 0.8"/>
      </g>
     </g>
     <g id="text_23">
      <text style="font-size: 10px; font-family: 'DejaVu Sans', 'Bitstream Vera Sans', 'Computer Modern Sans Serif', 'Lucida Grande', 'Verdana', 'Geneva', 'Lucid', 'Arial', 'Helvetica', 'Avant Garde', sans-serif; text-anchor: start" x="485.003645" y="25.683925" transform="rotate(-0 485.003645 25.683925)">3.595</text>
     </g>
    </g>
    <g id="text_24">
     <text style="font-size: 10px; font-family: 'DejaVu Sans', 'Bitstream Vera Sans', 'Computer Modern Sans Serif', 'Lucida Grande', 'Verdana', 'Geneva', 'Lucid', 'Arial', 'Helvetica', 'Avant Garde', sans-serif; text-anchor: middle" x="525.230207" y="132.02" transform="rotate(-90 525.230207 132.02)">Mach</text>
    </g>
   </g>
   <g id="LineCollection_1"/>
   <g id="patch_8">
    <path d="M 465.521645 256.84 
L 471.762645 256.84 
L 478.003645 256.84 
L 478.003645 7.2 
L 471.762645 7.2 
L 465.521645 7.2 
L 465.521645 256.84 
z
" style="fill: none; stroke: #000000; stroke-width: 0.8; stroke-linejoin: miter; stroke-linecap: square"/>
   </g>
  </g>
 </g>
 <defs>
  <clipPath id="p2c11c5be06">
   <rect x="43.78125" y="7.2" width="390.420395" height="249.64"/>
  </clipPath>
  <clipPath id="p3646e27985">
   <rect x="465.521645" y="7.2" width="12.482" height="249.64"/>
  </clipPath>
 </defs>
</svg>
