<?xml version="1.0" encoding="utf-8" standalone="no"?>
<!DOCTYPE svg PUBLIC "-//W3C//DTD SVG 1.1//EN"
  "http://www.w3.org/Graphics/SVG/1.1/DTD/svg11.dtd">
<svg xmlns:xlink="http://www.w3.org/1999/xlink" width="449.554687pt" height="325.755469pt" viewBox="0 0 449.554687 325.755469" xmlns="http://www.w3.org/2000/svg" version="1.1">
 <metadata>
  <rdf:RDF xmlns:dc="http://purl.org/dc/elements/1.1/" xmlns:cc="http://creativecommons.org/ns#" xmlns:rdf="http://www.w3.org/1999/02/22-rdf-syntax-ns#">
   <cc:Work>
    <dc:type rdf:resource="http://purl.org/dc/dcmitype/StillImage"/>
    <dc:date>2026-04-15T21:47:11.144759</dc:date>
    <dc:format>image/svg+xml</dc:format>
    <dc:creator>
     <cc:Agent>
      <dc:title>Matplotlib v3.9.2, https://matplotlib.org/</dc:title>
     </cc:Agent>
    </dc:creator>
   </cc:Work>
  </rdf:RDF>
 </metadata>
 <defs>
  <style type="text/css">*{stroke-linejoin: round; stroke-linecap: butt}</style>
 </defs>
 <g id="figure_1">
  <g id="patch_1">
   <path d="M 0 325.755469 
L 449.554687 325.755469 
L 449.554687 0 
L 0 0 
L 0 325.755469 
z
" style="fill: none"/>
  </g>
  <g id="axes_1">
   <g id="patch_2">
    <path d="M 43.803125 288.199219 
L 434.403125 288.199219 
L 434.403125 10.999219 
L 43.803125 10.999219 
L 43.803125 288.199219 
z
" style="fill: none"/>
   </g>
   <g id="PolyCollection_1">
    <path d="M 43.803125 288.199219 
L 43.803125 288.199219 
L 44.455212 287.643893 
L 45.107299 287.088568 
L 45.759385 286.533242 
L 46.411472 285.977917 
L 47.063559 285.422591 
L 47.715646 284.867265 
L 48.367733 284.31194 
L 49.019819 283.756614 
L 49.671906 283.201289 
L 50.323993 282.645963 
L 50.97608 282.090638 
L 51.628167 281.535312 
L 52.280254 280.979987 
L 52.93234 280.424661 
L 53.584427 279.869336 
L 54.236514 279.31401 
L 54.888601 278.758685 
L 55.540688 278.203359 
L 56.192774 277.648033 
L 56.844861 277.092708 
L 57.496948 276.537382 
L 58.149035 275.982057 
L 58.801122 275.426731 
L 59.453208 274.871406 
L 60.105295 274.31608 
L 60.757382 273.760755 
L 61.409469 273.205429 
L 62.061556 272.650104 
L 62.713643 272.094778 
L 63.365729 271.539452 
L 64.017816 270.984127 
L 64.669903 270.428801 
L 65.32199 269.873476 
L 65.974077 269.31815 
L 66.626163 268.762825 
L 67.27825 268.207499 
L 67.930337 267.652174 
L 68.582424 267.096848 
L 69.234511 266.541523 
L 69.886597 265.986197 
L 70.538684 265.430872 
L 71.190771 264.875546 
L 71.842858 264.32022 
L 72.494945 263.764895 
L 73.147032 263.209569 
L 73.799118 262.654244 
L 74.451205 262.098918 
L 75.103292 261.543593 
L 75.755379 260.988267 
L 76.407466 260.432942 
L 77.059552 259.877616 
L 77.711639 259.322291 
L 78.363726 258.766965 
L 79.015813 258.211639 
L 79.6679 257.656314 
L 80.319986 257.100988 
L 80.972073 256.545663 
L 81.62416 255.990337 
L 82.276247 255.435012 
L 82.928334 254.879686 
L 83.58042 254.324361 
L 84.232507 253.769035 
L 84.884594 253.21371 
L 85.536681 252.658384 
L 86.188768 252.103058 
L 86.840855 251.547733 
L 87.492941 250.992407 
L 88.145028 250.437082 
L 88.797115 249.881756 
L 89.449202 249.326431 
L 90.101289 248.771105 
L 90.753375 248.21578 
L 91.405462 247.660454 
L 92.057549 247.105129 
L 92.709636 246.549803 
L 93.361723 245.994478 
L 94.013809 245.439152 
L 94.665896 244.883826 
L 95.317983 244.328501 
L 95.97007 243.773175 
L 96.622157 243.21785 
L 97.274244 242.662524 
L 97.92633 242.107199 
L 98.578417 241.551873 
L 99.230504 240.996548 
L 99.882591 240.441222 
L 100.534678 239.885897 
L 101.186764 239.330571 
L 101.838851 238.775245 
L 102.490938 238.21992 
L 103.143025 237.664594 
L 103.795112 237.109269 
L 104.447198 236.553943 
L 105.099285 235.998618 
L 105.751372 235.443292 
L 106.403459 234.887967 
L 107.055546 234.332641 
L 107.707633 233.777316 
L 108.359719 233.22199 
L 109.011806 232.666664 
L 109.663893 232.111339 
L 110.31598 231.556013 
L 110.968067 231.000688 
L 111.620153 230.445362 
L 112.27224 229.890037 
L 112.924327 229.334711 
L 113.576414 228.779386 
L 114.228501 228.22406 
L 114.880587 227.668735 
L 115.532674 227.113409 
L 116.184761 226.558084 
L 116.836848 226.002758 
L 117.488935 225.447432 
L 118.141021 224.892107 
L 118.793108 224.336781 
L 119.445195 223.781456 
L 120.097282 223.22613 
L 120.749369 222.670805 
L 121.401456 222.115479 
L 122.053542 221.560154 
L 122.705629 221.004828 
L 123.357716 220.449503 
L 124.009803 219.894177 
L 124.66189 219.338851 
L 125.313976 218.783526 
L 125.966063 218.2282 
L 126.61815 217.672875 
L 127.270237 217.117549 
L 127.922324 216.562224 
L 128.57441 216.006898 
L 129.226497 215.451573 
L 129.878584 214.896247 
L 130.530671 214.340922 
L 131.182758 213.785596 
L 131.834845 213.230271 
L 132.486931 212.674945 
L 133.139018 212.119619 
L 133.791105 211.564294 
L 134.443192 211.008968 
L 135.095279 210.453643 
L 135.747365 209.898317 
L 136.399452 209.342992 
L 137.051539 208.787666 
L 137.703626 208.232341 
L 138.355713 207.677015 
L 139.007799 207.12169 
L 139.659886 206.566364 
L 140.311973 206.011038 
L 140.96406 205.455713 
L 141.616147 204.900387 
L 142.268234 204.345062 
L 142.92032 203.789736 
L 143.572407 203.234411 
L 144.224494 202.679085 
L 144.876581 202.12376 
L 145.528668 201.568434 
L 146.180754 201.013109 
L 146.832841 200.457783 
L 147.484928 199.902457 
L 148.137015 199.347132 
L 148.789102 198.791806 
L 149.441188 198.236481 
L 150.093275 197.681155 
L 150.745362 197.12583 
L 151.397449 196.570504 
L 152.049536 196.015179 
L 152.701622 195.459853 
L 153.353709 194.904528 
L 154.005796 194.349202 
L 154.657883 193.793877 
L 155.30997 193.238551 
L 155.962057 192.683225 
L 156.614143 192.1279 
L 157.26623 191.572574 
L 157.918317 191.017249 
L 158.570404 190.461923 
L 159.222491 189.906598 
L 159.874577 189.351272 
L 160.526664 188.795947 
L 161.178751 188.240621 
L 161.830838 187.685296 
L 162.482925 187.12997 
L 163.135011 186.574644 
L 163.787098 186.019319 
L 164.439185 185.463993 
L 165.091272 184.908668 
L 165.743359 184.353342 
L 166.395446 183.798017 
L 167.047532 183.242691 
L 167.699619 182.687366 
L 168.351706 182.13204 
L 169.003793 181.576715 
L 169.65588 181.021389 
L 170.307966 180.466063 
L 170.960053 179.910738 
L 171.61214 179.355412 
L 172.264227 178.800087 
L 172.916314 178.244761 
L 173.5684 177.689436 
L 174.220487 177.319219 
L 174.872574 177.319219 
L 175.524661 177.319219 
L 176.176748 177.319219 
L 176.828835 177.319219 
L 177.480921 177.319219 
L 178.133008 177.319219 
L 178.785095 177.319219 
L 179.437182 177.319219 
L 180.089269 177.319219 
L 180.741355 177.319219 
L 181.393442 177.319219 
L 182.045529 177.319219 
L 182.697616 177.319219 
L 183.349703 177.319219 
L 184.001789 177.319219 
L 184.653876 177.319219 
L 185.305963 177.319219 
L 185.95805 177.319219 
L 186.610137 177.319219 
L 187.262223 177.319219 
L 187.91431 177.319219 
L 188.566397 177.319219 
L 189.218484 177.319219 
L 189.870571 177.319219 
L 190.522658 177.319219 
L 191.174744 177.319219 
L 191.826831 177.319219 
L 192.478918 177.319219 
L 193.131005 177.319219 
L 193.783092 177.319219 
L 194.435178 177.319219 
L 195.087265 177.319219 
L 195.739352 177.319219 
L 196.391439 177.319219 
L 197.043526 177.319219 
L 197.695612 177.319219 
L 198.347699 177.319219 
L 198.999786 177.319219 
L 199.651873 177.319219 
L 200.30396 177.319219 
L 200.956047 177.319219 
L 201.608133 177.319219 
L 202.26022 177.319219 
L 202.912307 177.319219 
L 203.564394 177.319219 
L 204.216481 177.319219 
L 204.868567 177.319219 
L 205.520654 177.319219 
L 206.172741 177.319219 
L 206.824828 177.319219 
L 207.476915 177.319219 
L 208.129001 177.319219 
L 208.781088 177.319219 
L 209.433175 177.319219 
L 210.085262 177.319219 
L 210.737349 177.319219 
L 211.389436 177.319219 
L 212.041522 177.319219 
L 212.693609 177.319219 
L 213.345696 177.319219 
L 213.997783 177.319219 
L 214.64987 177.319219 
L 215.301956 177.319219 
L 215.954043 177.319219 
L 216.60613 177.319219 
L 217.258217 177.319219 
L 217.910304 177.319219 
L 218.56239 177.319219 
L 219.214477 177.319219 
L 219.866564 177.319219 
L 220.518651 177.319219 
L 221.170738 177.319219 
L 221.822824 177.319219 
L 222.474911 177.319219 
L 223.126998 177.319219 
L 223.779085 177.319219 
L 224.431172 177.319219 
L 225.083259 177.319219 
L 225.735345 177.319219 
L 226.387432 177.319219 
L 227.039519 177.319219 
L 227.691606 177.319219 
L 228.343693 177.319219 
L 228.995779 177.319219 
L 229.647866 177.319219 
L 230.299953 177.319219 
L 230.95204 177.319219 
L 231.604127 177.319219 
L 232.256213 177.319219 
L 232.9083 177.319219 
L 233.560387 177.319219 
L 234.212474 177.319219 
L 234.864561 177.319219 
L 235.516648 177.319219 
L 236.168734 177.319219 
L 236.820821 177.319219 
L 237.472908 177.319219 
L 238.124995 177.319219 
L 238.777082 177.319219 
L 239.429168 177.319219 
L 240.081255 177.319219 
L 240.733342 177.319219 
L 241.385429 177.319219 
L 242.037516 177.319219 
L 242.689602 177.319219 
L 243.341689 177.319219 
L 243.993776 177.319219 
L 244.645863 177.319219 
L 245.29795 177.319219 
L 245.950037 177.319219 
L 246.602123 177.319219 
L 247.25421 177.319219 
L 247.906297 177.319219 
L 248.558384 177.319219 
L 249.210471 177.319219 
L 249.862557 177.319219 
L 250.514644 177.319219 
L 251.166731 177.319219 
L 251.818818 177.319219 
L 252.470905 177.319219 
L 253.122991 177.319219 
L 253.775078 177.319219 
L 254.427165 177.319219 
L 255.079252 177.319219 
L 255.731339 177.319219 
L 256.383426 177.319219 
L 257.035512 177.319219 
L 257.687599 177.319219 
L 258.339686 177.319219 
L 258.991773 177.319219 
L 259.64386 177.319219 
L 260.295946 177.319219 
L 260.948033 177.319219 
L 261.60012 177.319219 
L 262.252207 177.319219 
L 262.904294 177.319219 
L 263.55638 177.319219 
L 264.208467 177.319219 
L 264.860554 177.319219 
L 265.512641 177.319219 
L 266.164728 177.319219 
L 266.816814 177.319219 
L 267.468901 177.319219 
L 268.120988 177.319219 
L 268.773075 177.319219 
L 269.425162 177.319219 
L 270.077249 177.319219 
L 270.729335 177.319219 
L 271.381422 177.319219 
L 272.033509 177.319219 
L 272.685596 177.319219 
L 273.337683 177.319219 
L 273.989769 177.319219 
L 274.641856 177.319219 
L 275.293943 177.319219 
L 275.94603 177.319219 
L 276.598117 177.319219 
L 277.250203 177.319219 
L 277.90229 177.319219 
L 278.554377 177.319219 
L 279.206464 177.319219 
L 279.858551 177.319219 
L 280.510638 177.319219 
L 281.162724 177.319219 
L 281.814811 177.319219 
L 282.466898 177.319219 
L 283.118985 177.319219 
L 283.771072 177.319219 
L 284.423158 177.319219 
L 285.075245 177.319219 
L 285.727332 177.319219 
L 286.379419 177.319219 
L 287.031506 177.319219 
L 287.683592 177.319219 
L 288.335679 177.319219 
L 288.987766 177.319219 
L 289.639853 177.319219 
L 290.29194 177.319219 
L 290.944027 177.319219 
L 291.596113 177.319219 
L 292.2482 177.319219 
L 292.900287 177.319219 
L 293.552374 177.319219 
L 294.204461 177.319219 
L 294.856547 177.319219 
L 295.508634 177.319219 
L 296.160721 177.319219 
L 296.812808 177.319219 
L 297.464895 177.319219 
L 298.116981 177.319219 
L 298.769068 177.319219 
L 299.421155 177.319219 
L 300.073242 177.319219 
L 300.725329 177.319219 
L 301.377415 177.319219 
L 302.029502 177.319219 
L 302.681589 177.319219 
L 303.333676 177.319219 
L 303.985763 177.319219 
L 304.63785 177.319219 
L 305.289936 177.319219 
L 305.942023 177.319219 
L 306.59411 177.319219 
L 307.246197 177.319219 
L 307.898284 177.319219 
L 308.55037 177.319219 
L 309.202457 177.319219 
L 309.854544 177.319219 
L 310.506631 177.319219 
L 311.158718 177.319219 
L 311.810804 177.319219 
L 312.462891 177.319219 
L 313.114978 177.319219 
L 313.767065 177.319219 
L 314.419152 177.319219 
L 315.071239 177.319219 
L 315.723325 177.319219 
L 316.375412 177.319219 
L 317.027499 177.319219 
L 317.679586 177.319219 
L 318.331673 177.319219 
L 318.983759 177.319219 
L 319.635846 177.319219 
L 320.287933 177.319219 
L 320.94002 177.319219 
L 321.592107 177.319219 
L 322.244193 177.319219 
L 322.89628 177.319219 
L 323.548367 177.319219 
L 324.200454 177.319219 
L 324.852541 177.319219 
L 325.504628 177.319219 
L 326.156714 177.319219 
L 326.808801 177.319219 
L 327.460888 177.319219 
L 328.112975 177.319219 
L 328.765062 177.319219 
L 329.417148 177.319219 
L 330.069235 177.319219 
L 330.721322 177.319219 
L 331.373409 177.319219 
L 332.025496 177.319219 
L 332.677582 177.319219 
L 333.329669 177.319219 
L 333.981756 177.319219 
L 334.633843 177.319219 
L 335.28593 177.319219 
L 335.938016 177.319219 
L 336.590103 177.319219 
L 337.24219 177.319219 
L 337.894277 177.319219 
L 338.546364 177.319219 
L 339.198451 177.319219 
L 339.850537 177.319219 
L 340.502624 177.319219 
L 341.154711 177.319219 
L 341.806798 177.319219 
L 342.458885 177.319219 
L 343.110971 177.319219 
L 343.763058 177.319219 
L 344.415145 177.319219 
L 345.067232 177.319219 
L 345.719319 177.319219 
L 346.371405 177.319219 
L 347.023492 177.319219 
L 347.675579 177.319219 
L 348.327666 177.319219 
L 348.979753 177.319219 
L 349.63184 177.319219 
L 350.283926 177.319219 
L 350.936013 177.319219 
L 351.5881 177.319219 
L 352.240187 177.319219 
L 352.892274 177.319219 
L 353.54436 177.319219 
L 354.196447 177.319219 
L 354.848534 177.319219 
L 355.500621 177.319219 
L 356.152708 177.319219 
L 356.804794 177.319219 
L 357.456881 177.319219 
L 358.108968 177.319219 
L 358.761055 177.319219 
L 359.413142 177.319219 
L 360.065229 177.319219 
L 360.717315 177.319219 
L 361.369402 177.319219 
L 362.021489 177.319219 
L 362.673576 177.319219 
L 363.325663 177.319219 
L 363.977749 177.319219 
L 364.629836 177.319219 
L 365.281923 177.319219 
L 365.93401 177.319219 
L 366.586097 177.319219 
L 367.238183 177.319219 
L 367.89027 177.319219 
L 368.542357 177.319219 
L 369.194444 177.319219 
L 369.846531 177.319219 
L 370.498617 177.319219 
L 371.150704 177.319219 
L 371.802791 177.319219 
L 372.454878 177.319219 
L 373.106965 177.319219 
L 373.759052 177.319219 
L 374.411138 177.319219 
L 375.063225 177.319219 
L 375.715312 177.319219 
L 376.367399 177.319219 
L 377.019486 177.319219 
L 377.671572 177.319219 
L 378.323659 177.319219 
L 378.975746 177.319219 
L 379.627833 177.319219 
L 380.27992 177.319219 
L 380.932006 177.319219 
L 381.584093 177.319219 
L 382.23618 177.319219 
L 382.888267 177.319219 
L 383.540354 177.319219 
L 384.192441 177.319219 
L 384.844527 177.319219 
L 385.496614 177.319219 
L 386.148701 177.319219 
L 386.800788 177.319219 
L 387.452875 177.319219 
L 388.104961 177.319219 
L 388.757048 177.319219 
L 389.409135 177.319219 
L 390.061222 177.319219 
L 390.713309 177.319219 
L 391.365395 177.319219 
L 392.017482 177.319219 
L 392.669569 177.319219 
L 393.321656 177.319219 
L 393.973743 177.319219 
L 394.62583 177.319219 
L 395.277916 177.319219 
L 395.930003 177.319219 
L 396.58209 177.319219 
L 397.234177 177.319219 
L 397.886264 177.319219 
L 398.53835 177.319219 
L 399.190437 177.319219 
L 399.842524 177.319219 
L 400.494611 177.319219 
L 401.146698 177.319219 
L 401.798784 177.319219 
L 402.450871 177.319219 
L 403.102958 177.319219 
L 403.755045 177.319219 
L 404.407132 177.319219 
L 405.059218 177.319219 
L 405.711305 177.319219 
L 406.363392 177.319219 
L 407.015479 177.319219 
L 407.667566 177.319219 
L 408.319653 177.319219 
L 408.971739 177.319219 
L 409.623826 177.319219 
L 410.275913 177.319219 
L 410.928 177.319219 
L 411.580087 177.319219 
L 412.232173 177.319219 
L 412.88426 177.319219 
L 413.536347 177.319219 
L 414.188434 177.319219 
L 414.840521 177.319219 
L 415.492607 177.319219 
L 416.144694 177.319219 
L 416.796781 177.319219 
L 417.448868 177.319219 
L 418.100955 177.319219 
L 418.753042 177.319219 
L 419.405128 177.319219 
L 420.057215 177.319219 
L 420.709302 177.319219 
L 421.361389 177.319219 
L 422.013476 177.319219 
L 422.665562 177.319219 
L 423.317649 177.319219 
L 423.969736 177.319219 
L 424.621823 177.319219 
L 425.27391 177.319219 
L 425.925996 177.319219 
L 426.578083 177.319219 
L 427.23017 177.319219 
L 427.882257 177.319219 
L 428.534344 177.319219 
L 429.186431 177.319219 
L 429.838517 177.319219 
L 430.490604 177.319219 
L 431.142691 177.319219 
L 431.794778 177.319219 
L 432.446865 177.319219 
L 433.098951 177.319219 
L 433.751038 177.319219 
L 434.403125 177.319219 
L 434.403125 66.439219 
L 434.403125 66.439219 
L 433.751038 66.439219 
L 433.098951 66.439219 
L 432.446865 66.439219 
L 431.794778 66.439219 
L 431.142691 66.439219 
L 430.490604 66.439219 
L 429.838517 66.439219 
L 429.186431 66.439219 
L 428.534344 66.439219 
L 427.882257 66.439219 
L 427.23017 66.439219 
L 426.578083 66.439219 
L 425.925996 66.439219 
L 425.27391 66.439219 
L 424.621823 66.439219 
L 423.969736 66.439219 
L 423.317649 66.439219 
L 422.665562 66.439219 
L 422.013476 66.439219 
L 421.361389 66.439219 
L 420.709302 66.439219 
L 420.057215 66.439219 
L 419.405128 66.439219 
L 418.753042 66.439219 
L 418.100955 66.439219 
L 417.448868 66.439219 
L 416.796781 66.439219 
L 416.144694 66.439219 
L 415.492607 66.439219 
L 414.840521 66.439219 
L 414.188434 66.439219 
L 413.536347 66.439219 
L 412.88426 66.439219 
L 412.232173 66.439219 
L 411.580087 66.439219 
L 410.928 66.439219 
L 410.275913 66.439219 
L 409.623826 66.439219 
L 408.971739 66.439219 
L 408.319653 66.439219 
L 407.667566 66.439219 
L 407.015479 66.439219 
L 406.363392 66.439219 
L 405.711305 66.439219 
L 405.059218 66.439219 
L 404.407132 66.439219 
L 403.755045 66.439219 
L 403.102958 66.439219 
L 402.450871 66.439219 
L 401.798784 66.439219 
L 401.146698 66.439219 
L 400.494611 66.439219 
L 399.842524 66.439219 
L 399.190437 66.439219 
L 398.53835 66.439219 
L 397.886264 66.439219 
L 397.234177 66.439219 
L 396.58209 66.439219 
L 395.930003 66.439219 
L 395.277916 66.439219 
L 394.62583 66.439219 
L 393.973743 66.439219 
L 393.321656 66.439219 
L 392.669569 66.439219 
L 392.017482 66.439219 
L 391.365395 66.439219 
L 390.713309 66.439219 
L 390.061222 66.439219 
L 389.409135 66.439219 
L 388.757048 66.439219 
L 388.104961 66.439219 
L 387.452875 66.439219 
L 386.800788 66.439219 
L 386.148701 66.439219 
L 385.496614 66.439219 
L 384.844527 66.439219 
L 384.192441 66.439219 
L 383.540354 66.439219 
L 382.888267 66.439219 
L 382.23618 66.439219 
L 381.584093 66.439219 
L 380.932006 66.439219 
L 380.27992 66.439219 
L 379.627833 66.439219 
L 378.975746 66.439219 
L 378.323659 66.439219 
L 377.671572 66.439219 
L 377.019486 66.439219 
L 376.367399 66.439219 
L 375.715312 66.439219 
L 375.063225 66.439219 
L 374.411138 66.439219 
L 373.759052 66.439219 
L 373.106965 66.439219 
L 372.454878 66.439219 
L 371.802791 66.439219 
L 371.150704 66.439219 
L 370.498617 66.439219 
L 369.846531 66.439219 
L 369.194444 66.439219 
L 368.542357 66.439219 
L 367.89027 66.439219 
L 367.238183 66.439219 
L 366.586097 66.439219 
L 365.93401 66.439219 
L 365.281923 66.439219 
L 364.629836 66.439219 
L 363.977749 66.439219 
L 363.325663 66.439219 
L 362.673576 66.439219 
L 362.021489 66.439219 
L 361.369402 66.439219 
L 360.717315 66.439219 
L 360.065229 66.439219 
L 359.413142 66.439219 
L 358.761055 66.439219 
L 358.108968 66.439219 
L 357.456881 66.439219 
L 356.804794 66.439219 
L 356.152708 66.439219 
L 355.500621 66.439219 
L 354.848534 66.439219 
L 354.196447 66.439219 
L 353.54436 66.439219 
L 352.892274 66.439219 
L 352.240187 66.439219 
L 351.5881 66.439219 
L 350.936013 66.439219 
L 350.283926 66.439219 
L 349.63184 66.439219 
L 348.979753 66.439219 
L 348.327666 66.439219 
L 347.675579 66.439219 
L 347.023492 66.439219 
L 346.371405 66.439219 
L 345.719319 66.439219 
L 345.067232 66.439219 
L 344.415145 66.439219 
L 343.763058 66.439219 
L 343.110971 66.439219 
L 342.458885 66.439219 
L 341.806798 66.439219 
L 341.154711 66.439219 
L 340.502624 66.439219 
L 339.850537 66.439219 
L 339.198451 66.439219 
L 338.546364 66.439219 
L 337.894277 66.439219 
L 337.24219 66.439219 
L 336.590103 66.439219 
L 335.938016 66.439219 
L 335.28593 66.439219 
L 334.633843 66.439219 
L 333.981756 66.439219 
L 333.329669 66.439219 
L 332.677582 66.439219 
L 332.025496 66.439219 
L 331.373409 66.439219 
L 330.721322 66.439219 
L 330.069235 66.439219 
L 329.417148 66.439219 
L 328.765062 66.439219 
L 328.112975 66.439219 
L 327.460888 66.439219 
L 326.808801 66.439219 
L 326.156714 66.439219 
L 325.504628 66.439219 
L 324.852541 66.439219 
L 324.200454 66.439219 
L 323.548367 66.439219 
L 322.89628 66.439219 
L 322.244193 66.439219 
L 321.592107 66.439219 
L 320.94002 66.439219 
L 320.287933 66.439219 
L 319.635846 66.439219 
L 318.983759 66.439219 
L 318.331673 66.439219 
L 317.679586 66.439219 
L 317.027499 66.439219 
L 316.375412 66.439219 
L 315.723325 66.439219 
L 315.071239 66.439219 
L 314.419152 66.439219 
L 313.767065 66.439219 
L 313.114978 66.439219 
L 312.462891 66.439219 
L 311.810804 66.439219 
L 311.158718 66.439219 
L 310.506631 66.439219 
L 309.854544 66.439219 
L 309.202457 66.439219 
L 308.55037 66.439219 
L 307.898284 66.439219 
L 307.246197 66.439219 
L 306.59411 66.439219 
L 305.942023 66.439219 
L 305.289936 66.439219 
L 304.63785 66.439219 
L 303.985763 66.624327 
L 303.333676 67.179653 
L 302.681589 67.734978 
L 302.029502 68.290304 
L 301.377415 68.845629 
L 300.725329 69.400955 
L 300.073242 69.956281 
L 299.421155 70.511606 
L 298.769068 71.066932 
L 298.116981 71.622257 
L 297.464895 72.177583 
L 296.812808 72.732908 
L 296.160721 73.288234 
L 295.508634 73.843559 
L 294.856547 74.398885 
L 294.204461 74.95421 
L 293.552374 75.509536 
L 292.900287 76.064861 
L 292.2482 76.620187 
L 291.596113 77.175513 
L 290.944027 77.730838 
L 290.29194 78.286164 
L 289.639853 78.841489 
L 288.987766 79.396815 
L 288.335679 79.95214 
L 287.683592 80.507466 
L 287.031506 81.062791 
L 286.379419 81.618117 
L 285.727332 82.173442 
L 285.075245 82.728768 
L 284.423158 83.284094 
L 283.771072 83.839419 
L 283.118985 84.394745 
L 282.466898 84.95007 
L 281.814811 85.505396 
L 281.162724 86.060721 
L 280.510638 86.616047 
L 279.858551 87.171372 
L 279.206464 87.726698 
L 278.554377 88.282023 
L 277.90229 88.837349 
L 277.250203 89.392675 
L 276.598117 89.948 
L 275.94603 90.503326 
L 275.293943 91.058651 
L 274.641856 91.613977 
L 273.989769 92.169302 
L 273.337683 92.724628 
L 272.685596 93.279953 
L 272.033509 93.835279 
L 271.381422 94.390604 
L 270.729335 94.94593 
L 270.077249 95.501255 
L 269.425162 96.056581 
L 268.773075 96.611907 
L 268.120988 97.167232 
L 267.468901 97.722558 
L 266.816814 98.277883 
L 266.164728 98.833209 
L 265.512641 99.388534 
L 264.860554 99.94386 
L 264.208467 100.499185 
L 263.55638 101.054511 
L 262.904294 101.609836 
L 262.252207 102.165162 
L 261.60012 102.720488 
L 260.948033 103.275813 
L 260.295946 103.831139 
L 259.64386 104.386464 
L 258.991773 104.94179 
L 258.339686 105.497115 
L 257.687599 106.052441 
L 257.035512 106.607766 
L 256.383426 107.163092 
L 255.731339 107.718417 
L 255.079252 108.273743 
L 254.427165 108.829068 
L 253.775078 109.384394 
L 253.122991 109.93972 
L 252.470905 110.495045 
L 251.818818 111.050371 
L 251.166731 111.605696 
L 250.514644 112.161022 
L 249.862557 112.716347 
L 249.210471 113.271673 
L 248.558384 113.826998 
L 247.906297 114.382324 
L 247.25421 114.937649 
L 246.602123 115.492975 
L 245.950037 116.048301 
L 245.29795 116.603626 
L 244.645863 117.158952 
L 243.993776 117.714277 
L 243.341689 118.269603 
L 242.689602 118.824928 
L 242.037516 119.380254 
L 241.385429 119.935579 
L 240.733342 120.490905 
L 240.081255 121.04623 
L 239.429168 121.601556 
L 238.777082 122.156882 
L 238.124995 122.712207 
L 237.472908 123.267533 
L 236.820821 123.822858 
L 236.168734 124.378184 
L 235.516648 124.933509 
L 234.864561 125.488835 
L 234.212474 126.04416 
L 233.560387 126.599486 
L 232.9083 127.154811 
L 232.256213 127.710137 
L 231.604127 128.265462 
L 230.95204 128.820788 
L 230.299953 129.376114 
L 229.647866 129.931439 
L 228.995779 130.486765 
L 228.343693 131.04209 
L 227.691606 131.597416 
L 227.039519 132.152741 
L 226.387432 132.708067 
L 225.735345 133.263392 
L 225.083259 133.818718 
L 224.431172 134.374043 
L 223.779085 134.929369 
L 223.126998 135.484695 
L 222.474911 136.04002 
L 221.822824 136.595346 
L 221.170738 137.150671 
L 220.518651 137.705997 
L 219.866564 138.261322 
L 219.214477 138.816648 
L 218.56239 139.371973 
L 217.910304 139.927299 
L 217.258217 140.482624 
L 216.60613 141.03795 
L 215.954043 141.593276 
L 215.301956 142.148601 
L 214.64987 142.703927 
L 213.997783 143.259252 
L 213.345696 143.814578 
L 212.693609 144.369903 
L 212.041522 144.925229 
L 211.389436 145.480554 
L 210.737349 146.03588 
L 210.085262 146.591205 
L 209.433175 147.146531 
L 208.781088 147.701856 
L 208.129001 148.257182 
L 207.476915 148.812508 
L 206.824828 149.367833 
L 206.172741 149.923159 
L 205.520654 150.478484 
L 204.868567 151.03381 
L 204.216481 151.589135 
L 203.564394 152.144461 
L 202.912307 152.699786 
L 202.26022 153.255112 
L 201.608133 153.810437 
L 200.956047 154.365763 
L 200.30396 154.921089 
L 199.651873 155.476414 
L 198.999786 156.03174 
L 198.347699 156.587065 
L 197.695612 157.142391 
L 197.043526 157.697716 
L 196.391439 158.253042 
L 195.739352 158.808367 
L 195.087265 159.363693 
L 194.435178 159.919018 
L 193.783092 160.474344 
L 193.131005 161.02967 
L 192.478918 161.584995 
L 191.826831 162.140321 
L 191.174744 162.695646 
L 190.522658 163.250972 
L 189.870571 163.806297 
L 189.218484 164.361623 
L 188.566397 164.916948 
L 187.91431 165.472274 
L 187.262223 166.027599 
L 186.610137 166.582925 
L 185.95805 167.13825 
L 185.305963 167.693576 
L 184.653876 168.248902 
L 184.001789 168.804227 
L 183.349703 169.359553 
L 182.697616 169.914878 
L 182.045529 170.470204 
L 181.393442 171.025529 
L 180.741355 171.580855 
L 180.089269 172.13618 
L 179.437182 172.691506 
L 178.785095 173.246831 
L 178.133008 173.802157 
L 177.480921 174.357483 
L 176.828835 174.912808 
L 176.176748 175.468134 
L 175.524661 176.023459 
L 174.872574 176.578785 
L 174.220487 177.13411 
L 173.5684 177.319219 
L 172.916314 177.319219 
L 172.264227 177.319219 
L 171.61214 177.319219 
L 170.960053 177.319219 
L 170.307966 177.319219 
L 169.65588 177.319219 
L 169.003793 177.319219 
L 168.351706 177.319219 
L 167.699619 177.319219 
L 167.047532 177.319219 
L 166.395446 177.319219 
L 165.743359 177.319219 
L 165.091272 177.319219 
L 164.439185 177.319219 
L 163.787098 177.319219 
L 163.135011 177.319219 
L 162.482925 177.319219 
L 161.830838 177.319219 
L 161.178751 177.319219 
L 160.526664 177.319219 
L 159.874577 177.319219 
L 159.222491 177.319219 
L 158.570404 177.319219 
L 157.918317 177.319219 
L 157.26623 177.319219 
L 156.614143 177.319219 
L 155.962057 177.319219 
L 155.30997 177.319219 
L 154.657883 177.319219 
L 154.005796 177.319219 
L 153.353709 177.319219 
L 152.701622 177.319219 
L 152.049536 177.319219 
L 151.397449 177.319219 
L 150.745362 177.319219 
L 150.093275 177.319219 
L 149.441188 177.319219 
L 148.789102 177.319219 
L 148.137015 177.319219 
L 147.484928 177.319219 
L 146.832841 177.319219 
L 146.180754 177.319219 
L 145.528668 177.319219 
L 144.876581 177.319219 
L 144.224494 177.319219 
L 143.572407 177.319219 
L 142.92032 177.319219 
L 142.268234 177.319219 
L 141.616147 177.319219 
L 140.96406 177.319219 
L 140.311973 177.319219 
L 139.659886 177.319219 
L 139.007799 177.319219 
L 138.355713 177.319219 
L 137.703626 177.319219 
L 137.051539 177.319219 
L 136.399452 177.319219 
L 135.747365 177.319219 
L 135.095279 177.319219 
L 134.443192 177.319219 
L 133.791105 177.319219 
L 133.139018 177.319219 
L 132.486931 177.319219 
L 131.834845 177.319219 
L 131.182758 177.319219 
L 130.530671 177.319219 
L 129.878584 177.319219 
L 129.226497 177.319219 
L 128.57441 177.319219 
L 127.922324 177.319219 
L 127.270237 177.319219 
L 126.61815 177.319219 
L 125.966063 177.319219 
L 125.313976 177.319219 
L 124.66189 177.319219 
L 124.009803 177.319219 
L 123.357716 177.319219 
L 122.705629 177.319219 
L 122.053542 177.319219 
L 121.401456 177.319219 
L 120.749369 177.319219 
L 120.097282 177.319219 
L 119.445195 177.319219 
L 118.793108 177.319219 
L 118.141021 177.319219 
L 117.488935 177.319219 
L 116.836848 177.319219 
L 116.184761 177.319219 
L 115.532674 177.319219 
L 114.880587 177.319219 
L 114.228501 177.319219 
L 113.576414 177.319219 
L 112.924327 177.319219 
L 112.27224 177.319219 
L 111.620153 177.319219 
L 110.968067 177.319219 
L 110.31598 177.319219 
L 109.663893 177.319219 
L 109.011806 177.319219 
L 108.359719 178.244761 
L 107.707633 179.355412 
L 107.055546 180.466063 
L 106.403459 181.576715 
L 105.751372 182.687366 
L 105.099285 183.798017 
L 104.447198 184.908668 
L 103.795112 186.019319 
L 103.143025 187.12997 
L 102.490938 188.240621 
L 101.838851 189.351272 
L 101.186764 190.461923 
L 100.534678 191.572574 
L 99.882591 192.683225 
L 99.230504 193.793877 
L 98.578417 194.904528 
L 97.92633 196.015179 
L 97.274244 197.12583 
L 96.622157 198.236481 
L 95.97007 199.347132 
L 95.317983 200.457783 
L 94.665896 201.568434 
L 94.013809 202.679085 
L 93.361723 203.789736 
L 92.709636 204.900387 
L 92.057549 206.011038 
L 91.405462 207.12169 
L 90.753375 208.232341 
L 90.101289 209.342992 
L 89.449202 210.453643 
L 88.797115 211.564294 
L 88.145028 212.674945 
L 87.492941 213.785596 
L 86.840855 214.896247 
L 86.188768 216.006898 
L 85.536681 217.117549 
L 84.884594 218.2282 
L 84.232507 219.338851 
L 83.58042 220.449503 
L 82.928334 221.560154 
L 82.276247 222.670805 
L 81.62416 223.781456 
L 80.972073 224.892107 
L 80.319986 226.002758 
L 79.6679 227.113409 
L 79.015813 228.22406 
L 78.363726 229.334711 
L 77.711639 230.445362 
L 77.059552 231.556013 
L 76.407466 232.666664 
L 75.755379 233.777316 
L 75.103292 234.887967 
L 74.451205 235.998618 
L 73.799118 237.109269 
L 73.147032 238.21992 
L 72.494945 239.330571 
L 71.842858 240.441222 
L 71.190771 241.551873 
L 70.538684 242.662524 
L 69.886597 243.773175 
L 69.234511 244.883826 
L 68.582424 245.994478 
L 67.930337 247.105129 
L 67.27825 248.21578 
L 66.626163 249.326431 
L 65.974077 250.437082 
L 65.32199 251.547733 
L 64.669903 252.658384 
L 64.017816 253.769035 
L 63.365729 254.879686 
L 62.713643 255.990337 
L 62.061556 257.100988 
L 61.409469 258.211639 
L 60.757382 259.322291 
L 60.105295 260.432942 
L 59.453208 261.543593 
L 58.801122 262.654244 
L 58.149035 263.764895 
L 57.496948 264.875546 
L 56.844861 265.986197 
L 56.192774 267.096848 
L 55.540688 268.207499 
L 54.888601 269.31815 
L 54.236514 270.428801 
L 53.584427 271.539452 
L 52.93234 272.650104 
L 52.280254 273.760755 
L 51.628167 274.871406 
L 50.97608 275.982057 
L 50.323993 277.092708 
L 49.671906 278.203359 
L 49.019819 279.31401 
L 48.367733 280.424661 
L 47.715646 281.535312 
L 47.063559 282.645963 
L 46.411472 283.756614 
L 45.759385 284.867265 
L 45.107299 285.977917 
L 44.455212 287.088568 
L 43.803125 288.199219 
z
" clip-path="url(#p14b5f9a5ef)" style="fill: #1f77b4; fill-opacity: 0.1"/>
   </g>
   <g id="matplotlib.axis_1">
    <g id="xtick_1">
     <g id="line2d_1">
      <path d="M 43.803125 288.199219 
L 43.803125 10.999219 
" clip-path="url(#p14b5f9a5ef)" style="fill: none; stroke: #b0b0b0; stroke-opacity: 0.3; stroke-width: 0.8; stroke-linecap: square"/>
     </g>
     <g id="line2d_2">
      <defs>
       <path id="mb710b0e4ad" d="M 0 0 
L 0 3.5 
" style="stroke: #000000; stroke-width: 0.8"/>
      </defs>
      <g>
       <use xlink:href="#mb710b0e4ad" x="43.803125" y="288.199219" style="stroke: #000000; stroke-width: 0.8"/>
      </g>
     </g>
     <g id="text_1">
      <text style="font: 10px 'DejaVu Sans', 'Bitstream Vera Sans', 'Computer Modern Sans Serif', 'Lucida Grande', 'Verdana', 'Geneva', 'Lucid', 'Arial', 'Helvetica', 'Avant Garde', sans-serif; text-anchor: middle" x="43.803125" y="302.797656" transform="rotate(-0 43.803125 302.797656)">0.0</text>
     </g>
    </g>
    <g id="xtick_2">
     <g id="line2d_3">
      <path d="M 108.903125 288.199219 
L 108.903125 10.999219 
" clip-path="url(#p14b5f9a5ef)" style="fill: none; stroke: #b0b0b0; stroke-opacity: 0.3; stroke-width: 0.8; stroke-linecap: square"/>
     </g>
     <g id="line2d_4">
      <g>
       <use xlink:href="#mb710b0e4ad" x="108.903125" y="288.199219" style="stroke: #000000; stroke-width: 0.8"/>
      </g>
     </g>
     <g id="text_2">
      <text style="font: 10px 'DejaVu Sans', 'Bitstream Vera Sans', 'Computer Modern Sans Serif', 'Lucida Grande', 'Verdana', 'Geneva', 'Lucid', 'Arial', 'Helvetica', 'Avant Garde', sans-serif; text-anchor: middle" x="108.903125" y="302.797656" transform="rotate(-0 108.903125 302.797656)">0.5</text>
     </g>
    </g>
    <g id="xtick_3">
     <g id="line2d_5">
      <path d="M 174.003125 288.199219 
L 174.003125 10.999219 
" clip-path="url(#p14b5f9a5ef)" style="fill: none; stroke: #b0b0b0; stroke-opacity: 0.3; stroke-width: 0.8; stroke-linecap: square"/>
     </g>
     <g id="line2d_6">
      <g>
       <use xlink:href="#mb710b0e4ad" x="174.003125" y="288.199219" style="stroke: #000000; stroke-width: 0.8"/>
      </g>
     </g>
     <g id="text_3">
      <text style="font: 10px 'DejaVu Sans', 'Bitstream Vera Sans', 'Computer Modern Sans Serif', 'Lucida Grande', 'Verdana', 'Geneva', 'Lucid', 'Arial', 'Helvetica', 'Avant Garde', sans-serif; text-anchor: middle" x="174.003125" y="302.797656" transform="rotate(-0 174.003125 302.797656)">1.0</text>
     </g>
    </g>
    <g id="xtick_4">
     <g id="line2d_7">
      <path d="M 239.103125 288.199219 
L 239.103125 10.999219 
" clip-path="url(#p14b5f9a5ef)" style="fill: none; stroke: #b0b0b0; stroke-opacity: 0.3; stroke-width: 0.8; stroke-linecap: square"/>
     </g>
     <g id="line2d_8">
      <g>
       <use xlink:href="#mb710b0e4ad" x="239.103125" y="288.199219" style="stroke: #000000; stroke-width: 0.8"/>
      </g>
     </g>
     <g id="text_4">
      <text style="font: 10px 'DejaVu Sans', 'Bitstream Vera Sans', 'Computer Modern Sans Serif', 'Lucida Grande', 'Verdana', 'Geneva', 'Lucid', 'Arial', 'Helvetica', 'Avant Garde', sans-serif; text-anchor: middle" x="239.103125" y="302.797656" transform="rotate(-0 239.103125 302.797656)">1.5</text>
     </g>
    </g>
    <g id="xtick_5">
     <g id="line2d_9">
      <path d="M 304.203125 288.199219 
L 304.203125 10.999219 
" clip-path="url(#p14b5f9a5ef)" style="fill: none; stroke: #b0b0b0; stroke-opacity: 0.3; stroke-width: 0.8; stroke-linecap: square"/>
     </g>
     <g id="line2d_10">
      <g>
       <use xlink:href="#mb710b0e4ad" x="304.203125" y="288.199219" style="stroke: #000000; stroke-width: 0.8"/>
      </g>
     </g>
     <g id="text_5">
      <text style="font: 10px 'DejaVu Sans', 'Bitstream Vera Sans', 'Computer Modern Sans Serif', 'Lucida Grande', 'Verdana', 'Geneva', 'Lucid', 'Arial', 'Helvetica', 'Avant Garde', sans-serif; text-anchor: middle" x="304.203125" y="302.797656" transform="rotate(-0 304.203125 302.797656)">2.0</text>
     </g>
    </g>
    <g id="xtick_6">
     <g id="line2d_11">
      <path d="M 369.303125 288.199219 
L 369.303125 10.999219 
" clip-path="url(#p14b5f9a5ef)" style="fill: none; stroke: #b0b0b0; stroke-opacity: 0.3; stroke-width: 0.8; stroke-linecap: square"/>
     </g>
     <g id="line2d_12">
      <g>
       <use xlink:href="#mb710b0e4ad" x="369.303125" y="288.199219" style="stroke: #000000; stroke-width: 0.8"/>
      </g>
     </g>
     <g id="text_6">
      <text style="font: 10px 'DejaVu Sans', 'Bitstream Vera Sans', 'Computer Modern Sans Serif', 'Lucida Grande', 'Verdana', 'Geneva', 'Lucid', 'Arial', 'Helvetica', 'Avant Garde', sans-serif; text-anchor: middle" x="369.303125" y="302.797656" transform="rotate(-0 369.303125 302.797656)">2.5</text>
     </g>
    </g>
    <g id="xtick_7">
     <g id="line2d_13">
      <path d="M 434.403125 288.199219 
L 434.403125 10.999219 
" clip-path="url(#p14b5f9a5ef)" style="fill: none; stroke: #b0b0b0; stroke-opacity: 0.3; stroke-width: 0.8; stroke-linecap: square"/>
     </g>
     <g id="line2d_14">
      <g>
       <use xlink:href="#mb710b0e4ad" x="434.403125" y="288.199219" style="stroke: #000000; stroke-width: 0.8"/>
      </g>
     </g>
     <g id="text_7">
      <text style="font: 10px 'DejaVu Sans', 'Bitstream Vera Sans', 'Computer Modern Sans Serif', 'Lucida Grande', 'Verdana', 'Geneva', 'Lucid', 'Arial', 'Helvetica', 'Avant Garde', sans-serif; text-anchor: middle" x="434.403125" y="302.797656" transform="rotate(-0 434.403125 302.797656)">3.0</text>
     </g>
    </g>
    <g id="text_8">
     <text style="font: 10px 'DejaVu Sans', 'Bitstream Vera Sans', 'Computer Modern Sans Serif', 'Lucida Grande', 'Verdana', 'Geneva', 'Lucid', 'Arial', 'Helvetica', 'Avant Garde', sans-serif; text-anchor: middle" x="239.103125" y="316.475781" transform="rotate(-0 239.103125 316.475781)">r</text>
    </g>
   </g>
   <g id="matplotlib.axis_2">
    <g id="ytick_1">
     <g id="line2d_15">
      <path d="M 43.803125 288.199219 
L 434.403125 288.199219 
" clip-path="url(#p14b5f9a5ef)" style="fill: none; stroke: #b0b0b0; stroke-opacity: 0.3; stroke-width: 0.8; stroke-linecap: square"/>
     </g>
     <g id="line2d_16">
      <defs>
       <path id="m9274f8edd6" d="M 0 0 
L -3.5 0 
" style="stroke: #000000; stroke-width: 0.8"/>
      </defs>
      <g>
       <use xlink:href="#m9274f8edd6" x="43.803125" y="288.199219" style="stroke: #000000; stroke-width: 0.8"/>
      </g>
     </g>
     <g id="text_9">
      <text style="font: 10px 'DejaVu Sans', 'Bitstream Vera Sans', 'Computer Modern Sans Serif', 'Lucida Grande', 'Verdana', 'Geneva', 'Lucid', 'Arial', 'Helvetica', 'Avant Garde', sans-serif; text-anchor: end" x="36.803125" y="291.998438" transform="rotate(-0 36.803125 291.998438)">0.0</text>
     </g>
    </g>
    <g id="ytick_2">
     <g id="line2d_17">
      <path d="M 43.803125 232.759219 
L 434.403125 232.759219 
" clip-path="url(#p14b5f9a5ef)" style="fill: none; stroke: #b0b0b0; stroke-opacity: 0.3; stroke-width: 0.8; stroke-linecap: square"/>
     </g>
     <g id="line2d_18">
      <g>
       <use xlink:href="#m9274f8edd6" x="43.803125" y="232.759219" style="stroke: #000000; stroke-width: 0.8"/>
      </g>
     </g>
     <g id="text_10">
      <text style="font: 10px 'DejaVu Sans', 'Bitstream Vera Sans', 'Computer Modern Sans Serif', 'Lucida Grande', 'Verdana', 'Geneva', 'Lucid', 'Arial', 'Helvetica', 'Avant Garde', sans-serif; text-anchor: end" x="36.803125" y="236.558438" transform="rotate(-0 36.803125 236.558438)">0.5</text>
     </g>
    </g>
    <g id="ytick_3">
     <g id="line2d_19">
      <path d="M 43.803125 177.319219 
L 434.403125 177.319219 
" clip-path="url(#p14b5f9a5ef)" style="fill: none; stroke: #b0b0b0; stroke-opacity: 0.3; stroke-width: 0.8; stroke-linecap: square"/>
     </g>
     <g id="line2d_20">
      <g>
       <use xlink:href="#m9274f8edd6" x="43.803125" y="177.319219" style="stroke: #000000; stroke-width: 0.8"/>
      </g>
     </g>
     <g id="text_11">
      <text style="font: 10px 'DejaVu Sans', 'Bitstream Vera Sans', 'Computer Modern Sans Serif', 'Lucida Grande', 'Verdana', 'Geneva', 'Lucid', 'Arial', 'Helvetica', 'Avant Garde', sans-serif; text-anchor: end" x="36.803125" y="181.118437" transform="rotate(-0 36.803125 181.118437)">1.0</text>
     </g>
    </g>
    <g id="ytick_4">
     <g id="line2d_21">
      <path d="M 43.803125 121.879219 
L 434.403125 121.879219 
" clip-path="url(#p14b5f9a5ef)" style="fill: none; stroke: #b0b0b0; stroke-opacity: 0.3; stroke-width: 0.8; stroke-linecap: square"/>
     </g>
     <g id="line2d_22">
      <g>
       <use xlink:href="#m9274f8edd6" x="43.803125" y="121.879219" style="stroke: #000000; stroke-width: 0.8"/>
      </g>
     </g>
     <g id="text_12">
      <text style="font: 10px 'DejaVu Sans', 'Bitstream Vera Sans', 'Computer Modern Sans Serif', 'Lucida Grande', 'Verdana', 'Geneva', 'Lucid', 'Arial', 'Helvetica', 'Avant Garde', sans-serif; text-anchor: end" x="36.803125" y="125.678437" transform="rotate(-0 36.803125 125.678437)">1.5</text>
     </g>
    </g>
    <g id="ytick_5">
     <g id="line2d_23">
      <path d="M 43.803125 66.439219 
L 434.403125 66.439219 
" clip-path="url(#p14b5f9a5ef)" style="fill: none; stroke: #b0b0b0; stroke-opacity: 0.3; stroke-width: 0.8; stroke-linecap: square"/>
     </g>
     <g id="line2d_24">
      <g>
       <use xlink:href="#m9274f8edd6" x="43.803125" y="66.439219" style="stroke: #000000; stroke-width: 0.8"/>
      </g>
     </g>
     <g id="text_13">
      <text style="font: 10px 'DejaVu Sans', 'Bitstream Vera Sans', 'Computer Modern Sans Serif', 'Lucida Grande', 'Verdana', 'Geneva', 'Lucid', 'Arial', 'Helvetica', 'Avant Garde', sans-serif; text-anchor: end" x="36.803125" y="70.238437" transform="rotate(-0 36.803125 70.238437)">2.0</text>
     </g>
    </g>
    <g id="ytick_6">
     <g id="line2d_25">
      <path d="M 43.803125 10.999219 
L 434.403125 10.999219 
" clip-path="url(#p14b5f9a5ef)" style="fill: none; stroke: #b0b0b0; stroke-opacity: 0.3; stroke-width: 0.8; stroke-linecap: square"/>
     </g>
     <g id="line2d_26">
      <g>
       <use xlink:href="#m9274f8edd6" x="43.803125" y="10.999219" style="stroke: #000000; stroke-width: 0.8"/>
      </g>
     </g>
     <g id="text_14">
      <text style="font: 10px 'DejaVu Sans', 'Bitstream Vera Sans', 'Computer Modern Sans Serif', 'Lucida Grande', 'Verdana', 'Geneva', 'Lucid', 'Arial', 'Helvetica', 'Avant Garde', sans-serif; text-anchor: end" x="36.803125" y="14.798438" transform="rotate(-0 36.803125 14.798438)">2.5</text>
     </g>
    </g>
    <g id="text_15">
     <!-- $\phi(r)$ -->
     <g transform="translate(14.8 158.899219) rotate(-90)">
      <text>
       <tspan style="font: oblique 10px 'DejaVu Sans'" x="0 10.498047" y="-0.40625">ϕr</tspan>
       <tspan style="font: 10px 'DejaVu Sans'" x="6.59668 14.609375" y="-0.40625">()</tspan>
      </text>
     </g>
    </g>
   </g>
   <g id="line2d_27">
    <path d="M 43.803125 288.199219 
L 173.5684 177.689436 
L 174.220487 177.319219 
L 434.403125 177.319219 
L 434.403125 177.319219 
" clip-path="url(#p14b5f9a5ef)" style="fill: none; stroke: #1f77b4; stroke-width: 1.5; stroke-linecap: square"/>
   </g>
   <g id="line2d_28">
    <path d="M 43.803125 288.199219 
L 47.715646 281.729721 
L 52.280254 274.643357 
L 56.844861 268.008627 
L 61.409469 261.783689 
L 65.974077 255.931715 
L 70.538684 250.420161 
L 75.103292 245.220161 
L 80.319986 239.625972 
L 85.536681 234.371254 
L 90.753375 229.426016 
L 95.97007 224.7637 
L 101.838851 219.827487 
L 107.707633 215.189767 
L 113.576414 210.824262 
L 120.097282 206.264735 
L 126.61815 201.984362 
L 133.139018 197.958268 
L 140.311973 193.797071 
L 147.484928 189.891115 
L 155.30997 185.894471 
L 163.135011 182.148487 
L 171.61214 178.34675 
L 180.089269 174.786886 
L 189.218484 171.198083 
L 198.999786 167.607718 
L 208.781088 164.255301 
L 219.214477 160.915919 
L 230.299953 157.60891 
L 242.037516 154.350695 
L 254.427165 151.154933 
L 267.468901 148.032732 
L 281.162724 144.992879 
L 295.508634 142.042087 
L 310.506631 139.185243 
L 326.156714 136.425647 
L 343.110971 133.663024 
L 361.369402 130.92186 
L 380.27992 128.308916 
L 400.494611 125.740219 
L 422.013476 123.230258 
L 434.403125 121.879219 
L 434.403125 121.879219 
" clip-path="url(#p14b5f9a5ef)" style="fill: none; stroke: #ff7f0e; stroke-width: 1.5; stroke-linecap: square"/>
   </g>
   <g id="line2d_29">
    <path d="M 43.803125 288.199219 
L 48.367733 284.180597 
L 53.584427 279.293812 
L 59.453208 273.482034 
L 66.626163 266.03677 
L 77.059552 254.821209 
L 92.709636 237.98953 
L 100.534678 229.902563 
L 107.707633 222.816834 
L 114.228501 216.701741 
L 120.097282 211.492201 
L 125.966063 206.576987 
L 131.834845 201.963979 
L 137.703626 197.655029 
L 143.572407 193.647034 
L 149.441188 189.932954 
L 155.30997 186.502736 
L 161.178751 183.344133 
L 167.047532 180.443398 
L 172.916314 177.785869 
L 178.785095 175.356438 
L 185.305963 172.906132 
L 191.826831 170.698193 
L 198.347699 168.7128 
L 205.520654 166.76338 
L 212.693609 165.036747 
L 220.518651 163.381504 
L 228.995779 161.827881 
L 238.124995 160.400027 
L 247.25421 159.194169 
L 257.687599 158.050573 
L 268.773075 157.069332 
L 280.510638 156.251099 
L 293.552374 155.562594 
L 308.55037 155.003831 
L 325.504628 154.60908 
L 344.415145 154.395489 
L 367.238183 154.370878 
L 394.62583 154.573607 
L 429.838517 155.066596 
L 434.403125 155.143219 
L 434.403125 155.143219 
" clip-path="url(#p14b5f9a5ef)" style="fill: none; stroke: #2ca02c; stroke-width: 1.5; stroke-linecap: square"/>
   </g>
   <g id="line2d_30">
    <path d="M 43.803125 288.199219 
L 86.840855 214.896247 
L 87.492941 214.155813 
L 434.403125 66.439219 
L 434.403125 66.439219 
" clip-path="url(#p14b5f9a5ef)" style="fill: none; stroke: #d62728; stroke-width: 1.5; stroke-linecap: square"/>
   </g>
   <g id="line2d_31">
    <path d="M 43.803125 288.199219 
L 109.011806 177.319219 
L 173.5684 177.319219 
L 174.220487 177.13411 
L 303.985763 66.624327 
L 304.63785 66.439219 
L 434.403125 66.439219 
L 434.403125 66.439219 
" clip-path="url(#p14b5f9a5ef)" style="fill: none; stroke: #9467bd; stroke-width: 1.5; stroke-linecap: square"/>
   </g>
   <g id="patch_3">
    <path d="M 43.803125 288.199219 
L 43.803125 10.999219 
" style="fill: none; stroke: #000000; stroke-width: 0.8; stroke-linejoin: miter; stroke-linecap: square"/>
   </g>
   <g id="patch_4">
    <path d="M 434.403125 288.199219 
L 434.403125 10.999219 
" style="fill: none; stroke: #000000; stroke-width: 0.8; stroke-linejoin: miter; stroke-linecap: square"/>
   </g>
   <g id="patch_5">
    <path d="M 43.803125 288.199219 
L 434.403125 288.199219 
" style="fill: none; stroke: #000000; stroke-width: 0.8; stroke-linejoin: miter; stroke-linecap: square"/>
   </g>
   <g id="patch_6">
    <path d="M 43.803125 10.999219 
L 434.403125 10.999219 
" style="fill: none; stroke: #000000; stroke-width: 0.8; stroke-linejoin: miter; stroke-linecap: square"/>
   </g>
   <g id="legend_1">
    <g id="patch_7">
     <path d="M 50.803125 92.389844 
L 139.084375 92.389844 
Q 141.084375 92.389844 141.084375 90.389844 
L 141.084375 17.999219 
Q 141.084375 15.999219 139.084375 15.999219 
L 50.803125 15.999219 
Q 48.803125 15.999219 48.803125 17.999219 
L 48.803125 90.389844 
Q 48.803125 92.389844 50.803125 92.389844 
L 50.803125 92.389844 
z
" style="fill: none; opacity: 0.8; stroke: #cccccc; stroke-linejoin: miter"/>
    </g>
    <g id="line2d_32">
     <path d="M 52.803125 24.097656 
L 62.803125 24.097656 
L 72.803125 24.097656 
" style="fill: none; stroke: #1f77b4; stroke-width: 1.5; stroke-linecap: square"/>
    </g>
    <g id="text_16">
     <text style="font: 10px 'DejaVu Sans', 'Bitstream Vera Sans', 'Computer Modern Sans Serif', 'Lucida Grande', 'Verdana', 'Geneva', 'Lucid', 'Arial', 'Helvetica', 'Avant Garde', sans-serif; text-anchor: start" x="80.803125" y="27.597656" transform="rotate(-0 80.803125 27.597656)">MinMod</text>
    </g>
    <g id="line2d_33">
     <path d="M 52.803125 38.775781 
L 62.803125 38.775781 
L 72.803125 38.775781 
" style="fill: none; stroke: #ff7f0e; stroke-width: 1.5; stroke-linecap: square"/>
    </g>
    <g id="text_17">
     <text style="font: 10px 'DejaVu Sans', 'Bitstream Vera Sans', 'Computer Modern Sans Serif', 'Lucida Grande', 'Verdana', 'Geneva', 'Lucid', 'Arial', 'Helvetica', 'Avant Garde', sans-serif; text-anchor: start" x="80.803125" y="42.275781" transform="rotate(-0 80.803125 42.275781)">Van Leer</text>
    </g>
    <g id="line2d_34">
     <path d="M 52.803125 53.453906 
L 62.803125 53.453906 
L 72.803125 53.453906 
" style="fill: none; stroke: #2ca02c; stroke-width: 1.5; stroke-linecap: square"/>
    </g>
    <g id="text_18">
     <text style="font: 10px 'DejaVu Sans', 'Bitstream Vera Sans', 'Computer Modern Sans Serif', 'Lucida Grande', 'Verdana', 'Geneva', 'Lucid', 'Arial', 'Helvetica', 'Avant Garde', sans-serif; text-anchor: start" x="80.803125" y="56.953906" transform="rotate(-0 80.803125 56.953906)">Van Albada</text>
    </g>
    <g id="line2d_35">
     <path d="M 52.803125 68.132031 
L 62.803125 68.132031 
L 72.803125 68.132031 
" style="fill: none; stroke: #d62728; stroke-width: 1.5; stroke-linecap: square"/>
    </g>
    <g id="text_19">
     <text style="font: 10px 'DejaVu Sans', 'Bitstream Vera Sans', 'Computer Modern Sans Serif', 'Lucida Grande', 'Verdana', 'Geneva', 'Lucid', 'Arial', 'Helvetica', 'Avant Garde', sans-serif; text-anchor: start" x="80.803125" y="71.632031" transform="rotate(-0 80.803125 71.632031)">MC</text>
    </g>
    <g id="line2d_36">
     <path d="M 52.803125 82.810156 
L 62.803125 82.810156 
L 72.803125 82.810156 
" style="fill: none; stroke: #9467bd; stroke-width: 1.5; stroke-linecap: square"/>
    </g>
    <g id="text_20">
     <text style="font: 10px 'DejaVu Sans', 'Bitstream Vera Sans', 'Computer Modern Sans Serif', 'Lucida Grande', 'Verdana', 'Geneva', 'Lucid', 'Arial', 'Helvetica', 'Avant Garde', sans-serif; text-anchor: start" x="80.803125" y="86.310156" transform="rotate(-0 80.803125 86.310156)">Superbee</text>
    </g>
   </g>
  </g>
 </g>
 <defs>
  <clipPath id="p14b5f9a5ef">
   <rect x="43.803125" y="10.999219" width="390.6" height="277.2"/>
  </clipPath>
 </defs>
</svg>
